<?xml version="1.0" encoding="UTF-8"?>
<svg width="791px" height="106px" viewBox="0 0 791 106" version="1.1" xmlns="http://www.w3.org/2000/svg" xmlns:xlink="http://www.w3.org/1999/xlink">
    <!-- Generator: Sketch 63.1 (92452) - https://sketch.com -->
    <title>Group 3</title>
    <desc>Created with Sketch.</desc>
    <g id="img" stroke="none" stroke-width="1" fill="none" fill-rule="evenodd">
        <g id="Group-3" transform="translate(0.000000, -10.000000)">
            <g id="Group" transform="translate(140.000000, 0.000000)">
                <g id="insert_drive_file-24px">
                    <polygon id="Path" points="0 0 123 0 123 123 0 123"></polygon>
                    <path d="M71.7231675,10.3036649 L30.8304974,10.3036649 C25.2077552,10.3036649 20.6584457,14.9113351 20.6584457,20.5429319 L20.6073298,102.457068 C20.6073298,108.088665 25.1566394,112.696335 30.7793815,112.696335 L92.1695026,112.696335 C97.7922448,112.696335 102.39267,108.088665 102.39267,102.457068 L102.39267,41.021466 L71.7231675,10.3036649 Z M30.8304974,102.457068 L30.8304974,20.5429319 L66.6115838,20.5429319 L66.6115838,46.1410995 L92.1695026,46.1410995 L92.1695026,102.457068 L30.8304974,102.457068 Z" id="Shape" fill="#003366" fill-rule="nonzero"></path>
                </g>
                <g id="download-solid" transform="translate(52.038462, 77.584615)" fill="#003366" fill-rule="nonzero">
                    <path d="M8.38233173,0 L11.486899,0 C12.0030334,0 12.4182692,0.415235877 12.4182692,0.931370192 L12.4182692,7.45096154 L15.8216511,7.45096154 C16.5124174,7.45096154 16.8578005,8.285314 16.3688311,8.77428335 L10.4662725,14.6807227 C10.1752194,14.9717758 9.69789213,14.9717758 9.40683894,14.6807227 L3.49651893,8.77428335 C3.00754958,8.285314 3.35293269,7.45096154 4.04369892,7.45096154 L7.45096154,7.45096154 L7.45096154,0.931370192 C7.45096154,0.415235877 7.86619742,0 8.38233173,0 Z M19.8692308,14.5914663 L19.8692308,18.9378606 C19.8692308,19.4539949 19.4539949,19.8692308 18.9378606,19.8692308 L0.931370192,19.8692308 C0.415235877,19.8692308 0,19.4539949 0,18.9378606 L0,14.5914663 C0,14.075332 0.415235877,13.6600962 0.931370192,13.6600962 L6.62437049,13.6600962 L8.52591797,15.5616436 C9.3059405,16.3416662 10.5632903,16.3416662 11.3433128,15.5616436 L13.2448603,13.6600962 L18.9378606,13.6600962 C19.4539949,13.6600962 19.8692308,14.075332 19.8692308,14.5914663 Z M15.0571514,18.0064904 C15.0571514,17.5796124 14.7078876,17.2303486 14.2810096,17.2303486 C13.8541316,17.2303486 13.5048678,17.5796124 13.5048678,18.0064904 C13.5048678,18.4333684 13.8541316,18.7826322 14.2810096,18.7826322 C14.7078876,18.7826322 15.0571514,18.4333684 15.0571514,18.0064904 Z M17.5408053,18.0064904 C17.5408053,17.5796124 17.1915415,17.2303486 16.7646635,17.2303486 C16.3377855,17.2303486 15.9885216,17.5796124 15.9885216,18.0064904 C15.9885216,18.4333684 16.3377855,18.7826322 16.7646635,18.7826322 C17.1915415,18.7826322 17.5408053,18.4333684 17.5408053,18.0064904 Z" id="Shape"></path>
                </g>
                <g id="Template" transform="translate(35.000000, 55.000000)" fill="#003366" font-family="ArialRoundedMTBold, Arial Rounded MT Bold" font-size="12" font-weight="normal" stroke="#979797">
                    <text>
                        <tspan x="0" y="11">Template</tspan>
                    </text>
                </g>
            </g>
            <g id="json-file-svgrepo-com" transform="translate(0.000000, 11.000000)" fill="#003366" fill-rule="nonzero">
                <path d="M47.127459,79.5063149 C46.7066365,78.9726491 46.2259556,78.588754 45.6890441,78.3529081 C45.1521326,78.1170622 44.5861988,78 43.9894289,78 C43.3781479,78 42.7958892,78.1084547 42.2408388,78.328807 C41.6857884,78.5491594 41.1905963,78.921004 40.7534488,79.4460623 C40.3163013,79.9711207 39.9716621,80.6493928 39.724973,81.4826001 C39.4764701,82.314086 39.3440561,83.3332156 39.3277311,84.5417106 C39.3440561,85.7192185 39.4728423,86.7228546 39.7122758,87.5543404 C39.9517093,88.3858263 40.2818373,89.0640984 40.7044738,89.5908782 C41.1271102,90.1176581 41.6059772,90.4998317 42.1428887,90.7442851 C42.6798002,90.9887385 43.245734,91.1092437 43.8425038,91.1092437 C44.4537848,91.1092437 45.0360436,90.9956245 45.591094,90.7683861 C46.1461444,90.5411478 46.6413364,90.1675817 47.078484,89.6511308 C47.5156315,89.13468 47.8602707,88.4546864 48.1069597,87.614593 C48.3536488,86.7744997 48.4878767,85.751927 48.5042017,84.5434321 C48.4878767,83.3659242 48.3590905,82.3657311 48.119657,81.5428527 C47.8802234,80.7199744 47.5500954,80.0399808 47.127459,79.5063149 Z" id="Path"></path>
                <path d="M78,68.1680672 L78,24.4321345 C78,23.0932437 77.8405333,22.1021849 77.0466667,21.2998992 L56.8758667,0.961344538 C56.2709333,0.351327731 55.432,0 54.574,0 L4.2692,0 C2.21346667,0 0,1.60107563 0,5.11435294 L0,68.1680672 L78,68.1680672 Z M39.8666667,57.6806723 C39.8666667,58.6455126 39.0918667,59.4285714 38.1333333,59.4285714 C37.1748,59.4285714 36.4,58.6455126 36.4,57.6806723 L36.4,52.4369748 C36.4,51.4721345 37.1748,50.6890756 38.1333333,50.6890756 C39.0918667,50.6890756 39.8666667,51.4721345 39.8666667,52.4369748 L39.8666667,57.6806723 Z M53.7333333,5.92712605 C53.7333333,5.12658824 54.6918667,4.72631933 55.2534667,5.29263866 L72.7514667,22.9376807 C73.3130667,23.504 72.9161333,24.4705882 72.1222667,24.4705882 L53.7333333,24.4705882 L53.7333333,5.92712605 Z M52,41.9495798 L52,34.9579832 C52,33.9948908 51.2234667,33.210084 50.2666667,33.210084 C49.3081333,33.210084 48.5333333,32.4270252 48.5333333,31.4621849 C48.5333333,30.4973445 49.3081333,29.7142857 50.2666667,29.7142857 C53.1336,29.7142857 55.4666667,32.066958 55.4666667,34.9579832 L55.4666667,41.9495798 C55.4666667,43.8775126 57.0214667,45.4453782 58.9333333,45.4453782 C59.8918667,45.4453782 60.6666667,46.228437 60.6666667,47.1932773 C60.6666667,48.1581176 59.8918667,48.9411765 58.9333333,48.9411765 C57.0214667,48.9411765 55.4666667,50.509042 55.4666667,52.4369748 L55.4666667,59.4285714 C55.4666667,62.3195966 53.1336,64.6722689 50.2666667,64.6722689 C49.3081333,64.6722689 48.5333333,63.8892101 48.5333333,62.9243697 C48.5333333,61.9595294 49.3081333,61.1764706 50.2666667,61.1764706 C51.2234667,61.1764706 52,60.3916639 52,59.4285714 L52,52.4369748 C52,50.3394958 52.9394667,48.4762353 54.3954667,47.1932773 C52.9394667,45.9103193 52,44.0470588 52,41.9495798 Z M38.1333333,38.4537815 C39.5685333,38.4537815 40.7333333,39.6283697 40.7333333,41.0756303 C40.7333333,42.5228908 39.5685333,43.697479 38.1333333,43.697479 C36.6981333,43.697479 35.5333333,42.5228908 35.5333333,41.0756303 C35.5333333,39.6283697 36.6981333,38.4537815 38.1333333,38.4537815 Z M17.3333333,45.4453782 C19.2452,45.4453782 20.8,43.8775126 20.8,41.9495798 L20.8,34.9579832 C20.8,32.066958 23.1330667,29.7142857 26,29.7142857 C26.9585333,29.7142857 27.7333333,30.4973445 27.7333333,31.4621849 C27.7333333,32.4270252 26.9585333,33.210084 26,33.210084 C25.0432,33.210084 24.2666667,33.9948908 24.2666667,34.9579832 L24.2666667,41.9495798 C24.2666667,44.0470588 23.3272,45.9103193 21.8712,47.1932773 C23.3272,48.4762353 24.2666667,50.3394958 24.2666667,52.4369748 L24.2666667,59.4285714 C24.2666667,60.3916639 25.0432,61.1764706 26,61.1764706 C26.9585333,61.1764706 27.7333333,61.9595294 27.7333333,62.9243697 C27.7333333,63.8892101 26.9585333,64.6722689 26,64.6722689 C23.1330667,64.6722689 20.8,62.3195966 20.8,59.4285714 L20.8,52.4369748 C20.8,50.509042 19.2452,48.9411765 17.3333333,48.9411765 C16.3748,48.9411765 15.6,48.1581176 15.6,47.1932773 C15.6,46.228437 16.3748,45.4453782 17.3333333,45.4453782 Z" id="Shape"></path>
                <path d="M0,71.4453782 L0,96.8927336 C0,98.6044923 2.11466667,100.285714 4.2692,100.285714 L73.7308,100.285714 C75.8853333,100.285714 78,98.6044923 78,96.8927336 L78,71.4453782 L0,71.4453782 Z M19.9697333,89.3704953 C19.9697333,90.1746317 19.8189333,90.8515314 19.5190667,91.3994978 C19.2192,91.9474642 18.8170667,92.3885517 18.3109333,92.7210638 C17.8048,93.0535759 17.2241333,93.2859951 16.5689333,93.4166248 C15.9137333,93.5472546 15.2377333,93.6134177 14.5426667,93.6134177 C14.196,93.6134177 13.7869333,93.5777914 13.3224,93.5082353 C12.8578667,93.4386792 12.3742667,93.3318003 11.8768,93.1842056 C11.3793333,93.036611 10.9009333,92.8703549 10.4433333,92.6854375 C9.98573333,92.50052 9.5992,92.2918517 9.282,92.0594325 L10.4901333,90.1814177 C10.6478667,90.2882966 10.8732,90.4019614 11.1661333,90.5173228 C11.4590667,90.6326841 11.7797333,90.7412595 12.1264,90.8413524 C12.4730667,90.9414454 12.8370667,91.0296629 13.2166667,91.1077014 C13.5962667,91.18574 13.9516,91.2230628 14.2826667,91.2230628 C15.1198667,91.2230628 15.7872,91.0635927 16.2846667,90.7480455 C16.7821333,90.4324983 17.0456,89.8930143 17.0785333,89.1363796 L17.0785333,76.0547425 L19.9697333,76.0547425 L19.9697333,89.3704953 L19.9697333,89.3704953 Z M33.7272,90.6123262 C33.4672,91.192526 33.0997333,91.7031696 32.6248,92.1425606 C32.1498667,92.5819516 31.5674667,92.9348216 30.8706667,93.1977776 C30.1738667,93.4607336 29.3869333,93.5913633 28.5012,93.5913633 C28.1216,93.5913633 27.7316,93.5710054 27.3277333,93.5336826 C26.9238667,93.4963599 26.5182667,93.4285002 26.1074667,93.3368898 C25.6966667,93.2435828 25.3049333,93.116346 24.934,92.9534829 C24.5630667,92.7906199 24.2441333,92.593827 23.9737333,92.3614078 L24.4712,90.3663351 C24.6930667,90.4901789 24.9721333,90.6106298 25.3118667,90.7259911 C25.6516,90.8413524 26.0017333,90.9499278 26.3657333,91.0500208 C26.7297333,91.1501137 27.092,91.2315452 27.456,91.2943154 C27.82,91.3570855 28.158,91.3876223 28.4752,91.3876223 C29.4389333,91.3876223 30.1773333,91.1670786 30.6904,90.7259911 C31.2034667,90.2849036 31.46,89.6317548 31.46,88.7665447 C31.46,88.2406327 31.2797333,87.7927593 30.9157333,87.4212279 C30.5517333,87.0496965 30.0976,86.7137914 29.5533333,86.4118161 C29.0090667,86.1098408 28.4197333,85.809562 27.7870667,85.5075868 C27.1544,85.2056115 26.5633333,84.8493485 26.0104,84.4404943 C25.4574667,84.0316401 24.9998667,83.5481404 24.6358667,82.9916915 C24.2718667,82.4352427 24.0916,81.7396817 24.0916,80.9050084 C24.0916,80.1483737 24.2337333,79.474867 24.518,78.8878814 C24.8022667,78.3008957 25.1853333,77.800431 25.6672,77.3915769 C26.1490667,76.9827227 26.7106667,76.668872 27.3502667,76.4517212 C27.9898667,76.2345704 28.6658667,76.1276915 29.3765333,76.1276915 C30.1028,76.1276915 30.8377333,76.1938547 31.5796,76.3244844 C32.3214667,76.4551142 32.9212,76.668872 33.3805333,76.9623648 C33.2852,77.1625507 33.176,77.3830944 33.0494667,77.623996 C32.9229333,77.8648977 32.8033333,78.0871379 32.6941333,78.2958062 C32.5849333,78.5044745 32.4896,78.679213 32.4098667,78.8183253 C32.3301333,78.9574375 32.2833333,79.035476 32.2677333,79.0507444 C32.1724,79.0049392 32.0666667,78.9438655 31.9470667,78.865827 C31.8274667,78.7877884 31.6593333,78.7114464 31.4374667,78.6334078 C31.2156,78.5553693 30.9244,78.5027781 30.5604,78.4705447 C30.1964,78.4383114 29.7301333,78.4467939 29.1616,78.4942956 C28.8444,78.5265289 28.5462667,78.6130499 28.2602667,78.7606446 C27.9742667,78.9082392 27.7229333,79.0880672 27.5010667,79.305218 C27.2792,79.5223688 27.1058667,79.7649669 26.9793333,80.0364053 C26.8528,80.3078438 26.7904,80.5674068 26.7904,80.8133979 C26.7904,81.4309204 26.9706667,81.9296886 27.3346667,82.3097024 C27.6986667,82.6897163 28.1493333,83.0205319 28.6849333,83.3072388 C29.2205333,83.5939456 29.8064,83.87217 30.4390667,84.141912 C31.0717333,84.411654 31.6593333,84.7424696 32.2053333,85.1275729 C32.7513333,85.5126762 33.2037333,85.9978725 33.5677333,86.5763757 C33.9317333,87.1548789 34.112,87.9013347 34.112,88.8140465 C34.1189333,89.4332654 33.9872,90.0321265 33.7272,90.6123262 Z M50.7190667,88.6749343 C50.3481333,89.7725635 49.8333333,90.6852753 49.1781333,91.4113732 C48.5229333,92.1374711 47.7568,92.687134 46.8797333,93.0586653 C46.0026667,93.4301967 45.0424,93.6151142 44.0006667,93.6151142 C42.9589333,93.6151142 41.9986667,93.4301967 41.1216,93.0586653 C40.2445333,92.687134 39.4784,92.1391676 38.8232,91.4113732 C38.168,90.6835788 37.6532,89.7725635 37.2822667,88.6749343 C36.9113333,87.577305 36.7258667,86.3083302 36.7258667,84.8714029 C36.7258667,83.4344755 36.9113333,82.1688937 37.2822667,81.0797469 C37.6532,79.9906001 38.168,79.0812813 38.8232,78.3551834 C39.4784,77.6290855 40.2445333,77.0760297 41.1216,76.6960158 C41.9986667,76.316002 42.9589333,76.1276915 44.0006667,76.1276915 C45.0424,76.1276915 46.0026667,76.316002 46.8797333,76.6960158 C47.7568,77.0760297 48.5229333,77.627389 49.1781333,78.3551834 C49.8333333,79.0829778 50.3481333,79.9906001 50.7190667,81.0797469 C51.09,82.1688937 51.2754667,83.4344755 51.2754667,84.8714029 C51.2754667,86.3083302 51.09,87.577305 50.7190667,88.6749343 Z M67.912,93.4997528 L65.0208,93.4997528 L58.1724,81.7176273 L58.1724,93.4997528 L55.2812,93.4997528 L55.2812,76.405916 L58.1724,76.405916 L65.0208,88.1880415 L65.0208,76.405916 L67.912,76.405916 L67.912,93.4997528 Z" id="Shape"></path>
            </g>
            <g id="Group-2" transform="translate(115.000000, 58.000000)" stroke="#003366" stroke-linecap="square" stroke-width="5">
                <line x1="0.25" y1="13.5" x2="23.75" y2="13.5" id="Line-3"></line>
                <line x1="12.25" y1="0.254901961" x2="12.25" y2="25.745098" id="Line-3"></line>
            </g>
            <g id="arrow_right_alt-24px" transform="translate(287.000000, 37.000000)">
                <polygon id="Path" points="0 0 61 0 61 61 0 61"></polygon>
                <polygon id="Path" fill="#003366" fill-rule="nonzero" points="40.775625 27.5 10 27.5 10 32.5 40.775625 32.5 40.775625 40 51 30 40.775625 20"></polygon>
            </g>
            <g id="file-word-regular" transform="translate(371.000000, 11.000000)" fill="#003366" fill-rule="nonzero">
                <path d="M75.1359375,20.0890625 L58.09375,3.046875 C56.265625,1.21875 53.7875,0.1828125 51.2078125,0.1828125 L9.75,0.1828125 C4.3671875,0.203125 0,4.5703125 0,9.953125 L0,94.453125 C0,99.8359375 4.3671875,104.203125 9.75,104.203125 L68.25,104.203125 C73.6328125,104.203125 78,99.8359375 78,94.453125 L78,26.9953125 C78,24.415625 76.9640625,21.9171875 75.1359375,20.0890625 Z M67.4578125,26.203125 L52,26.203125 L52,10.7453125 L67.4578125,26.203125 Z M9.75,94.453125 L9.75,9.953125 L42.25,9.953125 L42.25,31.078125 C42.25,33.7796875 44.4234375,35.953125 47.125,35.953125 L68.25,35.953125 L68.25,94.453125 L9.75,94.453125 Z M54.4578125,52.203125 C53.3,52.203125 52.3046875,53.015625 52.08125,54.1328125 C47.896875,73.978125 47.9375,73.5109375 47.815625,75.15625 C47.775,74.9125 47.734375,74.628125 47.6734375,74.2828125 C47.5109375,73.246875 47.734375,74.3234375 42.8796875,54.071875 C42.615625,52.975 41.640625,52.203125 40.503125,52.203125 L37.8015625,52.203125 C36.684375,52.203125 35.709375,52.975 35.425,54.0515625 C30.46875,74.1609375 30.55,73.5921875 30.3875,75.115625 C30.3671875,74.8921875 30.346875,74.6078125 30.2859375,74.2625 C30.14375,73.20625 27.421875,59.3734375 26.40625,54.153125 C26.1828125,53.015625 25.1875,52.1828125 24.009375,52.1828125 L20.596875,52.1828125 C19.0125,52.1828125 17.8546875,53.665625 18.2203125,55.1890625 C19.8453125,61.8109375 23.64375,77.43125 24.9640625,82.8140625 C25.228125,83.9109375 26.203125,84.6625 27.340625,84.6625 L32.459375,84.6625 C33.5765625,84.6625 34.5515625,83.9109375 34.815625,82.8140625 L38.4515625,68.3109375 C38.75625,67.0515625 38.959375,65.8734375 39.0609375,64.796875 L39.65,68.3109375 C39.6703125,68.3921875 42.209375,78.56875 43.2859375,82.8140625 C43.55,83.890625 44.525,84.6625 45.6421875,84.6625 L50.659375,84.6625 C51.7765625,84.6625 52.7515625,83.9109375 53.015625,82.8140625 C57.240625,66.178125 59.15,58.6421875 60.0234375,55.1890625 C60.409375,53.6453125 59.2515625,52.1625 57.6671875,52.1625 L54.4578125,52.1625 L54.4578125,52.203125 Z" id="Shape"></path>
            </g>
            <g id="file-powerpoint-regular" transform="translate(485.000000, 11.000000)" fill="#003366" fill-rule="nonzero">
                <path d="M75.1359375,19.90625 L58.09375,2.8640625 C56.265625,1.0359375 53.7875,0 51.2078125,0 L9.75,0 C4.3671875,0.0203125 0,4.3875 0,9.7703125 L0,94.2703125 C0,99.653125 4.3671875,104.020313 9.75,104.020313 L68.25,104.020313 C73.6328125,104.020313 78,99.653125 78,94.2703125 L78,26.8125 C78,24.2328125 76.9640625,21.734375 75.1359375,19.90625 Z M67.4578125,26.0203125 L52,26.0203125 L52,10.5625 L67.4578125,26.0203125 Z M9.75,94.2703125 L9.75,9.7703125 L42.25,9.7703125 L42.25,30.8953125 C42.25,33.596875 44.4234375,35.7703125 47.125,35.7703125 L68.25,35.7703125 L68.25,94.2703125 L9.75,94.2703125 Z M24.375,82.0828125 L24.375,47.9578125 C24.375,46.6171875 25.471875,45.5203125 26.8125,45.5203125 L40.86875,45.5203125 C48.3234375,45.5203125 53.625,51.0046875 53.625,58.9875 C53.625,74.0796875 39.6703125,72.4953125 34.2265625,72.4953125 L34.2265625,82.0828125 C34.2265625,83.4234375 33.1296875,84.5203125 31.7890625,84.5203125 L26.8125,84.5203125 C25.471875,84.5203125 24.375,83.4234375 24.375,82.0828125 Z M34.2265625,64.3296875 L38.8984375,64.3296875 C40.503125,64.3296875 41.721875,63.8421875 42.575,62.8671875 C44.3015625,60.8765625 44.28125,57.078125 42.5953125,55.1890625 C41.7625,54.2546875 40.584375,53.7671875 39.0609375,53.7671875 L34.20625,53.7671875 L34.20625,64.3296875 L34.2265625,64.3296875 Z" id="Shape"></path>
            </g>
            <g id="file-excel-regular" transform="translate(599.000000, 11.000000)" fill="#003366" fill-rule="nonzero">
                <path d="M75.1359375,20.0890625 L58.09375,3.046875 C56.265625,1.21875 53.7875,0.1828125 51.2078125,0.1828125 L9.75,0.1828125 C4.3671875,0.203125 0,4.5703125 0,9.953125 L0,94.453125 C0,99.8359375 4.3671875,104.203125 9.75,104.203125 L68.25,104.203125 C73.6328125,104.203125 78,99.8359375 78,94.453125 L78,26.9953125 C78,24.415625 76.9640625,21.9171875 75.1359375,20.0890625 Z M67.4578125,26.203125 L52,26.203125 L52,10.7453125 L67.4578125,26.203125 Z M9.75,94.453125 L9.75,9.953125 L42.25,9.953125 L42.25,31.078125 C42.25,33.7796875 44.4234375,35.953125 47.125,35.953125 L68.25,35.953125 L68.25,94.453125 L9.75,94.453125 Z M52.8125,45.703125 L46.9625,45.703125 C46.06875,45.703125 45.25625,46.190625 44.8296875,46.9828125 C41.1734375,53.70625 40.3203125,55.5953125 39.0203125,58.703125 C36.196875,52.7921875 37.61875,55.1890625 33.2109375,46.9828125 C32.784375,46.190625 31.9515625,45.703125 31.0578125,45.703125 L25.1875,45.703125 C23.2984375,45.703125 22.140625,47.734375 23.075,49.359375 L32.4796875,65.203125 L23.075,81.046875 C22.1203125,82.671875 23.2984375,84.703125 25.1875,84.703125 L31.0578125,84.703125 C31.9515625,84.703125 32.7640625,84.215625 33.190625,83.4234375 C37.5984375,75.2984375 37.8625,74.2828125 39,71.703125 C42.0265625,77.8375 40.1984375,74.9328125 44.809375,83.4234375 C45.2359375,84.215625 46.06875,84.703125 46.9625,84.703125 L52.8125,84.703125 C54.7015625,84.703125 55.859375,82.671875 54.925,81.046875 L45.5,65.203125 C45.6421875,64.9796875 51.6546875,54.9453125 54.9046875,49.359375 C55.859375,47.734375 54.68125,45.703125 52.8125,45.703125 Z" id="Shape"></path>
            </g>
            <g id="file-pdf-regular" transform="translate(713.000000, 11.000000)" fill="#003366" fill-rule="nonzero">
                <path d="M75.1359375,20.0890625 L58.09375,3.046875 C56.265625,1.21875 53.7875,0.1828125 51.2078125,0.1828125 L9.75,0.1828125 C4.3671875,0.203125 0,4.5703125 0,9.953125 L0,94.453125 C0,99.8359375 4.3671875,104.203125 9.75,104.203125 L68.25,104.203125 C73.6328125,104.203125 78,99.8359375 78,94.453125 L78,26.9953125 C78,24.415625 76.9640625,21.9171875 75.1359375,20.0890625 Z M67.4578125,26.203125 L52,26.203125 L52,10.7453125 L67.4578125,26.203125 Z M9.75,94.453125 L9.75,9.953125 L42.25,9.953125 L42.25,31.078125 C42.25,33.7796875 44.4234375,35.953125 47.125,35.953125 L68.25,35.953125 L68.25,94.453125 L9.75,94.453125 Z M60.571875,65.2640625 C58.09375,62.8265625 51.025,63.496875 47.490625,63.94375 C43.996875,61.8109375 41.6609375,58.865625 40.015625,54.5390625 C40.8078125,51.26875 42.0671875,46.2921875 41.1125,43.1640625 C40.259375,37.8421875 33.434375,38.3703125 32.459375,41.965625 C31.565625,45.2359375 32.378125,49.7859375 33.88125,55.5953125 C31.85,60.45 28.8234375,66.9703125 26.690625,70.7078125 C22.628125,72.8 17.14375,76.0296875 16.33125,80.0921875 C15.6609375,83.3015625 21.6125,91.3046875 31.7890625,73.7546875 C36.3390625,72.2515625 41.2953125,70.403125 45.6828125,69.671875 C49.521875,71.74375 54.0109375,73.125 57.0171875,73.125 C62.196875,73.125 62.7046875,67.396875 60.571875,65.2640625 Z M20.3328125,81.0671875 C21.36875,78.284375 25.309375,75.075 26.5078125,73.9578125 C22.6484375,80.1125 20.3328125,81.209375 20.3328125,81.0671875 Z M36.9078125,42.3515625 C38.4109375,42.3515625 38.26875,48.871875 37.2734375,50.6390625 C36.3796875,47.815625 36.4,42.3515625 36.9078125,42.3515625 L36.9078125,42.3515625 Z M31.9515625,70.0984375 C33.921875,66.665625 35.6078125,62.5828125 36.96875,58.9875 C38.6546875,62.0546875 40.8078125,64.5125 43.0828125,66.1984375 C38.8578125,67.071875 35.18125,68.859375 31.9515625,70.0984375 L31.9515625,70.0984375 Z M58.6828125,69.0828125 C58.6828125,69.0828125 57.6671875,70.3015625 51.10625,67.4984375 C58.2359375,66.9703125 59.4140625,68.5953125 58.6828125,69.0828125 Z" id="Shape"></path>
            </g>
        </g>
    </g>
</svg>