<?xml version="1.0" encoding="UTF-8"?>
<svg width="51px" height="46px" viewBox="0 0 51 46" version="1.1" xmlns="http://www.w3.org/2000/svg" xmlns:xlink="http://www.w3.org/1999/xlink">
    <!-- Generator: Sketch 63.1 (92452) - https://sketch.com -->
    <title>Cheffy</title>
    <desc>Created with Sketch.</desc>
    <g id="img" stroke="none" stroke-width="1" fill="none" fill-rule="evenodd">
        <g id="Cheffy" fill="#003366" fill-rule="nonzero">
            <path d="M16.4335464,45.9861847 C14.2613517,45.9142115 13.1022546,45.7850721 11.7733548,45.4669909 C9.30726676,44.8766893 7.88229675,43.5568876 7.04168239,41.0845308 C6.78276101,40.3229962 6.53692062,39.2527896 6.31983339,37.9421457 C6.25931059,37.5767312 6.12286801,36.8333326 6.01663323,36.2901489 C5.75746882,34.9650679 5.4795264,33.5146507 5.40164805,33.0809656 L5.33806229,32.7268709 L5.05755014,32.7514584 C4.71108978,32.7818264 4.54696269,32.8300647 3.87915319,33.0978067 C3.15448071,33.388339 2.92835115,33.3858323 2.72087809,33.0849545 L2.62278497,32.9427212 L2.63219578,32.1386656 C2.64045968,31.4326525 2.58709496,30.1939422 2.54666541,30.1533247 C2.53870459,30.145325 2.51169843,30.1547719 2.48665012,30.1743183 C2.46160324,30.1938643 2.25615309,30.2531473 2.03010217,30.3060614 C1.8040441,30.358972 1.53062998,30.4283343 1.42251525,30.4601927 C1.11589831,30.5505498 0.797880168,30.5372261 0.577218897,30.4247786 C0.371675819,30.320042 0.259372313,30.1974998 0.225061523,30.0405098 C0.21242443,29.9826971 0.229220634,29.6414808 0.262385229,29.2822792 C0.309694806,28.7698729 0.318747851,28.3963062 0.304401651,27.5485445 C0.286665832,26.5004244 0.282196852,26.4463395 0.155750152,25.7496637 C-0.0186129956,24.7889917 -0.0324159406,24.6235765 0.0448262262,24.420345 C0.0810026658,24.3251649 0.157076121,24.2192862 0.228767803,24.1643394 C0.37757656,24.0502906 0.431208614,24.0559684 1.12188482,24.2589054 C1.38791854,24.3370736 1.68904934,24.410512 1.79105246,24.4221047 C1.89305915,24.4336957 2.01509477,24.4511928 2.06223994,24.4609877 C2.14739861,24.4786792 2.14780247,24.4773191 2.12411016,24.252319 C2.11099414,24.1277584 2.07467403,23.7834392 2.04340117,23.4871572 C1.97266019,22.8169493 1.99160975,22.0155872 2.08331606,21.7992475 C2.27970602,21.3358983 2.55269482,21.2858715 3.38033542,21.5614641 C4.11615891,21.8064983 4.37970867,21.8890299 4.4263499,21.8890299 C4.45534037,21.8890299 4.46190124,21.7056187 4.4497956,21.2336181 C4.41462132,19.8621735 4.58366487,17.7299485 4.83915159,16.3225191 C5.07876957,15.0024659 5.60699849,14.3494963 6.82546043,13.8670773 C6.95658484,13.8151615 7.0812295,13.7726872 7.10244858,13.7726872 C7.1236673,13.7726872 7.14102678,13.7578656 7.14102678,13.73975 C7.14102678,13.680174 7.92795905,13.5413129 8.48129203,13.5032559 C9.06772062,13.462922 10.3481922,13.3118972 11.5370968,13.1428692 C13.2778333,12.895357 13.7650108,12.8301103 14.4678101,12.7503763 C14.9100977,12.7001916 15.3845516,12.6438692 15.5221521,12.6252232 C15.79577,12.5881395 15.8537874,12.5820163 16.7194558,12.4988527 C17.0437999,12.4676928 17.6147529,12.4101261 17.9882402,12.3709271 C18.3617274,12.331728 19.1256786,12.2597979 19.6859095,12.2110892 C21.1830751,12.0809118 21.464781,12.0557009 21.7365153,12.0275775 L21.9822378,12.0021443 L21.9603396,11.7112815 C21.9482951,11.5513072 21.921933,11.105286 21.9017575,10.7201194 C21.8815856,10.3349527 21.8335577,9.64811714 21.7950295,9.19381803 C21.6459634,7.43598574 21.5987039,6.66482648 21.5565946,5.30300654 L21.5328951,4.53673144 L21.3435674,4.39618961 C21.2386086,4.31827642 21.1101182,4.17964157 21.0552353,4.08508989 C21.0007848,3.99128162 20.8970947,3.85419103 20.8248133,3.78044374 C20.7525319,3.70669645 20.6493887,3.56932932 20.5956029,3.47518347 C20.2479238,2.86660223 20.2090347,2.73842883 20.2145745,2.21988141 C20.2214448,1.57915806 20.3571715,1.18382806 20.6866337,0.844989157 C20.879078,0.647061989 21.3881464,0.307048736 21.7588459,0.128848564 L22.026899,0 L22.6344859,0 C23.1256306,0 23.2797432,0.0130087562 23.4386451,0.065824888 C23.986617,0.247968304 24.4408061,0.591411247 24.6465278,0.979271354 C24.7085625,1.09621836 24.8197115,1.36813702 24.8935334,1.58354304 C25.0185533,1.94834701 25.02771,2.00350934 25.0271524,2.38820911 C25.0262232,3.03428349 24.9553821,3.2496895 24.5786461,3.75207608 L24.3580384,4.0462572 L24.3800188,4.39337763 C24.4467533,5.44742338 24.4690303,7.58769292 24.4312884,9.31956012 C24.4181609,9.92200024 24.4209344,10.5280317 24.4374536,10.6662966 C24.4539728,10.8045616 24.4774042,11.0308133 24.4895238,11.1690782 C24.5016434,11.3073432 24.5210254,11.5133939 24.5325981,11.6269686 L24.5536385,11.8334682 L24.7556361,11.8302468 C24.8667352,11.8284763 25.5607603,11.8071742 26.2979062,11.7829099 C28.7371174,11.7026229 30.8641005,11.7144024 32.1950733,11.8155649 C33.4924143,11.9141711 34.0706226,11.9760492 35.2330078,12.1406743 C39.4607405,12.7394153 42.0340498,13.6793656 43.5262118,15.1697899 C43.9942324,15.6372331 44.1317258,15.8124525 44.4663632,16.368134 C44.7305956,16.8068468 44.9325968,17.3030205 45.0914629,17.903629 C45.2937,18.6681444 45.5049794,20.1778899 45.5964748,21.5121645 C45.661333,22.4580763 45.671401,22.5426155 45.7168557,22.5232225 C45.7397081,22.5134735 45.9353189,22.4251872 46.1515305,22.3270299 C46.7406754,22.0595932 47.0557985,21.9606098 47.3945818,21.9365841 C47.7296553,21.9128237 47.8973421,21.9516815 48.06257,22.0913654 C48.3567744,22.3401166 48.4212965,22.640367 48.4251565,23.7788801 L48.4280157,24.625708 L48.7551333,24.60194 C48.9350506,24.5888681 49.2105019,24.5630355 49.3672236,24.5445331 C49.7513614,24.499193 50.1993674,24.5021271 50.4296786,24.5514873 C50.6708799,24.6031805 50.894018,24.8126321 50.9610312,25.0502108 C51.0236985,25.2724403 51.0104388,25.6999483 50.9237361,26.2526849 C50.7235112,27.5291397 50.7232146,27.5353167 50.7559456,29.7541997 C50.7617427,30.1470876 50.7570536,30.1762131 50.6598433,30.3524739 C50.5485941,30.5541576 50.3344269,30.7308171 50.1007203,30.8136683 C50.0201186,30.8422439 49.7866015,30.8981177 49.5818054,30.9378338 C49.3769986,30.97755 49.1004536,31.0466537 48.9672848,31.0914013 L48.7251293,31.1727586 L48.7428601,31.6037142 C48.7794082,32.491878 48.7658662,32.8873157 48.6933632,33.0487804 C48.5272204,33.4188277 47.7988523,33.6327972 46.7053031,33.6327972 L46.1470379,33.6327972 L46.1031559,34.1951584 C46.034713,35.072261 45.8577622,36.1312986 45.6339558,37.0033015 C45.0948833,39.103564 43.9824274,40.8732835 42.3449449,42.2351034 C41.2457129,43.14934 40.434227,43.663937 39.2000393,44.2293867 C36.8911375,45.2872752 35.0891777,45.6204757 30.9618756,45.752815 C30.6277028,45.7635315 30.1934568,45.7798934 29.9968846,45.7891769 C29.6544879,45.8053449 28.8401821,45.8205325 26.1011803,45.8618325 C25.4131774,45.8722077 24.6653094,45.8880382 24.4392513,45.8970128 C24.2131933,45.9059875 23.5537828,45.9236531 22.9738947,45.9362657 C22.3940066,45.9488819 21.8632615,45.9640372 21.7944613,45.9699449 C21.4589124,45.9987579 17.2003894,46.0118733 16.4334003,45.9864541 L16.4335464,45.9861847 Z M26.8175642,44.8005179 C27.3295098,44.7860055 28.0050035,44.7642817 28.3186613,44.7522401 C28.6323191,44.7401985 29.1944799,44.721926 29.5679672,44.7116297 C33.6423735,44.5993299 35.2714213,44.4651482 36.8232697,44.1140378 C39.6216363,43.4808562 42.0320766,41.9590799 43.4316709,39.9420278 C44.5070997,38.3920957 45.0303036,36.6833924 45.2755542,33.9201405 C45.3797518,32.7461454 45.4010031,31.7910399 45.4010031,28.2818037 C45.4010031,25.2974357 45.3755952,24.1791057 45.2773698,22.8409883 C44.9931514,18.9684925 44.5378651,17.3682104 43.3635425,16.1141294 C41.9520467,14.6064669 39.1093619,13.592105 34.6968513,13.0217351 C33.8137059,12.9075714 33.2109439,12.8604356 31.3908637,12.7632012 C30.6366697,12.7229105 26.6591913,12.7377185 24.9933309,12.7870216 C23.987989,12.8167726 22.3831733,12.9083823 21.2048478,13.0032823 C20.8313606,13.0333623 20.1309201,13.0889922 19.6482816,13.1269055 C18.6397946,13.206126 18.0069035,13.2623046 17.8273794,13.2885283 C17.7585791,13.2985785 17.3002084,13.3387957 16.8087778,13.3778977 C16.3173472,13.4169998 15.6740199,13.4724386 15.3791616,13.50109 C15.0843032,13.5297414 14.5615998,13.5708509 14.2175983,13.5924454 C13.8735969,13.6140384 13.3830598,13.6477478 13.1275159,13.6673563 C11.776886,13.7709868 9.16819369,13.817828 8.2896945,13.7542226 C7.92264052,13.7276423 7.91981703,13.7280471 7.95909574,13.8017821 C8.02398244,13.9236133 8.00650896,14.1102997 7.92165409,14.2018167 C7.87927669,14.2475232 7.73854883,14.3331792 7.60892553,14.3921663 C6.88636173,14.7209675 6.56877247,14.9206257 6.24743048,15.2480442 C5.8593254,15.6435179 5.68251761,16.1092014 5.53265809,17.1309973 C5.28039515,18.8507259 5.18641217,22.7434767 5.33323734,25.3909811 C5.39660508,26.5335523 5.54415935,28.1584348 5.65609473,28.9463654 C5.68415524,29.1438868 5.74046711,29.6206315 5.78123261,30.0057981 C5.97200776,31.808342 6.23145452,33.2427421 6.88232306,36.093047 C6.99057003,36.5670983 7.13334223,37.1973709 7.19959065,37.493653 C8.04960474,41.2950411 8.35093211,42.2470941 8.96924114,43.085662 C9.48819185,43.7892689 10.3303788,44.2690663 11.4097033,44.4759609 C12.2286947,44.6329616 13.018665,44.6845973 15.0752394,44.7155507 C15.9499859,44.7287164 17.3572644,44.7588582 18.202525,44.782532 C19.9095583,44.8303465 25.3695488,44.8420649 26.8173926,44.8010236 L26.8175642,44.8005179 Z M22.2903269,42.1237086 C21.7481092,42.0741487 21.2394874,41.9962103 20.9008471,41.9107949 C20.7927324,41.8835226 20.5756094,41.8437669 20.4183516,41.822449 C20.102771,41.7796659 19.0650054,41.5618501 18.7564227,41.4736299 C18.2455136,41.3275646 17.9696334,41.0385442 17.9707025,40.6504327 C17.9722138,40.1052738 18.5031662,39.772181 18.98341,40.0150963 C19.1070146,40.0776136 20.2331091,40.3278696 20.6398349,40.3832043 C20.8009705,40.4051292 21.1065689,40.4634051 21.3189026,40.5127137 C21.7947147,40.6231927 22.9756492,40.7418384 23.5992478,40.7418169 C24.2994024,40.7417953 25.4215796,40.6532806 26.7924387,40.4899484 C27.1555612,40.4466805 28.0587928,40.2772215 28.4005425,40.1882292 C29.1182814,40.0013488 30.1552893,39.6008725 30.7683087,39.2738849 C31.0319693,39.1332389 31.5130673,38.8874972 31.8374115,38.7277922 C32.8560846,38.2261957 33.3987669,37.9501686 33.5407993,37.8614277 C33.6162938,37.814256 33.8871417,37.6897888 34.1426677,37.5848331 C34.3981938,37.4798775 34.7635501,37.2991777 34.9545468,37.1832543 C35.316204,36.9638044 35.3399714,36.9527002 35.3399714,37.0032046 C35.3399714,37.0703726 34.5343111,37.9525281 34.0494925,38.4162364 C33.3629908,39.0728333 33.0219916,39.3251219 31.2476948,40.4892409 C31.0527345,40.6171522 30.2259481,41.0295157 29.9967806,41.113157 C29.9181517,41.1418515 29.6929871,41.2255467 29.4964149,41.2991467 C29.2998426,41.3727468 29.0103454,41.4724232 28.8530876,41.5206472 C28.395932,41.660837 27.2433396,41.892095 26.7444036,41.9437379 C26.6264602,41.9559447 26.3289213,41.9906977 26.083206,42.0209687 C24.821248,42.1764324 23.3136819,42.2172834 22.2904341,42.1237481 L22.2903269,42.1237086 Z M13.1986822,41.9034399 C12.5726533,41.8200069 11.9438723,41.3946249 11.6165617,40.8331615 C11.1358889,40.0085278 11.3520004,39.2307965 12.1497728,38.9140082 C12.5171127,38.7681404 13.1545786,38.5999025 13.50244,38.5569973 C13.6498691,38.5388146 13.8589505,38.4976798 13.9670652,38.465588 C14.2164082,38.3915714 14.8274083,38.3877933 15.0283409,38.4590267 C15.552331,38.6447937 15.8541587,38.9712534 16.0539833,39.5684862 C16.1704828,39.9166265 16.1102423,40.4585892 15.9091918,40.8711934 C15.6777333,41.3461783 15.0532805,41.7663242 14.4180663,41.8744941 C14.1298914,41.9235584 13.4674429,41.9393062 13.1986393,41.903483 L13.1986822,41.9034399 Z M14.4006679,41.4817139 C14.7135537,41.4150774 14.9572889,41.286965 15.1709451,41.076831 C15.4290158,40.8230305 15.5194176,40.6115067 15.5207051,40.258554 C15.5218909,39.9277991 15.4302239,39.6870349 15.2036333,39.4257321 C14.9694728,39.1557168 14.4597324,38.9905028 14.0077593,39.0381234 C13.7455891,39.0657477 13.5739422,38.9730778 13.5739422,38.8039134 C13.5739422,38.7035905 13.566159,38.6967311 13.4756561,38.7172805 C13.2242473,38.7743606 12.6026967,39.004516 12.3818209,39.122307 C11.9258448,39.3654953 11.8226623,39.5137225 11.8226623,39.9253929 C11.8226623,40.5838932 12.5565915,41.3334687 13.3237594,41.4585177 C13.8449617,41.5434591 14.0864596,41.54867 14.4006536,41.4817498 L14.4006679,41.4817139 Z M12.6625761,38.2666768 C12.3931614,38.2343336 12.0740031,38.1411466 11.9016629,38.0445156 C11.5431151,37.8434676 11.2148037,37.45917 11.0953593,37.1007586 C10.9210784,36.577722 11.1266879,35.7840453 11.5504419,35.3441114 C11.8838105,34.9980109 12.1818319,34.8258154 12.6521757,34.7075899 C12.8151519,34.6666168 13.1012896,34.5897881 13.2880333,34.5368596 C13.5764297,34.4551253 13.6948663,34.4408822 14.0743222,34.4422936 C14.4515265,34.4436942 14.5528148,34.4565797 14.7248691,34.5250299 C15.3759878,34.7840666 15.7493678,35.564495 15.6440051,36.4460507 C15.5324843,37.3789979 14.9315559,38.0118204 13.9492308,38.2308177 C13.7290842,38.2799 12.9529312,38.3015196 12.6625761,38.2666589 L12.6625761,38.2666768 Z M13.9060921,37.7785477 C14.3936627,37.658013 14.7547481,37.3937761 14.9352014,37.0254527 C15.0285303,36.8349595 15.0513434,36.7389246 15.066433,36.4730034 C15.0925246,36.0131737 14.9699053,35.6084345 14.7240149,35.3427503 C14.4981141,35.0986642 14.0154256,35.0069245 13.3179515,35.0755075 C12.942856,35.1123901 12.890532,35.1104006 12.8080789,35.0561109 C12.7492395,35.0173716 12.7161903,34.962748 12.7161903,34.9042385 C12.7161903,34.7930807 12.6685484,34.8027162 12.3212231,34.9841126 C12.0115432,35.1458503 11.7085253,35.4519868 11.5637766,35.7493103 C11.4581709,35.9662642 11.4480992,36.0182518 11.4363156,36.407236 C11.4248758,36.7849327 11.4318869,36.8469185 11.5023854,36.9932998 C11.6640213,37.3288095 11.9812711,37.606406 12.3403192,37.7264631 C12.7389319,37.8597541 13.478115,37.8843365 13.9061064,37.7785369 L13.9060921,37.7785477 Z M22.5059487,37.4979776 C22.497757,37.4907124 22.2176416,37.4743612 21.8834581,37.4616444 C20.974794,37.4270638 20.3905456,37.3755431 19.5782019,37.2583555 C18.7545999,37.139541 18.7691463,37.1424571 18.3914059,37.0206008 C17.9773533,36.8870225 17.8351422,36.698131 17.8704537,36.3287015 C17.8916046,36.1075207 17.9980077,35.9585106 18.2075716,35.8565536 C18.3540894,35.7852807 18.4442195,35.7740184 18.9846752,35.7594521 C19.4117731,35.7479384 19.7414783,35.7601345 20.0785461,35.7999368 C21.0015778,35.9089183 22.8820236,36.0027194 24.1350823,36.0022885 C25.3021138,36.0018934 27.7695242,35.9100711 28.4954119,35.8400301 C29.2021069,35.7718457 30.2995876,35.6468721 30.3717832,35.6263551 C30.4012691,35.6179766 30.6344752,35.5849187 30.8900191,35.5528915 C31.145563,35.5208643 31.4270187,35.478724 31.5154762,35.4592484 C31.6039337,35.4397728 31.8210567,35.4014429 31.9979717,35.3740736 C32.1748867,35.3467079 32.5769663,35.2828618 32.8914819,35.2321994 C33.2059975,35.181537 33.5647597,35.1251069 33.6887074,35.1067985 C33.9100799,35.0740997 34.7835075,34.8094786 35.151598,34.6635606 C35.2545589,34.6227527 35.3499858,34.6006051 35.3636601,34.6143418 C35.4018023,34.6526718 35.3459364,34.6874391 35.0358813,34.8183275 C34.8786235,34.8847163 34.5569598,35.0625465 34.3210731,35.2135139 C32.6624323,36.2750295 31.2986856,36.7801814 29.085461,37.1529581 C28.1684336,37.307409 27.6663881,37.359745 26.3363089,37.4395472 C25.2815023,37.502833 22.5581905,37.54437 22.5060095,37.4979704 L22.5059487,37.4979776 Z M25.743422,33.105821 C24.7470152,33.0549934 24.3195599,33.0003985 22.9735405,32.7520459 C22.8261113,32.7248436 22.6243782,32.7017318 22.5252486,32.7006832 C22.3524294,32.6988588 22.3435944,32.7035562 22.3108061,32.8147176 C22.2362016,33.0676527 21.9547673,33.0832353 21.8138715,32.8422352 C21.7472157,32.7282223 21.7405036,32.6575851 21.7405036,32.0703218 C21.7405036,31.3881549 21.7929419,29.6795593 21.8150259,29.642138 C21.8221704,29.6300317 21.8374781,29.3956995 21.8490365,29.1213999 C21.8605985,28.8471002 21.8851343,28.5145424 21.9035656,28.3823468 C21.9519045,28.0356968 21.9481161,27.9941994 21.8681469,27.9941994 C21.7591315,27.9941994 21.6798879,27.8948928 21.7235233,27.8129646 C21.788553,27.6908676 21.9558467,27.6328107 22.6390139,27.4952604 C23.3834508,27.3453705 24.1313188,27.2361519 25.0946657,27.1366227 C26.0197347,27.0410511 27.62212,27.1515553 27.8924962,27.3295688 C28.1008163,27.466724 28.1694844,27.733446 28.0538534,27.9563579 C27.9949961,28.0698249 27.9862969,28.121299 28.0137277,28.1937965 C28.1374002,28.5206476 28.5077673,29.8524371 28.697263,30.6517522 C28.8195666,31.1676061 28.8405605,31.3195898 28.8594422,31.8257473 C28.8755611,32.2578522 28.8694209,32.4355855 28.835539,32.5177903 C28.7821571,32.6472888 28.6063715,32.8065054 28.5167811,32.8065054 C28.4824024,32.8065054 28.4152819,32.8489905 28.3676256,32.900917 C28.1864003,33.0983845 28.1203985,33.1085694 26.9943362,33.1128251 C26.4242767,33.1149799 25.8613653,33.1118231 25.743422,33.1058056 L25.743422,33.105821 Z M22.8227517,32.3934154 C23.066562,32.3474109 23.4229404,32.3019809 23.9385315,32.2511713 C24.5517296,32.1907441 25.6658296,32.1473038 26.6632014,32.1449263 C27.6857344,32.1424914 27.8310906,32.1353512 27.8168302,32.08827 C27.6525673,31.5462355 27.5662828,30.5848811 27.5662292,29.2960364 L27.5662292,28.2096689 L27.2981762,28.2091446 C26.8697916,28.2083043 26.2511252,28.1744053 25.6541174,28.1190605 C24.3305787,27.9963603 23.8416142,27.9543888 23.152289,27.9043225 C22.7493159,27.8750523 22.3411247,27.8509809 22.2452332,27.8508265 L22.0708486,27.8505392 L22.0962815,28.1468212 C22.1102703,28.3097764 22.1513324,28.5885508 22.1875303,28.76632 C22.2801909,29.2213733 22.4290926,30.3475682 22.4558085,30.795403 C22.4757553,31.1297995 22.4499364,31.6272552 22.3786486,32.2820205 L22.3555996,32.4937239 L22.4512624,32.4695983 C22.5038758,32.4563288 22.6710694,32.4220459 22.8228196,32.3934161 L22.8227517,32.3934154 Z M24.7605608,32.0904787 C24.4634151,31.9989257 23.2594637,31.2330205 23.2594637,31.1355527 C23.2594637,31.1095201 23.2192558,31.0402038 23.1701127,30.981522 C23.0817517,30.8760025 23.0473909,30.6876677 23.1165021,30.6876677 C23.1361593,30.6876677 23.1522425,30.6643275 23.1522425,30.6358022 C23.1522425,30.5292017 23.3146469,30.3883941 23.4375939,30.3883941 C23.5652873,30.3883941 23.5236425,30.3490119 24.2214525,31.1296738 L24.5579842,31.5061495 L24.7770121,31.2136311 C24.8974787,31.0527482 25.1015565,30.7109213 25.2305221,30.4540358 C25.4242244,30.0681868 25.6459686,29.6865756 26.0650606,29.0177324 C26.1368095,28.9032275 26.3699192,28.6748892 26.4905144,28.6009982 C26.6234366,28.5195512 26.8432651,28.5120023 26.9050317,28.5867649 C26.9295031,28.6163931 26.9724774,28.6406343 27.0005336,28.6406343 C27.1010893,28.6406343 27.2622427,28.7515623 27.3174045,28.8587554 C27.3608863,28.9432442 27.3680987,29.0238976 27.3493028,29.2155651 C27.3251351,29.4620143 27.324138,29.463871 27.1435632,29.5995825 C27.0437652,29.6745939 26.8556277,29.8759221 26.7254719,30.0469863 C26.5953232,30.2180434 26.3225703,30.5412566 26.1193861,30.7652458 C25.7754561,31.1443431 25.1811289,31.896684 25.1006058,32.0548807 C25.0632821,32.1282006 24.928748,32.1422892 24.7606109,32.0904855 L24.7605608,32.0904787 Z M21.9906793,27.9005931 C22.0028275,27.8730931 21.9787027,27.8505931 21.9370687,27.8505931 C21.8954347,27.8505931 21.8713099,27.8730931 21.8834581,27.9005931 C21.8956062,27.9280931 21.919731,27.9505931 21.9370687,27.9505931 C21.9544064,27.9505931 21.9785311,27.9280931 21.9906793,27.9005931 Z M17.2550754,25.6939832 C16.8287996,25.6572406 16.1632775,25.5071064 15.9505506,25.3996835 C15.6592663,25.2525983 15.0899216,24.7825191 14.5924151,24.2783009 C14.2842149,23.965955 13.7313573,23.1973205 13.6225992,22.9299843 C13.5218935,22.6824326 13.3954939,21.981379 13.3693034,21.5251047 L13.3494431,21.1791191 L12.8412146,21.3527368 C12.5616817,21.4482258 12.2402396,21.5675574 12.1269425,21.6179182 C12.0136454,21.6682789 11.9068174,21.7094819 11.8896048,21.7094819 C11.7225756,21.7094819 12.2239241,21.2239026 12.7658166,20.8607865 C13.3814451,20.4482901 14.1386056,19.9795181 14.7966937,19.6034015 C14.9399091,19.5215487 15.6843425,19.1354555 16.4509742,18.7454406 C17.2176059,18.3554257 17.9493907,17.9758256 18.0771627,17.9019167 C18.3955525,17.7177226 19.4093506,17.2073239 19.6497406,17.1102152 C20.0208332,16.9602929 20.9056227,16.6858675 20.9556593,16.7051528 C20.9831933,16.7157697 21.1147684,16.7069017 21.2480444,16.6854509 C21.6891882,16.6144438 21.8600631,16.6093801 21.9160683,16.665655 C21.9444998,16.6942255 21.9923062,16.7176031 22.0223031,16.7176031 C22.1016218,16.7176031 22.2587938,16.8881215 22.2587938,16.9741761 C22.2587938,17.1827407 22.0241116,17.4201434 21.6405205,17.5996006 C21.4107455,17.7070989 21.4067926,17.7069085 22.366015,17.634787 C23.0705657,17.5818154 23.2605617,17.5716089 24.7427521,17.5070984 C25.1948682,17.487421 25.6934469,17.4638054 25.8507047,17.4546188 C26.0079625,17.4454334 26.4422084,17.427158 26.8156957,17.4140084 C27.1891829,17.4008589 27.5751793,17.3854587 27.6734654,17.3797884 C27.7717516,17.3741177 28.0692904,17.3673248 28.334663,17.3646924 L28.8171584,17.3599066 L28.6205862,17.2694742 C28.5124715,17.2197347 28.1299419,17.0589739 27.7705006,16.9122227 C26.659939,16.4588214 26.4884565,16.3478862 26.4025366,16.0272193 C26.3244902,15.7359758 26.4255927,15.4501337 26.6739957,15.2597591 C26.7786293,15.1795654 26.8532195,15.1552703 27.0294269,15.1439972 C27.234777,15.1308584 27.2860752,15.1444497 27.6774005,15.3156396 C27.911132,15.4178911 28.2390609,15.5603722 28.4061473,15.6322628 C29.4124185,16.0652296 31.8173547,17.3547926 33.7314679,18.487811 C33.9012349,18.5883027 34.2907696,18.8039062 34.9109013,19.140637 C36.0545586,19.7616082 36.6381637,20.1276332 37.4306,20.7208796 C37.931752,21.0960625 38.4535619,21.43878 38.8507808,21.6536473 C39.1530839,21.8171662 39.2269486,21.8737076 39.1885884,21.9122494 C39.1363896,21.9647003 37.9433926,21.5126099 37.3660779,21.221607 C37.2323087,21.1541804 37.1189651,21.0990109 37.1142009,21.0990109 C37.1094367,21.0990109 37.1121995,21.2041605 37.1203447,21.3326787 C37.161196,21.9773525 36.7851676,23.1113046 36.3225116,23.7385965 C35.9289382,24.2722633 35.6593126,24.5119823 34.9526533,24.9564772 C34.2533208,25.3964111 33.525789,25.557804 32.6093335,25.4764252 C32.3200936,25.4507342 32.1847375,25.4573454 31.8666479,25.5127009 C31.5306344,25.571178 31.2625278,25.5813558 29.8972085,25.5874646 C29.0279661,25.5913546 28.0272347,25.6067301 27.6734047,25.6216325 C27.3195746,25.6365346 25.5665077,25.6392108 23.7777004,25.6275797 C19.5310252,25.5999673 18.985984,25.6032505 18.8097838,25.6575078 C18.6244734,25.7145268 17.7352842,25.7354102 17.2550761,25.6940205 L17.2550754,25.6939832 Z M18.3712841,25.4450775 C18.0858933,25.3149145 17.4716266,24.5775637 17.3521106,24.2216662 C17.1796131,23.7080029 17.1212526,22.6390174 17.2345676,22.0685757 C17.4054246,21.20846 17.8220326,20.3840418 18.2665003,20.0264204 C18.4733908,19.8599602 18.894638,19.5798426 19.0242327,19.5225255 C19.4382853,19.339416 20.0000173,19.2270228 20.6097844,19.2052703 C20.9758019,19.1922127 21.107684,19.2027887 21.3782031,19.2668898 C21.7452928,19.3538782 22.066885,19.4762804 22.3841526,19.6497939 C22.5022782,19.7143906 22.6692324,19.7921673 22.7551738,19.8226323 C23.2206925,19.9876667 23.6469326,20.2685277 23.9291031,20.5961618 C24.0867541,20.779203 24.2748344,21.1448043 24.3909764,21.4939861 C24.4882582,21.786465 24.4923648,21.826314 24.4890445,22.4456799 C24.4843625,23.3183292 24.4028387,23.6332142 23.9742397,24.4340375 C23.8204309,24.7214347 23.4136872,25.1918731 23.3173668,25.1938124 C23.2953435,25.1942505 23.2371153,25.2270588 23.1879722,25.2667193 L23.0986212,25.3388254 L24.7784203,25.319951 C25.7023098,25.30957 26.8018277,25.2908855 27.2218132,25.2784284 L27.985407,25.2557817 L27.7879126,25.0717672 C27.4592796,24.765566 26.7309259,23.7781819 26.595291,23.4550011 C26.5468985,23.3396917 26.4964652,23.1123913 26.473645,22.9067536 C26.4330046,22.540549 26.453423,21.8063801 26.5097321,21.6091102 C26.5927463,21.3182546 26.9826491,20.7314689 27.4053509,20.2612604 C27.7571008,19.8699526 28.5807099,19.3808539 29.0136692,19.3061549 C29.3409298,19.2496961 29.766112,19.1980748 30.0662957,19.1783514 C30.6190568,19.1420362 31.4441598,19.266902 31.8550315,19.4490526 C31.9336604,19.4839097 32.1025339,19.5572153 32.2303058,19.6119538 C32.3580778,19.6666924 32.5371479,19.7650868 32.6282395,19.83061 C32.7193311,19.8961332 32.8139288,19.9497405 32.838461,19.9497405 C32.8629932,19.9497405 33.0562702,20.1251646 33.2679535,20.3395758 C33.5940775,20.6698818 33.6748222,20.7754516 33.7967685,21.0309005 C33.957368,21.3673548 34.0520372,21.6784833 34.1398407,22.1583883 C34.240307,22.7075336 34.2400139,22.8462654 34.1378035,23.1280386 C34.087649,23.2663035 34.030568,23.4602336 34.0109572,23.5589943 C33.9681616,23.7745152 33.6620665,24.3932167 33.4868241,24.618427 C33.2831681,24.8801463 33.1160174,25.0441034 32.9540419,25.1410685 C32.8704987,25.1910737 32.8021452,25.2401631 32.8021452,25.2501613 C32.8021452,25.2601595 32.8624571,25.2602255 32.9361717,25.2503049 C33.0098863,25.240389 33.1666973,25.2213117 33.2846407,25.2079097 C33.4887434,25.1847192 33.8986251,25.0569136 34.2387665,24.9104138 C34.4667403,24.8122205 35.0908178,24.2993546 35.315768,24.0253386 C35.6517742,23.6160025 35.9478013,22.9148017 36.0584536,22.2661057 C36.1066531,21.9835424 36.111378,21.5598053 36.0729178,20.9684263 L36.0469166,20.5685713 L35.54144,20.3337399 C35.263419,20.2045825 34.9314228,20.0557376 34.8036508,20.0029743 C34.3160445,19.8016174 33.6133881,19.4755923 32.8557987,19.0991884 C32.4233397,18.8843175 31.8395202,18.6136091 31.5584576,18.4976102 L31.0474056,18.2867113 L28.0201574,18.2920892 C26.3551905,18.2950485 24.3657008,18.3161929 23.5990691,18.3390814 C22.8324374,18.3619683 21.7307393,18.3830963 21.1508512,18.3860268 C20.2843608,18.39041 20.0710263,18.4014471 19.9535476,18.4479731 C19.8749187,18.4791107 19.6175878,18.5806176 19.3817011,18.6735461 C19.1458144,18.7664745 18.800026,18.9079752 18.6132824,18.9879929 C18.2627333,19.1382025 17.9785685,19.2486097 17.5768106,19.3907209 C17.1279111,19.5494958 16.8386282,19.6737726 16.2365453,19.9664418 C15.6250627,20.2636899 15.2756645,20.4188734 14.7198297,20.6400614 C14.4777671,20.7363944 14.4138239,20.7775363 14.3956106,20.8486799 C14.3831329,20.897421 14.384694,21.2039562 14.399081,21.5298772 C14.4200427,22.0047544 14.4445321,22.1937644 14.5223961,22.481571 C14.5758352,22.6790923 14.6177015,22.8765777 14.6154355,22.9204634 C14.6017441,23.1855766 15.0931061,23.8743479 15.8152052,24.6023038 C16.1453036,24.9350734 16.198128,24.9735362 16.4908419,25.0940961 C16.9778049,25.294706 17.9083779,25.508855 18.3094567,25.5126259 L18.5238992,25.514637 L18.3713091,25.4450412 L18.3712841,25.4450775 Z M20.8653211,25.1093954 C21.240095,25.0553176 21.6860996,24.9141581 21.7949648,24.8151855 C21.8265415,24.7864684 21.9076293,24.7440347 21.9751501,24.7208888 C22.1067641,24.675775 22.2838936,24.5239744 22.247542,24.4874509 C22.2354225,24.47527 22.1248238,24.4907872 22.0017767,24.5219331 C21.851885,24.5598716 21.7705113,24.5663108 21.7552108,24.5414357 C21.7420583,24.5200516 21.5143562,24.4969251 21.2182112,24.4868982 C20.9354188,24.4773224 20.6718833,24.4551282 20.6325689,24.4375789 C20.5932544,24.4200297 20.424381,24.3819066 20.2572946,24.3528638 C18.9564153,24.1267378 18.4594807,23.8513751 18.2591914,23.245595 C18.1444683,22.8986039 18.1289212,22.5424549 18.2113636,22.1501057 C18.2773082,21.8362838 18.2783662,21.7813154 18.2184717,21.7813154 C18.1586101,21.7813154 17.9351682,22.1690678 17.9183809,22.3020535 C17.9084104,22.381062 17.8822974,22.5856834 17.8603492,22.7567836 C17.7312441,23.7631728 18.1888786,24.4148855 19.4020474,24.9523232 C19.9935511,25.2143658 20.0764689,25.223265 20.8653311,25.1094316 L20.8653211,25.1093954 Z M20.7848659,24.9751637 C20.8293234,24.9512447 20.8936561,24.9521527 20.9278275,24.9771837 C20.9619986,25.0022127 20.9256223,25.0217837 20.8469934,25.0206737 C20.7683645,25.0195637 20.7404084,24.9990847 20.7848659,24.9751657 L20.7848659,24.9751637 Z M31.1402913,25.0489646 C31.9487393,24.9638006 32.2755138,24.8237831 32.6881726,24.3857238 C32.9120433,24.1480769 33.0032922,24.0139886 33.1693099,23.6786692 C33.3773906,23.2583797 33.4102753,23.1504612 33.4957628,22.6073134 C33.5778085,22.0860725 33.59253,21.9249669 33.5581298,21.9249669 C33.5065421,21.9249669 33.4211583,22.0757583 33.3633625,22.2689234 C33.2761416,22.5604434 33.0226706,23.1105799 32.8444475,23.3951902 C32.6296226,23.7382488 32.1778889,24.2025138 31.9742043,24.2896028 C31.8130294,24.3585054 31.4337022,24.4544613 31.1601808,24.4955206 C31.072817,24.5086342 30.9200268,24.5469587 30.820647,24.5806846 C30.6645114,24.6336742 30.5626048,24.6382064 30.0707418,24.6140492 C29.7576773,24.5986723 29.4881731,24.5943893 29.4718398,24.6045312 C29.45551,24.614673 29.3955483,24.5896269 29.3385888,24.5488732 C29.1460767,24.4111326 29.0841493,24.4788645 29.2637556,24.6307225 C29.3266551,24.6839024 29.3626242,24.7426345 29.3509764,24.7731354 C29.3375881,24.8081875 29.3637608,24.8329844 29.4315711,24.8495043 C29.4868007,24.862957 29.6357524,24.9152538 29.7625808,24.9657151 C29.9723985,25.049202 30.5314999,25.1299846 30.6935469,25.1002307 C30.7230328,25.0948169 30.9240726,25.0717503 31.140302,25.0489722 L31.1402913,25.0489646 Z M21.267004,22.8689753 C21.4614783,22.7266881 21.5015969,22.6245409 21.4229894,22.4718138 C21.354643,22.3390076 21.1668522,22.1763649 21.0818544,22.1763649 C20.9476742,22.1763649 20.7937795,22.2587852 20.7018624,22.3798837 C20.6230226,22.4837476 20.6094877,22.5314975 20.6253064,22.6499996 C20.6548855,22.8715934 20.8613539,23.0588688 21.0256705,23.0131516 C21.0649849,23.0022117 21.1735929,22.9373321 21.2670218,22.8689753 L21.267004,22.8689753 Z M22.7794308,22.6979434 C23.0234555,22.6340758 23.0649287,22.6025944 23.1180282,22.4409214 C23.1756632,22.2654506 23.1437613,22.1802651 22.9407487,21.9675166 C22.7771863,21.796104 22.7500486,21.7813258 22.5988166,21.7813258 C22.3657713,21.7813258 22.1794387,21.8868058 22.100095,22.0636808 C22.0095467,22.2654542 22.0480998,22.4400487 22.2217267,22.614514 C22.3762218,22.7697514 22.4582174,22.7820192 22.7794558,22.697947 L22.7794308,22.6979434 Z M30.1237269,22.4985043 C30.2097827,22.4522268 30.3004489,22.2800636 30.3004489,22.1629335 C30.3004489,22.0417775 30.1574909,21.8805498 29.9990036,21.8229633 C29.8856565,21.7817783 29.8563101,21.7830891 29.7809443,21.8327097 C29.6161452,21.94121 29.577685,22.0397911 29.6239045,22.2352223 C29.6466139,22.3312357 29.697326,22.4380732 29.7365976,22.4726394 C29.8156947,22.5422567 30.0173242,22.5557312 30.1237376,22.4985097 L30.1237269,22.4985043 Z M31.5761456,22.3110242 C31.7190357,22.2136462 31.8342092,21.9968827 31.8101809,21.8705516 C31.7808773,21.7165244 31.5242469,21.5356236 31.2988072,21.5100931 C31.048728,21.4817595 30.9914754,21.5260377 30.9395446,21.7879302 C30.8915845,22.0298723 30.9117207,22.1325978 31.0362617,22.2813385 C31.1148978,22.3752438 31.1534974,22.3918463 31.293178,22.3918463 C31.4046845,22.3918463 31.4956939,22.3658561 31.5761277,22.3110422 L31.5761456,22.3110242 Z M31.1939377,21.9390468 C31.1939377,21.9115468 31.222542,21.8890468 31.2574961,21.8890468 C31.2924563,21.8890468 31.3043637,21.9115468 31.2839638,21.9390468 C31.2635639,21.9665468 31.2349596,21.9890468 31.2204053,21.9890468 C31.2058451,21.9890468 31.1939377,21.9665468 31.1939377,21.9390468 Z M21.6555379,21.7272014 C21.7951686,21.6213694 21.8697767,21.502792 21.9229155,21.3022432 C21.9876378,21.0579918 21.9834419,20.8669061 21.9088409,20.6613402 C21.7638242,20.2617366 21.461514,20.1232921 21.0717291,20.2780052 C20.8838489,20.3525749 20.6560682,20.8422698 20.6517674,21.1809291 C20.6502747,21.2989176 20.7908953,21.5918813 20.8939242,21.6854346 C21.0706033,21.8458542 21.4700953,21.8677396 21.6555522,21.7271619 L21.6555379,21.7272014 Z M30.3586844,21.2762063 C30.537054,21.1894441 30.7292409,20.9248481 30.7292409,20.7660266 C30.7292409,20.6690184 30.6836683,20.5349661 30.5741025,20.3096804 C30.500849,20.1590578 30.3128401,20.0574744 30.10744,20.0575354 C29.8390725,20.0576073 29.7016077,20.1435326 29.5616483,20.3986512 C29.3943403,20.7036314 29.4017493,20.8224602 29.5995617,21.0066578 C29.7425984,21.1398411 30.0914927,21.3486822 30.1729093,21.3498616 C30.1912727,21.3501116 30.2748767,21.316984 30.3586951,21.2762134 L30.3586844,21.2762063 Z M14.2128241,21.1086076 C14.1874701,21.0736653 14.1650581,21.093559 14.1630201,21.1528165 C14.1609801,21.2120729 14.1817261,21.2406632 14.2091191,21.2163465 C14.2365111,21.1920323 14.2381781,21.1435509 14.2128291,21.1086076 L14.2128241,21.1086076 Z M47.2056398,32.700597 C47.6675846,32.6863165 48.0520799,32.6720052 48.0601215,32.6687942 C48.0681309,32.6655836 48.0640636,32.2548972 48.0510791,31.7561379 C48.0279158,30.8664299 47.9947773,30.4385627 47.8514976,29.1793821 C47.6475592,27.3871092 47.59288,25.9616515 47.6882497,24.9236948 C47.7154732,24.6274127 47.7482507,24.0860247 47.7610922,23.7206102 C47.7867717,22.9898171 47.7503451,22.6226429 47.6440495,22.5406895 C47.5648095,22.4796123 46.6553627,22.5080834 46.1155753,22.5885435 C45.9190031,22.6178438 45.7359764,22.6421292 45.7088852,22.6425135 C45.6693063,22.6430738 45.6640667,22.6980565 45.6823015,22.9215358 C45.6947892,23.0746148 45.7447114,23.830134 45.7932433,24.6004672 C45.9124554,26.4928295 45.9182382,26.5817141 45.9555548,27.0964189 C45.9833608,27.4798976 46.0215995,28.1340883 46.1140456,29.8078483 C46.1238635,29.9856175 46.1428845,30.7263585 46.1563158,31.4539553 L46.1807336,32.7768456 L46.2732477,32.7517011 C46.3241313,32.7378714 46.7437344,32.7148724 47.2056434,32.7005934 L47.2056398,32.700597 Z M3.95617377,32.463539 C4.20265391,32.3956527 4.50932804,32.3304456 4.63767184,32.3186302 C4.76601564,32.3068148 4.93812714,32.2726903 5.02016567,32.2427928 C5.10219705,32.2128974 5.18663376,32.1991944 5.20780281,32.2123386 C5.25897235,32.2441165 5.25968001,32.2525647 5.15508571,31.5806653 C5.04214602,30.8551155 4.94229805,30.0512036 4.87213963,29.3025618 C4.81998366,28.7460184 4.80377538,28.5198744 4.69216524,26.7912035 C4.66283344,26.3369044 4.62324344,25.7793555 4.60418308,25.5522059 C4.5402292,24.7899172 4.46148593,23.0949685 4.46052094,22.4599194 L4.45999913,22.1149753 L3.96856854,22.070709 C3.69828172,22.0463628 3.39672203,22.0127023 3.29843592,21.9959058 C3.2001498,21.979109 3.02054353,21.9548501 2.8993228,21.9420004 C2.63535487,21.9140185 2.62048329,21.9306882 2.58788089,22.2910745 C2.54973873,22.7127288 2.63689886,23.3539908 2.9408317,24.8878339 C3.32479089,26.8255902 3.32983029,26.8880428 3.30213147,29.3769555 C3.28982569,30.4830751 3.27066205,31.5900924 3.25954678,31.8369941 C3.24843151,32.0838958 3.23586197,32.3757965 3.23161637,32.4856542 L3.22389787,32.6853914 L3.36598028,32.636205 C3.44412311,32.6091521 3.70972436,32.5314756 3.95619736,32.4635893 L3.95617377,32.463539 Z M48.9068832,30.470369 C49.0010127,30.4298269 49.2556559,30.3550597 49.472761,30.3042213 C50.1607639,30.1431121 50.2357115,30.0639778 50.1938595,29.5425789 C50.1318892,28.7704859 50.1302308,28.3715287 50.1860109,27.6530897 C50.218213,27.2382949 50.2597183,26.7857914 50.2782426,26.6475265 C50.3517535,26.0988481 50.3930265,25.4247616 50.3606993,25.30079 C50.3194513,25.1426364 50.2583852,25.1208193 49.5058602,24.9953932 C49.1945756,24.9435098 48.8215744,24.8684409 48.6769687,24.8285775 C48.532363,24.7887141 48.4033259,24.7668682 48.3902163,24.7800339 C48.3771103,24.7931985 48.3668349,25.4773561 48.3673853,26.3003378 C48.3684575,27.8947301 48.3574316,27.7297818 48.6035293,29.8347848 C48.6491377,30.2248716 48.6975409,30.5440661 48.7110937,30.5440661 C48.7246429,30.5440661 48.8127465,30.510894 48.9068796,30.4703511 L48.9068832,30.470369 Z M48.9989934,28.7053542 C48.9754047,28.6816516 48.9561049,28.6331691 48.9561049,28.5976152 C48.9561049,28.5593069 48.9298964,28.5329719 48.8917721,28.5329719 C48.7593432,28.5329719 48.7416624,28.463254 48.7416624,27.9410543 C48.7416624,27.6267619 48.7229523,27.3628554 48.6922299,27.2438398 C48.6650457,27.138525 48.653859,27.0108113 48.667376,26.9600268 C48.7012007,26.8329308 48.8430401,26.7896377 48.9974529,26.8592693 C49.2886479,26.9905851 49.5904578,27.1801446 49.6943551,27.2969767 C49.8458337,27.4673119 49.8686861,27.5767136 49.7864725,27.737988 C49.5524514,28.1970994 49.3278516,28.5982114 49.2659134,28.6675953 C49.187088,28.755934 49.066339,28.7729927 48.9989755,28.7053039 L48.9989934,28.7053542 Z M1.4249381,29.5387147 C1.5317483,29.519052 1.74780621,29.4942437 1.90507472,29.4835811 C2.06233251,29.4729211 2.2633723,29.4526467 2.3518298,29.4385283 L2.51266163,29.4128563 L2.51266163,28.8741617 C2.51266163,27.9202054 2.46474804,27.0261519 2.36928184,26.1986452 C2.2621464,25.2700434 2.18366047,24.6888997 2.16249857,24.6676392 C2.15442517,24.6595265 2.06120669,24.6715537 1.95534718,24.6943664 C1.83247523,24.720845 1.55916477,24.7293129 1.19958054,24.7177834 C0.79732226,24.7048864 0.636275988,24.7112088 0.636275988,24.7398986 C0.636275988,24.7619952 0.731599226,25.1598649 0.848105804,25.6240401 C1.1433859,26.8004773 1.21851938,27.4037434 1.22273675,28.6316798 C1.22451662,29.1501554 1.22704311,29.5743954 1.22834728,29.5743954 C1.2296518,29.5743954 1.31810931,29.5583634 1.42491951,29.5387011 L1.4249381,29.5387147 Z M1.8157237,27.5094522 C1.76955425,27.4600718 1.7098213,27.4196697 1.68297668,27.4196697 C1.59761787,27.4196697 1.3548869,27.2784132 1.3165303,27.2064257 C1.29304277,27.1623281 1.29151987,27.105539 1.31234867,27.0504916 C1.35276392,26.9436756 1.63631044,26.6664023 1.70567184,26.6658995 C1.73360976,26.6656841 1.78185967,26.6434417 1.81289306,26.6164653 C1.95223061,26.4953488 2.1668589,26.5323895 2.12274809,26.6699361 C2.11402743,26.6971298 2.09676446,26.8781775 2.08438434,27.0722692 C2.05162361,27.5859324 1.98640559,27.6920553 1.81570583,27.5094737 L1.8157237,27.5094522 Z M23.1884869,11.9232219 C23.5521455,11.8947189 23.8933949,11.8709398 23.9468626,11.870376 C24.0088614,11.8697224 24.0383366,11.8531062 24.0282971,11.8244613 C24.0196479,11.7997711 23.9719023,11.4532648 23.9221981,11.0544153 C23.8237797,10.264689 23.8029753,9.31008628 23.8659927,8.47557653 C23.8838915,8.23855091 23.9078733,7.59211739 23.9192853,7.03905761 C23.9451184,5.78713138 23.9512229,5.68251689 24.0654528,4.53412775 C24.0747846,4.44030511 24.0741484,4.36354113 24.0640232,4.36354113 C24.0539122,4.36354113 23.9797366,4.41151009 23.8991884,4.47014161 C23.8186403,4.52877313 23.6280796,4.62504862 23.4757361,4.68408596 C23.237008,4.77659419 23.1473711,4.79207627 22.8272622,4.79609134 C22.4925318,4.80028921 22.1293592,4.7572335 22.0420454,4.70299773 C21.9945285,4.67348912 21.9993785,4.73894662 22.099373,5.47685047 C22.2316912,6.45325238 22.3542843,8.0093615 22.378066,9.0142783 C22.3855429,9.33031246 22.3711645,9.96058514 22.3461141,10.4148842 C22.3210601,10.8691834 22.299312,11.4065133 22.2977787,11.6089906 L22.294991,11.9770986 L22.4111473,11.976075 C22.4750333,11.9755112 22.8248425,11.9517318 23.1885012,11.9232291 L23.1884869,11.9232219 Z" id="Shape"></path>
        </g>
    </g>
</svg>