<?xml version="1.0" encoding="UTF-8"?>
<svg width="970px" height="108px" viewBox="0 0 970 108" version="1.1" xmlns="http://www.w3.org/2000/svg" xmlns:xlink="http://www.w3.org/1999/xlink">
    <!-- Generator: Sketch 63.1 (92452) - https://sketch.com -->
    <title>Group 4</title>
    <desc>Created with Sketch.</desc>
    <g id="img" stroke="none" stroke-width="1" fill="none" fill-rule="evenodd">
        <g id="Group-4">
            <g id="mail-bulk-solid" transform="translate(240.000000, 24.000000)" fill="#003366" fill-rule="nonzero">
                <path d="M18.3333333,51.625 C15.4,51.625 12.4666667,49.04375 11,47.9375 C3.66666667,42.775 1.46666667,40.93125 0,39.825 L0,55.3125 C0,57.3486914 1.64197917,59 3.66666667,59 L33,59 C35.0246875,59 36.6666667,57.3486914 36.6666667,55.3125 L36.6666667,39.825 C35.2,40.93125 33,42.775 25.6666667,47.9375 C24.2,49.04375 21.2666667,51.625 18.3333333,51.625 Z M33,29.5 L3.66666667,29.5 C1.64197917,29.5 0,31.1513086 0,33.1875 L0,35.03125 C2.93333333,37.24375 2.56666667,37.24375 13.2,44.9875 C14.3,45.725 16.5,47.9375 18.3333333,47.9375 C20.1666667,47.9375 22.3666667,45.725 23.4666667,45.35625 C34.1,37.6125 33.7333333,37.6125 36.6666667,35.4 L36.6666667,33.1875 C36.6666667,31.1513086 35.0246875,29.5 33,29.5 Z M62.3333333,18.4375 L25.6666667,18.4375 C23.6419792,18.4375 22,20.0888086 22,22.125 L22,25.8125 L33,25.8125 C36.8053125,25.8125 39.9426042,28.7417578 40.3001042,32.4753516 L40.3333333,32.45 L40.3333333,47.9375 L62.3333333,47.9375 C64.3580208,47.9375 66,46.2861914 66,44.25 L66,22.125 C66,20.0888086 64.3580208,18.4375 62.3333333,18.4375 Z M58.6666667,33.1875 L51.3333333,33.1875 L51.3333333,25.8125 L58.6666667,25.8125 L58.6666667,33.1875 Z M18.3333333,22.125 C18.3333333,18.0583789 21.6230208,14.75 25.6666667,14.75 L51.3333333,14.75 L51.3333333,3.6875 C51.3333333,1.65130859 49.6913542,0 47.6666667,0 L11,0 C8.9753125,0 7.33333333,1.65130859 7.33333333,3.6875 L7.33333333,25.8125 L18.3333333,25.8125 L18.3333333,22.125 Z" id="Shape"></path>
            </g>
            <g id="attach_email-24px" transform="translate(22.000000, 24.000000)">
                <rect id="Rectangle" x="0" y="0" width="66" height="66"></rect>
                <g id="Group" transform="translate(2.095238, 5.238095)" fill="#003366" fill-rule="nonzero">
                    <path d="M55.2380952,21.7904762 L55.2380952,5.44761905 C55.2380952,2.45142857 52.752381,0 49.7142857,0 L5.52380952,0 C2.48571429,0 0.0276190476,2.45142857 0.0276190476,5.44761905 L0,38.1333333 C0,41.1295238 2.48571429,43.5809524 5.52380952,43.5809524 L35.9047619,43.5809524 L35.9047619,29.9619048 C35.9047619,25.440381 39.6057143,21.7904762 44.1904762,21.7904762 L55.2380952,21.7904762 Z M27.6190476,24.5142857 L5.52380952,10.8952381 L5.52380952,5.44761905 L27.6190476,19.0666667 L49.7142857,5.44761905 L49.7142857,10.8952381 L27.6190476,24.5142857 Z" id="Shape"></path>
                    <path d="M55.2380952,32.6857143 L55.2380952,43.5809524 C55.2380952,46.5771429 52.752381,49.0285714 49.7142857,49.0285714 C46.6761905,49.0285714 44.1904762,46.5771429 44.1904762,43.5809524 L44.1904762,31.3238095 C44.1904762,30.5611429 44.7980952,29.9619048 45.5714286,29.9619048 C46.3447619,29.9619048 46.952381,30.5611429 46.952381,31.3238095 L46.952381,43.5809524 L52.4761905,43.5809524 L52.4761905,31.3238095 C52.4761905,27.5649524 49.3828571,24.5142857 45.5714286,24.5142857 C41.76,24.5142857 38.6666667,27.5649524 38.6666667,31.3238095 L38.6666667,43.5809524 C38.6666667,49.6005714 43.6104762,54.4761905 49.7142857,54.4761905 C55.8180952,54.4761905 60.7619048,49.6005714 60.7619048,43.5809524 L60.7619048,32.6857143 L55.2380952,32.6857143 Z" id="Path"></path>
                </g>
            </g>
            <circle id="Oval" stroke="#1A5A96" stroke-width="4" cx="54" cy="54" r="52"></circle>
            <circle id="Oval" stroke="#1A5A96" stroke-width="4" cx="916" cy="54" r="52"></circle>
            <circle id="Oval" stroke="#1A5A96" stroke-width="4" cx="270" cy="54" r="52"></circle>
            <circle id="Oval" stroke="#1A5A96" stroke-width="4" cx="485" cy="54" r="52"></circle>
            <circle id="Oval" stroke="#1A5A96" stroke-width="4" cx="701" cy="54" r="52"></circle>
            <g id="calendar-alt-solid" transform="translate(459.000000, 26.000000)" fill="#003366" fill-rule="nonzero">
                <path d="M0,53.4105263 C0,56.4963816 2.49553571,59 5.57142857,59 L46.4285714,59 C49.5044643,59 52,56.4963816 52,53.4105263 L52,21.7368421 L0,21.7368421 L0,53.4105263 Z M37.44,31.3760965 C37.44,30.6288925 38.05425,30.0175439 38.805,30.0175439 L43.355,30.0175439 C44.10575,30.0175439 44.72,30.6288925 44.72,31.3760965 L44.72,35.9046053 C44.72,36.6518092 44.10575,37.2631579 43.355,37.2631579 L38.805,37.2631579 C38.05425,37.2631579 37.44,36.6518092 37.44,35.9046053 L37.44,31.3760965 Z M37.44,45.8673246 C37.44,45.1201206 38.05425,44.5087719 38.805,44.5087719 L43.355,44.5087719 C44.10575,44.5087719 44.72,45.1201206 44.72,45.8673246 L44.72,50.3958333 C44.72,51.1430373 44.10575,51.754386 43.355,51.754386 L38.805,51.754386 C38.05425,51.754386 37.44,51.1430373 37.44,50.3958333 L37.44,45.8673246 Z M21.84,31.3760965 C21.84,30.6288925 22.45425,30.0175439 23.205,30.0175439 L27.755,30.0175439 C28.50575,30.0175439 29.12,30.6288925 29.12,31.3760965 L29.12,35.9046053 C29.12,36.6518092 28.50575,37.2631579 27.755,37.2631579 L23.205,37.2631579 C22.45425,37.2631579 21.84,36.6518092 21.84,35.9046053 L21.84,31.3760965 Z M21.84,45.8673246 C21.84,45.1201206 22.45425,44.5087719 23.205,44.5087719 L27.755,44.5087719 C28.50575,44.5087719 29.12,45.1201206 29.12,45.8673246 L29.12,50.3958333 C29.12,51.1430373 28.50575,51.754386 27.755,51.754386 L23.205,51.754386 C22.45425,51.754386 21.84,51.1430373 21.84,50.3958333 L21.84,45.8673246 Z M7.28,31.3760965 C7.28,30.6288925 7.89425,30.0175439 8.645,30.0175439 L13.195,30.0175439 C13.94575,30.0175439 14.56,30.6288925 14.56,31.3760965 L14.56,35.9046053 C14.56,36.6518092 13.94575,37.2631579 13.195,37.2631579 L8.645,37.2631579 C7.89425,37.2631579 7.28,36.6518092 7.28,35.9046053 L7.28,31.3760965 Z M7.28,45.8673246 C7.28,45.1201206 7.89425,44.5087719 8.645,44.5087719 L13.195,44.5087719 C13.94575,44.5087719 14.56,45.1201206 14.56,45.8673246 L14.56,50.3958333 C14.56,51.1430373 13.94575,51.754386 13.195,51.754386 L8.645,51.754386 C7.89425,51.754386 7.28,51.1430373 7.28,50.3958333 L7.28,45.8673246 Z M46.4285714,7.45263158 L40.8571429,7.45263158 L40.8571429,1.86315789 C40.8571429,0.838421053 40.0214286,0 39,0 L35.2857143,0 C34.2642857,0 33.4285714,0.838421053 33.4285714,1.86315789 L33.4285714,7.45263158 L18.5714286,7.45263158 L18.5714286,1.86315789 C18.5714286,0.838421053 17.7357143,0 16.7142857,0 L13,0 C11.9785714,0 11.1428571,0.838421053 11.1428571,1.86315789 L11.1428571,7.45263158 L5.57142857,7.45263158 C2.49553571,7.45263158 0,9.95625 0,13.0421053 L0,18.6315789 L52,18.6315789 L52,13.0421053 C52,9.95625 49.5044643,7.45263158 46.4285714,7.45263158 Z" id="Shape"></path>
            </g>
            <g id="fact_check-24px" transform="translate(669.000000, 25.000000)">
                <rect id="Rectangle" x="0" y="0" width="62" height="62"></rect>
                <path d="M51.7344262,7.1147541 L10.2655738,7.1147541 C7.41459016,7.1147541 5.08196721,9.45245902 5.08196721,12.3096539 L5.08196721,48.6739526 C5.08196721,51.5311475 7.41459016,53.8688525 10.2655738,53.8688525 L51.7344262,53.8688525 C54.5854098,53.8688525 56.9180328,51.5311475 56.9180328,48.6739526 L56.9180328,12.3096539 C56.9180328,9.45245902 54.5854098,7.1147541 51.7344262,7.1147541 Z M25.8163934,43.4790528 L12.857377,43.4790528 L12.857377,38.284153 L25.8163934,38.284153 L25.8163934,43.4790528 Z M25.8163934,33.0892532 L12.857377,33.0892532 L12.857377,27.8943534 L25.8163934,27.8943534 L25.8163934,33.0892532 Z M25.8163934,22.6994536 L12.857377,22.6994536 L12.857377,17.5045537 L25.8163934,17.5045537 L25.8163934,22.6994536 Z M38.3088852,38.284153 L31,30.9073953 L34.6544426,27.2449909 L38.3088852,30.9333698 L46.5249016,22.6994536 L50.2052623,26.3878324 L38.3088852,38.284153 Z" id="Shape" fill="#003366" fill-rule="nonzero"></path>
            </g>
            <g id="assessment-24px" transform="translate(883.000000, 21.000000)">
                <polygon id="Path" points="0 0 66 0 66 66 0 66"></polygon>
                <path d="M52.1481481,8.38095238 L13.8518519,8.38095238 C10.8428571,8.38095238 8.38095238,10.8428571 8.38095238,13.8518519 L8.38095238,52.1481481 C8.38095238,55.1571429 10.8428571,57.6190476 13.8518519,57.6190476 L52.1481481,57.6190476 C55.1571429,57.6190476 57.6190476,55.1571429 57.6190476,52.1481481 L57.6190476,13.8518519 C57.6190476,10.8428571 55.1571429,8.38095238 52.1481481,8.38095238 Z M24.7936508,46.6772487 L19.3227513,46.6772487 L19.3227513,27.5291005 L24.7936508,27.5291005 L24.7936508,46.6772487 Z M35.7354497,46.6772487 L30.2645503,46.6772487 L30.2645503,19.3227513 L35.7354497,19.3227513 L35.7354497,46.6772487 Z M46.6772487,46.6772487 L41.2063492,46.6772487 L41.2063492,35.7354497 L46.6772487,35.7354497 L46.6772487,46.6772487 Z" id="Shape" fill="#003366" fill-rule="nonzero"></path>
            </g>
        </g>
    </g>
</svg>