<?xml version="1.0" encoding="UTF-8"?>
<svg width="50px" height="46px" viewBox="0 0 50 46" version="1.1" xmlns="http://www.w3.org/2000/svg" xmlns:xlink="http://www.w3.org/1999/xlink">
    <!-- Generator: Sketch 63.1 (92452) - https://sketch.com -->
    <title>developer_board-24px</title>
    <desc>Created with Sketch.</desc>
    <g id="CSS-Website" stroke="none" stroke-width="1" fill="none" fill-rule="evenodd">
        <g id="overview1" transform="translate(-425.000000, -1998.000000)">
            <g id="developer_board-24px" transform="translate(420.000000, 1991.000000)">
                <path d="M54.7058824,22.9411765 L54.7058824,17.9411765 L49.7647059,17.9411765 L49.7647059,12.9411765 C49.7647059,10.1911765 47.5411765,7.94117647 44.8235294,7.94117647 L10.2352941,7.94117647 C7.51764706,7.94117647 5.29411765,10.1911765 5.29411765,12.9411765 L5.29411765,47.9411765 C5.29411765,50.6911765 7.51764706,52.9411765 10.2352941,52.9411765 L44.8235294,52.9411765 C47.5411765,52.9411765 49.7647059,50.6911765 49.7647059,47.9411765 L49.7647059,42.9411765 L54.7058824,42.9411765 L54.7058824,37.9411765 L49.7647059,37.9411765 L49.7647059,32.9411765 L54.7058824,32.9411765 L54.7058824,27.9411765 L49.7647059,27.9411765 L49.7647059,22.9411765 L54.7058824,22.9411765 Z M44.8235294,47.9411765 L10.2352941,47.9411765 L10.2352941,12.9411765 L44.8235294,12.9411765 L44.8235294,47.9411765 Z M15.1764706,32.9411765 L27.5294118,32.9411765 L27.5294118,42.9411765 L15.1764706,42.9411765 L15.1764706,32.9411765 Z M30,17.9411765 L39.8823529,17.9411765 L39.8823529,25.4411765 L30,25.4411765 L30,17.9411765 Z M15.1764706,17.9411765 L27.5294118,17.9411765 L27.5294118,30.4411765 L15.1764706,30.4411765 L15.1764706,17.9411765 Z M30,27.9411765 L39.8823529,27.9411765 L39.8823529,42.9411765 L30,42.9411765 L30,27.9411765 Z" id="Shape" fill="#003366" fill-rule="nonzero"></path>
                <path d="M0,0 L60,0 L60,60 L0,60 L0,0 Z M0,0 L60,0 L60,60 L0,60 L0,0 Z" id="Shape"></path>
            </g>
        </g>
    </g>
</svg>