<?xml version="1.0" encoding="UTF-8"?>
<svg width="49px" height="32px" viewBox="0 0 49 32" version="1.1" xmlns="http://www.w3.org/2000/svg" xmlns:xlink="http://www.w3.org/1999/xlink">
    <!-- Generator: Sketch 63.1 (92452) - https://sketch.com -->
    <title>Docker (1)</title>
    <desc>Created with Sketch.</desc>
    <g id="CSS-Website" stroke="none" stroke-width="1" fill="none" fill-rule="evenodd">
        <g id="CDOGS" transform="translate(-235.000000, -1571.000000)" fill="#019BC6" fill-rule="nonzero">
            <g id="Docker-(1)" transform="translate(235.000000, 1571.000000)">
                <path d="M48.3724999,11.1840796 C46.6860935,10.1890547 44.4506245,10.0696517 42.5681243,10.6268657 C42.3328117,8.55721393 40.9993741,6.76616915 39.4306239,5.49253731 L38.8031238,4.97512438 L38.2540613,5.6119403 C37.1951549,6.84577114 36.8814049,8.91542289 37.0382799,10.5074627 C37.1559361,11.6616915 37.5089049,12.8557214 38.2148425,13.8109453 C37.66578,14.1293532 37.0774986,14.5671642 36.5284361,14.7661692 C35.430311,15.1641791 34.2145296,15.5621891 33.0379669,15.5621891 L30.4103104,15.5621891 L30.4103104,9.95024876 L25.3118723,9.95024876 L25.3118723,0 L19.4290591,0 L19.4290591,4.7761194 L9.6243705,4.7761194 L9.6243705,9.95024876 L4.52593242,9.95024876 L4.52593242,15.5223881 L0.13343192,15.5223881 L0.0549944112,16.119403 C-0.141099361,18.6666667 0.172650675,21.1343284 1.23155705,23.4825871 L1.66296334,24.358209 L1.7021821,24.4378109 C4.8004637,29.7711443 10.2126518,32 16.1346837,32 C27.5865601,32 37.0382799,26.7860697 41.3523429,15.840796 C44.2545307,16 47.235156,15.1243781 48.6470312,12.2985075 L49,11.5820896 L48.3724999,11.1840796 Z M10.4087456,5.97014925 L14.330621,5.97014925 L14.330621,10.3482587 L10.4087456,10.3482587 L10.4087456,5.97014925 Z M15.5464024,23.5621891 C15.5464024,24.238806 14.9973399,24.7960199 14.330621,24.7960199 C13.6639022,24.7960199 13.1148397,24.238806 13.1148397,23.5621891 C13.1148397,22.8855721 13.6639022,22.3283582 14.330621,22.3283582 C14.9973399,22.3681592 15.5464024,22.8855721 15.5464024,23.5621891 Z M10.4087456,11.1442786 L14.330621,11.1442786 L14.330621,15.5223881 L10.4087456,15.5223881 L10.4087456,11.1442786 Z M5.31030751,11.1442786 L9.6243705,11.1442786 L9.6243705,15.5223881 L5.31030751,15.5223881 L5.31030751,11.1442786 Z M16.1739025,31.1243781 C9.97733929,31.0845771 6.64374516,28.9751244 3.89843235,26.1890547 C4.72202619,26.2288557 5.50640128,26.2686567 6.21233886,26.2686567 C6.83983894,26.2686567 7.46733901,26.2686567 8.05562032,26.2288557 C9.58515175,26.1492537 10.9185894,25.9502488 12.0167145,25.6318408 C12.9187459,27.7412935 14.5659336,29.6915423 17.5073402,31.1243781 L16.1739025,31.1243781 Z M19.4290591,15.5223881 L15.1149961,15.5223881 L15.1149961,11.1442786 L19.4290591,11.1442786 L19.4290591,15.5223881 Z M19.4290591,10.3482587 L15.1149961,10.3482587 L15.1149961,5.97014925 L19.4290591,5.97014925 L19.4290591,10.3482587 Z M24.5274972,15.5223881 L20.2134342,15.5223881 L20.2134342,11.1442786 L24.5274972,11.1442786 L24.5274972,15.5223881 Z M24.5274972,10.3482587 L20.2134342,10.3482587 L20.2134342,5.97014925 L24.5274972,5.97014925 L24.5274972,10.3482587 Z M24.5274972,5.17412935 L20.2134342,5.17412935 L20.2134342,0.7960199 L24.5274972,0.7960199 L24.5274972,5.17412935 Z M29.6259353,15.5223881 L25.3118723,15.5223881 L25.3118723,11.1442786 L29.6259353,11.1442786 L29.6259353,15.5223881 Z M14.6443711,22.7661692 C14.5659336,22.7263682 14.4482773,22.6865672 14.330621,22.6865672 C13.859996,22.6865672 13.4678084,23.0845771 13.4678084,23.5621891 C13.4678084,24.039801 13.859996,24.4378109 14.330621,24.4378109 C14.8012461,24.4378109 15.1934336,24.039801 15.1934336,23.5621891 C15.1934336,23.4427861 15.1542149,23.3233831 15.1149961,23.2437811 C15.0365586,23.3631841 14.9581211,23.4427861 14.8012461,23.4427861 C14.6051523,23.4427861 14.4482773,23.2835821 14.4482773,23.0845771 C14.4874961,22.9253731 14.5659336,22.8059701 14.6443711,22.7661692 L14.6443711,22.7661692 Z" id="Shape"></path>
            </g>
        </g>
    </g>
</svg>