<?xml version="1.0" encoding="UTF-8"?>
<svg width="20px" height="16px" viewBox="0 0 20 16" version="1.1" xmlns="http://www.w3.org/2000/svg" xmlns:xlink="http://www.w3.org/1999/xlink">
    <!-- Generator: Sketch 63.1 (92452) - https://sketch.com -->
    <title>email-24px</title>
    <desc>Created with Sketch.</desc>
    <g id="CSS-Website" stroke="none" stroke-width="1" fill="none" fill-rule="evenodd">
        <g id="our-team" transform="translate(-241.000000, -1406.000000)">
            <g id="email-24px" transform="translate(239.000000, 1402.000000)">
                <path d="M20,4 L4,4 C2.9,4 2.01,4.9 2.01,6 L2,18 C2,19.1 2.9,20 4,20 L20,20 C21.1,20 22,19.1 22,18 L22,6 C22,4.9 21.1,4 20,4 Z M20,8 L12,13 L4,8 L4,6 L12,11 L20,6 L20,8 Z" id="Shape" fill="#38598A" fill-rule="nonzero"></path>
                <polygon id="Path" points="0 0 24 0 24 24 0 24"></polygon>
            </g>
        </g>
    </g>
</svg>