<?xml version="1.0" encoding="UTF-8"?>
<svg width="74px" height="93px" viewBox="0 0 74 93" version="1.1" xmlns="http://www.w3.org/2000/svg" xmlns:xlink="http://www.w3.org/1999/xlink">
    <!-- Generator: Sketch 63.1 (92452) - https://sketch.com -->
    <title>find_in_page-24px</title>
    <desc>Created with Sketch.</desc>
    <g id="CSS-Website" stroke="none" stroke-width="1" fill="none" fill-rule="evenodd">
        <g id="overview1" transform="translate(-275.000000, -1031.000000)">
            <g id="find_in_page-24px" transform="translate(257.000000, 1022.000000)">
                <polygon id="Path" points="-5.43719659e-14 0 110 0 110 110 -5.43719659e-14 110"></polygon>
                <path d="M91.826087,90.3262609 L91.826087,37.1130435 L64.2065217,9.56521739 L27.3804348,9.56521739 C22.3168478,9.56521739 18.2199457,13.6973913 18.2199457,18.7478261 L18.173913,92.2086957 C18.173913,97.2591304 22.2708152,101.391304 27.3344022,101.391304 L82.6195652,101.391304 C84.6910326,101.391304 86.532337,100.702609 88.0974457,99.5547826 L67.705,79.2153043 C64.0223913,81.6027826 59.6953261,83.026087 55,83.026087 C42.295,83.026087 31.9836957,72.7415652 31.9836957,60.0695652 C31.9836957,47.3975652 42.295,37.1130435 55,37.1130435 C67.705,37.1130435 78.0163043,47.3975652 78.0163043,60.0695652 C78.0163043,64.7526957 76.5892935,69.0685217 74.1955978,72.6956522 L91.826087,90.3262609 Z M41.1902174,60.0695652 C41.1902174,67.6911304 47.358587,73.8434783 55,73.8434783 C62.641413,73.8434783 68.8097826,67.6911304 68.8097826,60.0695652 C68.8097826,52.448 62.641413,46.2956522 55,46.2956522 C47.358587,46.2956522 41.1902174,52.448 41.1902174,60.0695652 Z" id="Shape" fill="#003366" fill-rule="nonzero"></path>
            </g>
        </g>
    </g>
</svg>