<?xml version="1.0" encoding="UTF-8"?>
<svg width="131px" height="100px" viewBox="0 0 131 100" version="1.1" xmlns="http://www.w3.org/2000/svg" xmlns:xlink="http://www.w3.org/1999/xlink">
    <!-- Generator: Sketch 63.1 (92452) - https://sketch.com -->
    <title>Group 6</title>
    <desc>Created with Sketch.</desc>
    <g id="CSS-Website" stroke="none" stroke-width="1" fill="none" fill-rule="evenodd">
        <g id="overview1" transform="translate(-1044.000000, -1035.000000)" fill="#003366" fill-rule="nonzero">
            <g id="Group-6" transform="translate(1044.000000, 1035.000000)">
                <g id="cogs-solid" transform="translate(57.000000, 41.000000)">
                    <path d="M59.2175412,22.071166 L58.2693378,23.7245874 C57.9224342,24.337394 57.182373,24.5917665 56.5232561,24.3489564 C55.1587683,23.8402113 53.9099151,23.1117809 52.8113869,22.1983523 C52.2794679,21.7589816 52.1407065,20.9843016 52.4876101,20.3830574 L53.4358135,18.729636 C52.637935,17.804645 52.0135084,16.729343 51.5972241,15.5615419 L49.6892539,15.5615419 C48.9954466,15.5615419 48.3941469,15.0643592 48.2785123,14.3706159 C48.0472432,12.9831294 48.0356798,11.5262686 48.2785123,10.0809702 C48.3941469,9.38722692 48.9954466,8.87848187 49.6892539,8.87848187 L51.5972241,8.87848187 C52.0135084,7.71068073 52.637935,6.63537869 53.4358135,5.71038769 L52.4876101,4.05696627 C52.1407065,3.45572212 52.2679045,2.68104216 52.8113869,2.24167143 C53.9099151,1.32824282 55.1703318,0.599812406 56.5232561,0.0910673556 C57.182373,-0.151742782 57.9224342,0.102629743 58.2693378,0.715436281 L59.2175412,2.3688577 C60.431704,2.14917233 61.6689938,2.14917233 62.8831566,2.3688577 L63.8313599,0.715436281 C64.1782636,0.102629743 64.9183247,-0.151742782 65.5774417,0.0910673556 C66.9419294,0.599812406 68.1907826,1.32824282 69.2893109,2.24167143 C69.8212299,2.68104216 69.9599913,3.45572212 69.6130877,4.05696627 L68.6648843,5.71038769 C69.4627627,6.63537869 70.0871893,7.71068073 70.5034737,8.87848187 L72.4114439,8.87848187 C73.1052512,8.87848187 73.7065509,9.37566453 73.8221854,10.0694078 C74.0534545,11.4568943 74.065018,12.9137551 73.8221854,14.3590535 C73.7065509,15.0527968 73.1052512,15.5615419 72.4114439,15.5615419 L70.5034737,15.5615419 C70.0871893,16.729343 69.4627627,17.804645 68.6648843,18.729636 L69.6130877,20.3830574 C69.9599913,20.9843016 69.8327933,21.7589816 69.2893109,22.1983523 C68.1907826,23.1117809 66.930366,23.8402113 65.5774417,24.3489564 C64.9183247,24.5917665 64.1782636,24.337394 63.8313599,23.7245874 L62.8831566,22.071166 C61.6805572,22.2908514 60.431704,22.2908514 59.2175412,22.071166 L59.2175412,22.071166 Z M58.0033784,15.2724822 C62.4553087,18.6949489 67.5316657,13.6190607 64.1088829,9.16754155 C59.6569525,5.73351246 54.5805956,10.820963 58.0033784,15.2724822 L58.0033784,15.2724822 Z M44.6707142,33.0669965 L48.5675987,35.0094777 C49.7355077,35.6800961 50.2442998,37.1022698 49.7817615,38.3741324 C48.752614,41.1722302 46.7290093,43.7390802 44.8557295,45.9821834 C44.0000338,47.0112359 42.5199115,47.2656084 41.3520025,46.5949899 L37.987037,44.6525088 C36.1368841,46.2365559 33.9860814,47.4968562 31.6386999,48.3177857 L31.6386999,52.2027479 C31.6386999,53.5439848 30.6789331,54.7002236 29.3606992,54.9314713 C26.5160892,55.4170916 23.5327177,55.4402164 20.5840365,54.9314713 C19.2542391,54.7002236 18.2713454,53.5555472 18.2713454,52.2027479 L18.2713454,48.3177857 C15.923964,47.4852938 13.7731612,46.2365559 11.9230084,44.6525088 L8.55804284,46.5834276 C7.40169729,47.254046 5.91001154,46.9996735 5.05431583,45.970621 C3.18103605,43.7275178 1.20368517,41.1606678 0.174537632,38.3741324 C-0.288000586,37.1138322 0.220791454,35.6916585 1.38870045,35.0094777 L5.23933112,33.0669965 C4.78835636,30.6504576 4.78835636,28.1645442 5.23933112,25.7364429 L1.38870045,23.7823994 C0.220791454,23.1117809 -0.299564042,21.6896072 0.174537632,20.429307 C1.20368517,17.6312092 3.18103605,15.0643592 5.05431583,12.821256 C5.91001154,11.7922035 7.39013384,11.537831 8.55804284,12.2084495 L11.9230084,14.1509306 C13.7731612,12.5668835 15.923964,11.3065832 18.2713454,10.4856537 L18.2713454,6.58912914 C18.2713454,5.25945457 19.2195488,4.10321582 20.5377827,3.87196807 C23.3823927,3.3863478 26.3773277,3.36322302 29.3260088,3.86040569 C30.6558062,4.09165344 31.6386999,5.2363298 31.6386999,6.58912914 L31.6386999,10.4740913 C33.9860814,11.3065832 36.1368841,12.5553211 37.987037,14.1393682 L41.3520025,12.1968871 C42.5083481,11.5262686 44.0000338,11.7806411 44.8557295,12.8096936 C46.7290093,15.0527968 48.6947967,17.6196468 49.7239443,20.4177446 C50.1864825,21.6780448 49.7355077,23.1002185 48.5675987,23.7823994 L44.6707142,25.7248805 C45.121689,28.1529819 45.121689,30.6388952 44.6707142,33.0669965 Z M31.0720906,35.5066603 C37.9176562,26.6036219 27.7533789,16.4402833 18.8495182,23.2852167 C12.0039526,32.1882551 22.1682299,42.3515937 31.0720906,35.5066603 Z M59.2175412,56.6311423 L58.2693378,58.2845637 C57.9224342,58.8973703 57.182373,59.1517428 56.5232561,58.9089326 C55.1587683,58.4001876 53.9099151,57.6717572 52.8113869,56.7583286 C52.2794679,56.3189578 52.1407065,55.5442779 52.4876101,54.9430337 L53.4358135,53.2896123 C52.637935,52.3646213 52.0135084,51.2893193 51.5972241,50.1215181 L49.6892539,50.1215181 C48.9954466,50.1215181 48.3941469,49.6243355 48.2785123,48.9305922 C48.0472432,47.5431057 48.0356798,46.0862449 48.2785123,44.6409465 C48.3941469,43.9472032 48.9954466,43.4384581 49.6892539,43.4384581 L51.5972241,43.4384581 C52.0135084,42.270657 52.637935,41.195355 53.4358135,40.270364 L52.4876101,38.6169426 C52.1407065,38.0156984 52.2679045,37.2410184 52.8113869,36.8016477 C53.9099151,35.8882191 55.1703318,35.1597887 56.5232561,34.6510436 C57.182373,34.4082335 57.9224342,34.662606 58.2693378,35.2754126 L59.2175412,36.928834 C60.431704,36.7091486 61.6689938,36.7091486 62.8831566,36.928834 L63.8313599,35.2754126 C64.1782636,34.662606 64.9183247,34.4082335 65.5774417,34.6510436 C66.9419294,35.1597887 68.1907826,35.8882191 69.2893109,36.8016477 C69.8212299,37.2410184 69.9599913,38.0156984 69.6130877,38.6169426 L68.6648843,40.270364 C69.4627627,41.195355 70.0871893,42.270657 70.5034737,43.4384581 L72.4114439,43.4384581 C73.1052512,43.4384581 73.7065509,43.9356408 73.8221854,44.6293841 C74.0534545,46.0168706 74.065018,47.4737314 73.8221854,48.9190298 C73.7065509,49.6127731 73.1052512,50.1215181 72.4114439,50.1215181 L70.5034737,50.1215181 C70.0871893,51.2893193 69.4627627,52.3646213 68.6648843,53.2896123 L69.6130877,54.9430337 C69.9599913,55.5442779 69.8327933,56.3189578 69.2893109,56.7583286 C68.1907826,57.6717572 66.930366,58.4001876 65.5774417,58.9089326 C64.9183247,59.1517428 64.1782636,58.8973703 63.8313599,58.2845637 L62.8831566,56.6311423 C61.6805572,56.8508277 60.431704,56.8508277 59.2175412,56.6311423 Z M58.0033784,49.8208961 C62.4553087,53.2433628 67.5316657,48.1674746 64.1088829,43.7159554 C59.6569525,40.2934887 54.5805956,45.3693769 58.0033784,49.8208961 L58.0033784,49.8208961 Z" id="Shape"></path>
                </g>
                <g id="code-solid">
                    <path d="M32.1657269,58.9425324 L24.9907717,56.9027305 C24.2379896,56.695293 23.8145496,55.9231647 24.0262696,55.1856092 L40.0817021,0.998330394 C40.293422,0.260774919 41.0814909,-0.154100036 41.8342731,0.0533374418 L49.0092283,2.0931393 C49.7620104,2.30057678 50.1854504,3.07270517 49.9737304,3.81026064 L33.9182979,57.9975394 C33.6948157,58.7350949 32.9185091,59.1614942 32.1657269,58.9425324 L32.1657269,58.9425324 Z M18.6740538,46.1357363 L23.5994523,40.7484717 C24.120299,40.179558 24.0863308,39.2739402 23.5088702,38.7514685 L13.2504541,29.4979127 L23.5088702,20.2443569 C24.0863308,19.7218851 24.1316218,18.8162674 23.5994523,18.2473536 L18.6740538,12.8600891 C18.1645298,12.3027858 17.3040005,12.2679544 16.7491855,12.8020366 L0.433095382,28.4761901 C-0.144365127,29.0218828 -0.144365127,29.962332 0.433095382,30.5080248 L16.7491855,46.1937887 C17.3040005,46.727871 18.1645298,46.70465 18.6740538,46.1357363 L18.6740538,46.1357363 Z M57.2508145,46.2038639 L73.5669046,30.5221035 C74.1443651,29.97655 74.1443651,29.0363408 73.5669046,28.4907874 L57.2508145,12.7974194 C56.7073223,12.275081 55.8467929,12.298296 55.3259462,12.855457 L50.4005477,18.2413466 C49.879701,18.8101151 49.9136692,19.7155017 50.4911298,20.2378402 L60.7495459,29.5006417 L50.4911298,38.7518356 C49.9136692,39.2741741 49.8683782,40.1795607 50.4005477,40.7483292 L55.3259462,46.1342188 C55.8354702,46.7029873 56.6959995,46.7262024 57.2508145,46.2038639 Z" id="Shape"></path>
                </g>
            </g>
        </g>
    </g>
</svg>