<?xml version="1.0" encoding="UTF-8"?>
<svg width="41px" height="22px" viewBox="0 0 41 22" version="1.1" xmlns="http://www.w3.org/2000/svg" xmlns:xlink="http://www.w3.org/1999/xlink">
    <!-- Generator: Sketch 63.1 (92452) - https://sketch.com -->
    <title>key-solid</title>
    <desc>Created with Sketch.</desc>
    <g id="CSS-Website" stroke="none" stroke-width="1" fill="none" fill-rule="evenodd">
        <g id="CHES" transform="translate(-239.000000, -820.000000)" fill="#1A5A96" fill-rule="nonzero">
            <g id="key-solid" transform="translate(258.000000, 831.000000) rotate(-135.000000) translate(-258.000000, -831.000000) translate(242.000000, 815.000000)">
                <path d="M32,11.0000625 C32,17.0751875 27.075125,22 21,22 C20.29875,22 19.613125,21.933625 18.9483125,21.8081875 L17.4475625,23.4965625 C17.1629106,23.8167983 16.7548972,24.0000154 16.3264375,24 L14,24 L14,26.5 C14,27.3284375 13.3284375,28 12.5,28 L10,28 L10,30.5 C10,31.3284375 9.3284375,32 8.5,32 L1.5,32 C0.6715625,32 0,31.3284375 0,30.5 L0,25.6213125 C0,25.2235 0.1580625,24.8419375 0.4393125,24.560625 L10.5519375,14.448 C10.19425,13.363375 10,12.2044375 10,11 C10,4.924875 14.9248125,0 20.9999375,0 C27.093,0 32,4.9069375 32,11.0000625 Z M21,8 C21,9.656875 22.343125,11 24,11 C25.656875,11 27,9.656875 27,8 C27,6.343125 25.656875,5 24,5 C22.343125,5 21,6.343125 21,8 Z" id="Shape"></path>
            </g>
        </g>
    </g>
</svg>