<?xml version="1.0" encoding="UTF-8"?>
<svg width="110px" height="88px" viewBox="0 0 110 88" version="1.1" xmlns="http://www.w3.org/2000/svg" xmlns:xlink="http://www.w3.org/1999/xlink">
    <!-- Generator: Sketch 63.1 (92452) - https://sketch.com -->
    <title>laptop-code-solid</title>
    <desc>Created with Sketch.</desc>
    <g id="CSS-Website" stroke="none" stroke-width="1" fill="none" fill-rule="evenodd">
        <g id="overview1" transform="translate(-665.000000, -1036.000000)" fill="#003366" fill-rule="nonzero">
            <g id="laptop-code-solid" transform="translate(665.000000, 1036.000000)">
                <path d="M43.8332812,44.9710938 C44.9075,46.0453125 46.6485938,46.0453125 47.7228125,44.9710938 L49.6667188,43.0271875 C50.7409375,41.9529688 50.7409375,40.211875 49.6667188,39.1376563 L43.5273438,33 L49.665,26.860625 C50.7392187,25.7864063 50.7392187,24.0453125 49.665,22.9710938 L47.7210937,21.0271875 C46.646875,19.9529688 44.9057812,19.9529688 43.8315625,21.0271875 L33.804375,31.054375 C32.7301562,32.1285938 32.7301562,33.8696875 33.804375,34.9439063 L43.8332812,44.9710938 L43.8332812,44.9710938 Z M60.335,43.0289062 L62.2789062,44.9728125 C63.353125,46.0470312 65.0942187,46.0470312 66.1684375,44.9728125 L76.195625,34.945625 C77.2698437,33.8714062 77.2698437,32.1303125 76.195625,31.0560937 L66.1684375,21.0289062 C65.0942187,19.9546875 63.353125,19.9546875 62.2789062,21.0289062 L60.335,22.9728125 C59.2607812,24.0470312 59.2607812,25.788125 60.335,26.8623437 L66.4726562,33 L60.335,39.139375 C59.2607812,40.2135938 59.2607812,41.9546875 60.335,43.0289062 L60.335,43.0289062 Z M107.25,71.5 L65.5771875,71.5 C65.45,74.9048437 63.0489063,77 59.95,77 L49.5,77 C46.2876563,77 43.8246875,73.9973437 43.8676562,71.5 L2.75,71.5 C1.2375,71.5 0,72.7375 0,74.25 L0,77 C0,83.05 4.95,88 11,88 L99,88 C105.05,88 110,83.05 110,77 L110,74.25 C110,72.7375 108.7625,71.5 107.25,71.5 Z M99,8.25 C99,3.7125 95.2875,0 90.75,0 L19.25,0 C14.7125,0 11,3.7125 11,8.25 L11,66 L99,66 L99,8.25 Z M88,55 L22,55 L22,11 L88,11 L88,55 Z" id="Shape"></path>
            </g>
        </g>
    </g>
</svg>