<?xml version="1.0" encoding="UTF-8"?>
<svg width="57px" height="45px" viewBox="0 0 57 45" version="1.1" xmlns="http://www.w3.org/2000/svg" xmlns:xlink="http://www.w3.org/1999/xlink">
    <!-- Generator: Sketch 63.1 (92452) - https://sketch.com -->
    <title>missy</title>
    <desc>Created with Sketch.</desc>
    <g id="img" stroke="none" stroke-width="1" fill="none" fill-rule="evenodd">
        <g id="CHES-Copy-3" transform="translate(-409.000000, -210.000000)" fill="#003366" fill-rule="nonzero">
            <g id="missy" transform="translate(409.000000, 210.000000)">
                <path d="M29.7656353,10.6196638 L24.6607102,11.013904 C24.7017886,10.0534954 24.7595135,9.17256568 24.564502,8.21479854 C24.2882897,6.85825744 23.6109395,5.72237257 22.800554,4.62721272 C21.9440363,3.46976292 21.0013837,2.45065201 19.673591,1.84028933 C18.3189453,1.21754751 16.8220242,1.01132046 15.3540441,1.2260631 C14.8203045,1.30412266 13.8920721,1.55935377 14.0581785,2.26177153 L13.3906113,2.49831565 C13.466125,2.17969072 13.3088147,1.86693997 12.9602269,2.1243394 C12.6582117,2.34736108 12.6469023,2.75126016 12.3980961,2.99545254 C12.196962,3.19292746 11.89263,3.31372265 11.6627905,3.47839678 C11.32025,3.72381131 11.0226329,4.030885 10.6810741,4.27239654 C10.5806642,3.97679524 10.429205,3.3930832 10.2014468,3.18405705 C9.94235221,2.94629079 9.45997605,3.05092214 9.36298248,3.40510753 C9.17362902,4.09640772 9.75751465,4.60312465 9.79835405,5.21857302 C9.82010889,5.54634432 9.31990476,6.0853101 9.18886526,6.40129362 C8.85190093,6.14448555 8.53692705,5.84892368 8.25309321,5.53396518 C8.05282307,5.31173198 7.84520969,5.08701507 7.69834492,4.82433282 C7.60370746,4.65508551 7.57040765,4.41818657 7.38077931,4.32494876 C7.16181729,4.21720292 6.93201712,4.39681875 6.93005369,4.62721272 C6.92675854,5.01967884 7.13118774,5.47719459 7.32073754,5.80993332 C7.55740972,6.22526537 7.83123005,6.57637569 8.16788023,6.91380588 C8.32369825,7.07000385 8.61978391,7.23901462 8.72042947,7.43317792 C8.82134992,7.62785373 8.61734926,8.07251725 8.59983544,8.29364658 C7.50946269,8.27105661 6.58719906,7.47063074 5.81176093,6.78425855 C5.50471932,6.51250878 5.15165484,5.82250958 4.67296994,5.91732435 C3.66278379,6.11740125 4.55810912,7.49199856 4.91011335,7.85994293 C5.90859744,8.90365444 7.1396305,9.24364718 8.52129813,9.23982305 L8.63910409,10.6985118 C6.49138354,10.6806527 4.12371926,10.2781729 2.08123871,9.62050139 C1.63754218,9.47762874 1.21728903,9.26643427 0.824641754,9.01530326 C0.560363706,8.84629249 0.315170225,8.5874738 0,8.5301907 L1.19522005,9.60745204 L1.76708947,10.9744799 L1.72782082,10.9744799 C1.47952511,10.396918 0.82067562,9.56357311 0.15707462,9.47636717 C0.349687372,9.8374912 0.781995995,10.0551906 1.00331413,10.4225437 C1.57007863,11.3632402 1.96296152,12.4981789 2.31673284,13.5370412 C3.03617386,15.649735 3.20279077,17.9898266 3.42300938,20.1997006 C3.64581973,22.435555 3.92753306,24.6605284 4.08040594,26.901784 C4.20932493,28.7912984 4.15756884,30.6872389 4.23948326,32.5788428 C4.30569021,34.1086131 4.31664616,35.6586473 4.27969436,37.1914532 C4.25974588,38.0197518 4.15564468,38.8890515 4.26362836,39.7145905 C4.34169444,40.3114701 4.1473146,41.4689593 4.65097437,41.8998639 C4.87551254,42.0918589 5.19005447,41.9865967 5.34630444,41.7630625 C5.60166851,41.3979961 5.61878964,40.8129436 5.69076909,40.3847988 C6.03185662,38.3568272 6.15272554,36.2854892 6.24217954,34.2346517 C6.40039295,30.6072476 6.13642905,27.0261273 5.66575495,23.4324702 C5.36161922,21.1104743 4.959626,18.7714866 4.26032979,16.5332667 C3.86984229,15.2833676 3.28619227,14.146852 2.78806938,12.9456809 L2.82733803,12.9456809 C3.7515651,14.9330063 5.15137484,16.8171985 6.43412472,18.5833158 C9.04890665,22.1835173 11.955494,25.7018745 15.7074569,28.1602775 C16.595596,28.7422155 17.5406747,29.2679742 18.5348,29.6447102 C19.070783,29.8478227 19.7163256,29.9274592 20.2216619,30.1904963 C20.4680813,30.3187426 20.6346999,30.7332862 20.7816842,30.962458 C21.0254913,31.3426633 21.3319917,31.6783588 21.6762924,31.9701754 C23.4249256,33.4520849 25.9506855,33.8837779 28.0770832,32.9213587 C29.1137757,32.452134 29.9533395,31.6132698 30.6966951,30.7653379 C31.0599302,30.3513463 31.4243433,29.7659785 31.8861427,29.4630049 C32.6090786,28.9886945 33.4482498,28.6242194 34.2029933,28.1954832 C34.3471093,28.1135207 34.5348135,28.1100119 34.6659708,28.0158279 C36.3486327,26.8096106 38.1235759,25.6908752 39.7791423,24.4226439 C42.6787398,22.2014158 45.4452166,19.6671609 47.8665218,16.9275069 C49.2110806,15.4063706 50.5992275,13.7338459 51.53068,11.9206564 C51.7344843,11.5237748 52.4888352,10.5343896 52.1841104,10.0767556 C51.8829199,9.62503515 51.1855086,10.5924612 51.0135118,10.7767685 C49.9874219,11.8751217 49.0701061,13.0708522 48.0876044,14.2072496 C45.0961182,17.6659977 41.8309296,21.0705378 38.2869335,23.9631175 C37.3067878,24.7631886 36.3321398,25.5623135 35.3025157,26.2989513 C34.7932012,26.6634658 34.2312668,27.0940549 33.6532322,27.3408493 C33.3512562,27.4697658 32.9715283,27.2157963 32.7107845,27.0771814 C32.023583,26.7120362 31.4219872,26.1770128 30.6295457,26.0517627 C28.8793418,25.7752032 27.4826752,27.1387618 25.7995012,27.213076 C25.2757085,27.2361785 24.804314,26.9456235 24.4250983,26.6144223 C24.1917742,26.4106001 23.9727746,26.1068775 23.6397252,26.0781768 C23.2719827,26.0464404 23.0115462,26.3474428 22.7759855,26.5863918 C22.1958679,27.1748742 21.6251749,27.7305952 20.9694566,28.2375092 C20.7629889,28.3971371 20.4271224,28.7894849 20.1448149,28.7584976 C19.64402,28.7035405 19.1080882,28.3795934 18.652606,28.1800684 C17.0908523,27.4960222 15.6855842,26.4208109 14.3723226,25.3489113 C10.9230032,22.5334843 8.29651922,19.028413 5.5678582,15.5476662 C4.80274772,14.5716458 4.06924852,13.5730354 3.31230592,12.5908647 C2.64238267,11.7216045 1.87684024,10.7742453 1.45293511,9.75233531 C3.64302654,11.035666 6.47563169,11.7212103 8.99251686,11.9206564 C9.11004795,12.6058853 9.58449184,13.2739647 9.94250416,13.8524334 C10.500551,14.7541001 11.2665254,15.6376319 12.1732779,16.1997001 C14.7330445,17.7864381 18.5501933,17.4797192 21.0872626,16.0095581 C21.9927978,15.4848244 22.6738016,14.7550463 23.3059416,13.9312814 C23.5028824,13.6746311 23.8237073,12.8871363 24.1517884,12.8332436 C24.4440326,12.7852646 24.7579086,12.8441966 25.0533967,12.8239018 C26.1103211,12.751204 27.1794871,12.7637802 28.2341578,12.6630124 C28.6649349,12.6218537 29.0988536,12.6253625 29.5300234,12.5841644 C29.7149788,12.5665024 30.0130279,12.4837908 30.1893441,12.5637822 C30.4080705,12.6632095 30.5502231,13.2107698 30.6601753,13.4187709 C30.9566536,13.9791833 31.3862527,14.4827069 31.846874,14.9133749 C33.7046741,16.6506338 36.3608059,17.1655903 38.797426,16.6732631 C40.8696329,16.2545801 42.5377654,14.9184606 43.5367599,13.0639547 C43.8721143,12.4414494 44.0759186,11.7621736 44.2950377,11.0927537 C44.3641505,10.8819929 44.3696481,10.4397342 44.5758086,10.320792 C45.1707287,9.97705394 46.0691955,9.91984969 46.7296943,9.73562124 C48.3526678,9.28283637 49.9732852,8.81991953 51.5990075,8.37844936 C52.1841104,8.21964941 52.7798159,8.09889363 53.366097,7.9434053 C53.5526231,7.89396758 53.9017214,7.81843115 53.9873271,7.61831483 C54.0847133,7.3912719 53.5922844,7.42292939 53.4839029,7.42785739 C52.945137,7.45237913 52.3690658,7.60491066 51.8346194,7.69258968 C49.4726098,8.08004895 47.0831122,8.28793181 44.7269929,8.72731251 L44.7662615,7.42631985 C46.2046724,7.85316372 47.8229336,6.36703586 48.4268855,5.21857474 C48.6381509,4.81692282 49.3575527,3.48845162 48.5360524,3.30237025 C47.9568397,3.17116711 47.653293,4.01669407 47.3960833,4.39067032 C46.797629,5.26115268 45.8736376,6.69133785 44.6877242,6.71668749 C44.6421726,6.3572587 44.5487132,6.00445315 44.4658563,5.65223896 C44.4352268,5.52300702 44.3433381,5.35155196 44.387319,5.21873243 C44.4693905,4.97178037 44.8499038,4.74343645 45.0297542,4.56508218 C45.3996649,4.19899073 45.7389461,3.75901867 45.8752083,3.24737374 C45.948248,2.9733768 46.0994324,1.67892853 45.479773,1.93636738 C45.1864361,2.05830588 45.177797,2.59092438 45.0780546,2.85313354 C44.8605063,3.42277121 44.4548611,4.04634093 43.9808884,4.43009434 C43.8375578,3.62190193 43.2088667,2.63188594 42.6689227,2.03362644 C42.5330531,1.88342092 42.3253219,1.80417864 42.1745303,1.66690421 C41.6573621,1.19657565 41.1578648,0.765710535 40.4859781,0.541111893 C39.8368673,0.324122087 39.2450886,0.411603988 38.6010827,0.321677798 C38.1919033,0.264552393 37.8019656,0.0774854189 37.3837544,0.0258793768 C36.5422271,-0.0778846437 35.5738621,0.137843593 34.8312918,0.539298388 C32.3298785,1.89189709 30.1614634,4.61026211 29.7043762,7.46574387 C29.5347356,8.5245942 29.7204252,9.56400848 29.7656353,10.6196655 M36.0196548,0.980310997 L35.9803452,1.019689 L36.0196548,0.980310997 M35.9993014,0.992772457 C36.0295698,0.992772457 36.0056251,1.0123827 35.9863122,1.00592129 L35.9993014,0.992772457 M36.6573046,1 L36.6573046,1.03763441 C36.2726393,1.2927957 35.6610817,1.70274731 35.6054855,2.20430108 C35.8609273,1.94387097 36.023208,1.64768817 36.3567849,1.45816129 C37.2012453,0.978284946 38.3890496,0.981973118 39.3135234,1.07060215 C39.7105851,1.10865054 40.0430351,1.08004348 40.4513663,1.21342473 C40.9160449,1.36516667 41.2781712,1.61694086 41.6534452,1.92490323 C41.8119694,2.05493011 42.0121906,2.16316667 41.9994185,2.39247312 C41.9325529,3.60019892 40.9956826,4.57436559 40.2965986,5.47849462 C40.1159111,5.7120914 39.5159986,6.39101613 39.1741574,6.00537634 L39.1365924,6.00537634 L39.0990274,6.00537634 C38.9326146,6.20348387 38.3327021,6.15576344 38.0847733,6.15591398 L38.0847733,6.11827957 C39.050193,5.42561828 39.9277106,4.67887634 40.1414553,3.44623656 C40.2154583,3.0193871 40.2579067,2.46804301 40.1035147,2.05376344 C40.0171152,1.82280108 39.7628004,1.60843548 39.5122421,1.73240323 C39.0689755,1.95203763 39.2102197,2.69524194 39.1741574,3.10752688 C39.10053,3.94970968 38.6846859,4.64602151 38.2808625,5.3655914 C38.1242166,5.64476344 37.8999537,6.06551613 37.5588638,6.11827957 L37.5588638,5.93010753 C37.4559358,6.02904839 37.4472958,6.09400538 37.4837339,6.2311828 L34.9668811,6.79569892 L34.9668811,6.75806452 C36.0622755,6.13280645 37.0179283,4.75933871 37.2485772,3.52150538 C37.3300932,3.08317742 37.4690835,2.47154301 37.2485772,2.05376344 C37.134004,1.83744086 36.8770597,1.59808602 36.6219935,1.73229032 C36.286914,1.9086828 36.463845,2.38543548 36.4266557,2.69354839 C36.3214738,3.57554839 36.1415376,4.43888172 35.7775331,5.25268817 C35.5566511,5.74705376 35.2249524,6.30656452 34.8158699,6.66623656 C34.0679514,7.32382258 32.9090722,7.62139785 32,8 L32.6010395,7.05913978 C32.98007,7.71597312 33.5859929,7.1971828 33.9469922,6.79569892 C34.5634333,6.10962366 34.9826584,5.28241935 35.0416354,4.34946237 C35.0607935,4.05098387 35.0964802,3.65510753 34.8778521,3.41665591 C34.6070087,3.12163978 34.1085216,3.2786129 34.0371482,3.67204301 C33.9642721,4.07153226 34.0533174,4.50895699 34.025062,4.91397849 C33.9878727,5.44571505 33.7805141,6.00872581 33.5720285,6.49462366 C33.4769892,6.71644086 33.22305,7.30184409 32.9029965,7.20960215 C32.7478532,7.1648172 32.6809875,6.9802957 32.6990187,6.83333333 C32.7643817,6.29820968 32.9379319,5.84347312 32.9063773,5.29032258 C32.8954345,5.10391935 32.8793305,4.9003172 32.8083328,4.72580645 C32.7602496,4.60831183 32.6283966,4.48400538 32.6535651,4.34946237 C32.7204307,3.99697849 33.2452133,3.52323656 33.4852535,3.26935484 C34.3248305,2.38069355 35.4258597,1.29320968 36.6579906,1 M23,8 C22.5888313,7.88595583 21.6887139,7.74755674 21.3902044,7.438507 C21.2018284,7.24350143 21.1916724,6.87971548 21.1292065,6.62847749 C20.949119,5.90418892 20.7832784,5.12200548 20.6736963,4.38416793 C20.6352776,4.12557359 20.5545272,3.81332364 20.5955961,3.55294217 C20.6333033,3.31371539 20.8254678,3.1230322 20.6110703,2.9043367 C20.1168568,2.40015672 19.6936111,3.4081842 19.7389309,3.80230989 C19.8438174,4.71524515 20.1211433,5.58046805 20.4809448,6.42067105 C20.6206038,6.74680248 20.8348768,7.04471379 20.9544905,7.37658068 C20.6622062,7.2929178 20.0685311,7.26602765 19.8908625,7.00252908 C19.4251607,7.11129497 19.1713307,6.7209098 18.983097,6.33754847 C18.7025162,5.76599764 18.6313225,5.04927322 18.5308096,4.42572922 C18.4807782,4.1154742 18.3963834,3.74200447 18.448583,3.4282583 C18.513628,3.0372497 19.2686935,2.70376193 18.741006,2.29168175 C18.0714042,1.76875763 17.3352918,2.90703819 17.2796968,3.46981959 C17.1511205,4.77097884 17.8963965,5.84766557 18.581782,6.83628393 L18.3772381,6.83628393 L18.3772381,6.67003878 C17.925319,6.9591391 17.1370479,6.63745473 16.822705,6.2505607 C16.1991735,5.48308995 15.6687095,3.88052824 15.9345756,2.88796155 C16.0612701,2.41491097 16.6593563,2.23262316 16.7507873,1.80720182 C16.7807326,1.66792994 16.6958469,1.52279792 16.6590699,1.39175518 L16.7817962,1.22551003 C15.9811707,0.929593656 14.7888438,1.58040187 14,1.76580677 C14.0055316,1.14683451 14.734026,1.04047917 15.227263,1.0160827 C16.4247036,0.956940983 17.6239441,1.04650556 18.745417,1.52824245 C20.0114189,2.07207191 21.3902222,2.84149603 22.0633671,4.1348002 C22.2469763,4.48748929 22.0989221,5.17599359 22.1819314,5.58944529 C22.352183,6.43787742 22.807462,7.17679557 23,8 M16.0196548,1.980311 L15.9803452,2.019689 L16.0196548,1.980311 M15.3833036,2 C15.1475611,2.35295198 14.8777769,2.6154657 14.7468728,3.04051682 C14.2825827,4.54809564 15.2473426,5.81574861 16,6.94245492 C15.7245834,6.94245492 15.4034079,7.04100053 15.136625,6.98017365 C14.0959703,6.74302252 13.635627,5.63972785 13.310628,4.6880018 C13.199746,4.36327384 12.9105564,3.65671956 13.0272354,3.31477972 C13.0970454,3.11010139 13.4463834,2.96078722 13.6154405,2.86367232 C14.1726874,2.54349662 14.7600702,2.15573068 15.3833036,2 M43.092689,3 C43.3991807,3.37483473 43.6162972,3.81609243 43.8246941,4.23937914 C43.8870388,4.36622185 44.0396307,4.56030087 43.9903653,4.70356536 C43.9271487,4.88881381 43.5971142,5.07545656 43.4414705,5.20419707 C42.8760085,5.67121062 41.6465537,6.4441959 41,5.67241127 L41,5.63368067 C41.6670446,5.17681454 42.2878757,4.68044319 42.6863585,4.00699555 C42.8725207,3.69269675 42.8921396,3.29516589 43.092689,3 M12.2186333,4 C12.3139809,5.13607814 12.9171517,6.39684932 14,6.97786939 C13.798661,7.04568932 13.5328811,6.94091864 13.3319875,6.88748476 C12.6266553,6.69987899 12.0424116,6.29056875 11.5429164,5.7997236 C11.3881156,5.64755867 10.9995995,5.36134767 11,5.1324292 C11.0001939,4.9808934 11.1811653,4.85196424 11.2834603,4.7549528 C11.5642482,4.48866417 11.8513155,4.1584562 12.2186333,4 M23.021937,6 C23.4500941,6.961 23.8846169,7.88340741 24,9 C23.8236909,8.93025926 23.36154,8.69662963 23.2597648,8.50392593 C23.191236,8.37422222 23.2037098,8.1497037 23.1872026,8 C23.1369721,7.54411111 23.1061741,7.0857037 23.0554282,6.62962963 C23.0342175,6.43885185 22.9650959,6.182 23.021937,6 M43.65,6 L44,7 C43.4355,6.96819355 42.48,6.77554839 42,6.58064516 L43.65,6 M31.9719628,6 C31.9790458,6.52270777 32.0761088,7.00938019 31.8619985,7.52857549 C31.7997437,7.67996951 31.7066522,8.00549105 31.329632,7.99992963 C30.8612658,7.99300085 31.0166121,7.65668313 31.0579214,7.49605261 C31.1713766,7.04710674 31.456469,6.35664593 31.9719628,6 M41.1375834,5.86217698 L41.2162024,6.09844502 L40.7837976,6.13782302 L41.1375834,5.86217698 M10.5142857,6 C11.1947714,6.45967879 12.0195571,6.81792884 13,6.87038398 L13,6.89939678 C12.0228571,7.08571697 10.9050571,7.0159702 10,6.66729438 L10.5142857,6 M44.9027529,9.00755127 L44.782766,9.00755127 C44.782766,10.2888709 44.3700112,11.5940108 43.7140831,12.7137998 C43.1125489,13.7411255 42.225846,14.6833234 41.1431646,15.2499161 C38.655837,16.5515815 34.9538424,16.1290692 32.9040669,14.2158728 C31.8465827,13.2288911 31.4098305,11.7977773 31.1742563,10.4360012 C31.1254616,10.1533226 30.8866878,9.39419792 31.0654682,9.14800265 C31.2250507,8.92805996 31.8077869,8.81714275 32.0641588,8.73842358 C32.5529053,8.5882433 33.0592499,8.48601261 33.5439968,8.32444334 C34.035543,8.16063488 34.583483,7.92895574 35.103826,7.88795537 L35.103826,7.92656212 C33.6067899,8.74992839 33.7355758,11.0494239 34.7738621,12.1698692 C35.944134,13.4325031 38.0191067,14.2291535 39.7433179,13.4912626 C40.3792483,13.2192008 40.8879926,12.7261925 41.3187454,12.211912 C41.8302894,11.600767 42.1798511,10.8309483 42.2914389,10.0499723 C42.4030266,9.27057909 42.1482545,8.4767856 41.8106915,7.7721351 C41.6855052,7.5109218 41.4515308,7.27912684 41.3831383,7 C42.3170361,7 43.1057497,7.04443638 44.0228493,7.26534423 C44.2540239,7.32109238 44.7587687,7.34912089 44.901553,7.5566708 C45.1151296,7.86687608 44.9166818,8.64800656 44.903292,9.00755127 M51.743475,42.0439348 C49.4140045,41.1169791 46.9663609,40.4300067 44.5503356,39.7732309 C42.4445638,39.2006877 40.3660626,38.6444348 38.1871738,38.4350453 C35.2435198,38.1521509 32.2769426,38.2618122 29.334079,38.4644472 C27.1802098,38.6130462 25.0295023,38.7874712 22.8918717,39.1204284 C20.396526,39.5098054 17.9418852,40.0978442 15.4615958,40.5635074 C13.295789,40.9699694 11.1380052,41.4594719 9.01938852,42.0665823 C8.17253468,42.309347 7.30414094,42.5235043 6.48993289,42.8671892 C5.83377629,43.1437264 5.18169053,43.4242368 4.59284116,43.8330827 C4.31827666,44.0234006 4.03636092,44.2319955 4,44.5868054 C4.24282774,44.4564833 4.41241984,44.2284196 4.67188665,44.1056466 C5.79097315,43.576809 7.06921775,43.3276872 8.26845638,43.05115 C10.7416316,42.4805934 13.2325526,42.1039307 15.738255,41.7153483 C17.8010656,41.3951055 19.8657871,41.0609564 21.9433259,40.8587188 C28.7076435,40.200751 35.5699776,40.3807386 42.2975391,41.3235873 C44.2677479,41.5997271 46.1873676,42.1122745 48.1469053,42.4380798 C49.3934526,42.6450853 50.7664728,42.6415094 51.979821,42.9919488 C52.2118195,43.0590965 52.2675466,43.3185487 52.3663535,43.5140319 C52.5900522,43.9582396 53.039821,45.046906 53.6405667,44.9984326 C54.4306264,44.9344635 54.0373751,43.7432876 53.917226,43.2756378 C54.8954139,43.4027813 56.0170694,43.8962571 57,43.7126936 C56.8596943,43.4262234 56.5328412,43.3737767 56.2490679,43.3062317 C55.6933781,43.173923 55.1412453,43.0201587 54.5891126,42.8735464 C54.3709471,42.8159345 53.8958837,42.778586 53.7868009,42.5552902 C53.4417673,41.8472597 53.3583743,40.7931604 53.229135,40.0175849 C52.952871,38.3615404 52.6951827,36.7039067 52.3987621,35.0510408 C51.9371365,32.4789273 51.8296346,29.8910399 51.6956525,27.2918686 C51.4695824,22.8951263 51.814616,18.4130785 52.7544668,14.1120911 C53.2737957,11.733633 53.8160477,9.1925504 54.8657718,7 C54.5823937,7.04394398 54.468173,7.28666892 54.3353766,7.51652058 C54.0689933,7.97737614 53.8057718,8.43898661 53.552431,8.90715292 C52.4865026,10.8772816 51.4525876,12.8416888 50.8787174,15.0259352 C49.9329381,18.6244149 49.6491648,22.2138753 49.4890977,25.9125998 C49.3306115,29.5755651 49.5744668,33.2697203 50.2261969,36.878729 C50.5483072,38.661917 51.3407383,40.2945194 51.743475,42.0439348 M11,7.8567645 L11,7.8961425 C10.6535769,8.09362321 10.4138846,8.25849892 10,8.21116655 L10.1370769,7.78064681 L11,7.8567645 M19.4686386,8 C20.4846753,8.29508513 21.6465121,8.34570643 22.698108,8.47403451 C22.9756493,8.50787207 23.7265361,8.55648703 23.8963289,8.79145937 C24.045376,8.99768715 23.9898958,9.52859345 23.9898958,9.77483211 C23.9898256,10.9028537 23.4594203,12.0482377 22.7637505,12.9386633 C21.1723944,14.9755918 18.8865794,15.8791357 16.2795376,15.9882492 C15.1674698,16.0348193 14.0918547,15.9550676 13.0500682,15.5286449 C11.1287761,14.7422399 9.57951893,12.6806953 9.16667163,10.7394148 C9.06667918,10.2693158 9.01323147,9.79153868 9.01323147,9.31183243 C9.01323147,9.16614186 8.96426464,8.91704804 9.05473015,8.79088062 C9.13356957,8.68095678 9.3337563,8.62782757 9.45728351,8.5787496 C9.75249738,8.88174431 10.1217065,8.6490098 10.4664927,8.53480321 C11.167772,8.30249312 11.9912059,8.16799172 12.7271213,8.07716661 C12.0655645,9.03723504 11.4448604,10.3319365 11.7382174,11.5110809 C12.2007985,13.3703333 14.6411067,14.5249773 16.5217478,14.0778354 C17.6200096,13.8167036 18.5565242,13.0587345 19.1641032,12.1669971 C19.7258729,11.3425104 20.2646677,10.2029911 20.033199,9.19608251 C19.9470038,8.8212071 19.456651,8.3388386 19.4686386,8 M30.8820714,7.84248797 L31.1572381,7.96062199 L31.1572381,8 L30.8427619,8.15751203 L30.8820714,7.84248797 M35.8084547,8.01526171 C37.0623282,7.80892024 37.5505931,9.75924536 36.1580477,9.98275826 C34.7752132,10.2046713 34.5961439,8.21477728 35.8084547,8.01526171 M38.894967,9.01260307 C40.0625978,8.82642759 40.4719696,10.7610769 39.2955264,10.9783454 C37.9468427,11.2273953 37.400079,9.25090616 38.894967,9.01260307 M14.9722675,9.0040117 C15.4805783,8.94290378 16.0387616,9.59329347 15.9978812,10.0424329 C15.9570801,10.4911965 15.424249,10.9222216 14.9722675,10.9853965 C13.4931274,11.1922089 13.8724987,9.1361867 14.9722675,9.0040117 M16.5376538,10.0091771 C17.2737419,9.89380398 17.0398655,10.9026583 16.4703513,10.994885 C16.1488469,11.0469806 15.9445164,10.690201 16.0133332,10.4221273 C16.071348,10.1961734 16.3103731,10.0447768 16.5376538,10.0091771 M33.9933345,9.98688712 L34.0066655,10.0131129 L33.9933345,9.98688712 M1.96069046,10.901555 L2.03930954,11.098445 L2,11.098445 L1.96069046,10.901555 M2.01965477,10.980311 L1.98034523,11.019689 L2.01965477,10.980311 M38.4137126,11.005908 C38.9763158,10.9156541 39.2701382,11.8877773 38.6641294,11.9901919 C37.9629623,12.1086526 37.7204754,11.1171033 38.4137126,11.005908 M15.4380351,12.0085905 C16.0685663,11.8990574 16.2240667,12.8710288 15.6169769,12.9867299 C14.8853138,13.1261676 14.7777102,12.1233562 15.4380351,12.0085905 M3.01965477,12.980311 L2.98034523,13.019689 L3.01965477,12.980311 M3.01965477,12.980311 L2.98034523,13.019689 L3.01965477,12.980311 M3.01965477,12.980311 L2.98034523,13.019689 L3.01965477,12.980311 M2.96069046,12.901555 L3.03930954,13.098445 L3,13.098445 L2.96069046,12.901555 M26,17.2134745 C26.4079169,17.0266809 26.7083751,17.8461574 26.8756773,18.2335359 C27.1902737,18.9619822 27.5752543,19.826015 27.3549407,20.6816834 C27.2589709,21.0544138 27.0655255,21.3858522 26.8886025,21.7017448 C26.7565064,21.9376238 26.1946585,22.595441 26.4338649,22.9043972 C26.7195295,23.2734554 27.2783935,22.4716871 27.4429769,22.2315647 C28.0360572,21.366471 28.1778019,20.2821457 27.7602921,19.2535974 C27.4806928,18.5648519 27.0765544,17.8781465 26.6358016,17.341227 C26.4755824,17.1460689 26.1066641,16.7564462 26,17.2134745 M32,28.3548132 C31.8045033,28.6001928 31.5259603,28.6954119 31.2450331,28.824017 C30.6219868,29.1094445 29.9596026,29.309263 29.2980132,29.4922735 C27.1084538,30.0979695 24.7032537,30.1127482 22.4635762,29.7933603 C21.6203628,29.6730634 20.8252289,29.4193756 20,29.2354079 C20.6659603,28.6640934 21.507757,28.3009055 22.1854305,27.7312756 C22.4276591,27.5277051 22.8074057,27.047781 23.1390383,27.001837 C23.407613,26.9646223 23.7264785,27.5033548 23.8946444,27.6650779 C24.3293809,28.0832838 24.8802649,28.3126595 25.4834437,28.3821499 C27.0877052,28.5670365 28.4524503,27.3624979 30.0529801,27.4374633 C30.7888742,27.4719214 31.3483444,28.0920897 32,28.3548132 M30,30 C27.9326471,32.5357415 23.1271008,32.7483167 21,30.1306949 C22.0351151,30.2018909 23.0554165,30.4579874 24.1008403,30.5198714 C25.4756175,30.6011963 26.8622488,30.5750574 28.2226891,30.3778715 C28.8288655,30.2900119 29.4040336,30.1180501 30,30 L30,30 Z" id="path388"></path>
            </g>
        </g>
    </g>
</svg>