<?xml version="1.0" encoding="UTF-8"?>
<svg width="32px" height="32px" viewBox="0 0 32 32" version="1.1" xmlns="http://www.w3.org/2000/svg" xmlns:xlink="http://www.w3.org/1999/xlink">
    <!-- Generator: Sketch 63.1 (92452) - https://sketch.com -->
    <title>npm</title>
    <desc>Created with Sketch.</desc>
    <g id="CSS-Website" stroke="none" stroke-width="1" fill="none" fill-rule="evenodd">
        <g id="CDOGS" transform="translate(-242.000000, -2011.000000)" fill-rule="nonzero">
            <g id="npm" transform="translate(237.000000, 2006.000000)">
                <rect id="Rectangle" fill="#000000" opacity="0" x="0" y="0" width="42" height="42"></rect>
                <path d="M31.6060606,36.9090909 L10.3939394,36.9090909 C7.46515663,36.9090909 5.09090909,34.5348434 5.09090909,31.6060606 L5.09090909,10.3939394 C5.09090909,7.46515663 7.46515663,5.09090909 10.3939394,5.09090909 L31.6060606,5.09090909 C34.5348434,5.09090909 36.9090909,7.46515663 36.9090909,10.3939394 L36.9090909,31.6060606 C36.9090909,34.5348434 34.5348434,36.9090909 31.6060606,36.9090909 Z M10.3939394,8.62626263 C9.41767847,8.62626263 8.62626263,9.41767847 8.62626263,10.3939394 L8.62626263,31.6060606 C8.62626263,32.5823215 9.41767847,33.3737374 10.3939394,33.3737374 L31.6060606,33.3737374 C32.5823215,33.3737374 33.3737374,32.5823215 33.3737374,31.6060606 L33.3737374,10.3939394 C33.3737374,9.41767847 32.5823215,8.62626263 31.6060606,8.62626263 L10.3939394,8.62626263 Z" id="Shape" fill="#D10000"></path>
                <rect id="Rectangle" fill="#BA0000" x="21.6363636" y="16.5454545" width="6.36363636" height="16.5454545"></rect>
            </g>
        </g>
    </g>
</svg>