<?xml version="1.0" encoding="UTF-8"?>
<svg width="24px" height="22px" viewBox="0 0 24 22" version="1.1" xmlns="http://www.w3.org/2000/svg" xmlns:xlink="http://www.w3.org/1999/xlink">
    <!-- Generator: Sketch 63.1 (92452) - https://sketch.com -->
    <title>rocketchat-brands</title>
    <desc>Created with Sketch.</desc>
    <g id="CSS-Website" stroke="none" stroke-width="1" fill="none" fill-rule="evenodd">
        <g id="our-team" transform="translate(-241.000000, -1509.000000)" fill="#38598A" fill-rule="nonzero">
            <g id="rocketchat-brands" transform="translate(241.000000, 1509.000000)">
                <path d="M20.2670833,4.39875 C17.0616667,2.28083333 12.80125,1.79875 9.26208333,2.4375 C5.3025,-1.38166667 0.865416667,0.375 0,0.88 C0,0.88 3.045,3.4675 2.55041667,5.73375 C-1.05458333,9.40875 0.659166667,13.5004167 2.55041667,15.4325 C3.045,17.69875 0,20.28625 0,20.28625 C0.857083333,20.7929167 5.28208333,22.5441667 9.26208333,18.7445833 C12.7933333,19.3791667 17.05375,18.90125 20.2670833,16.7795833 C25.23625,13.6070833 25.2525,7.5875 20.2670833,4.39833333 L20.2670833,4.39875 Z M12.2575,16.7591667 C11.0182826,16.7627243 9.78396901,16.6034445 8.58625,16.2854167 L7.7625,17.0808333 C7.30494125,17.5245776 6.79260558,17.9080942 6.23791667,18.2220833 C5.56493811,18.5609271 4.83384854,18.7691837 4.08333333,18.8358333 C4.125,18.7616667 4.16166667,18.6875 4.19875,18.6175 C5.02291667,17.0897222 5.24513889,15.7190278 4.86541667,14.5054167 C3.51,13.4383333 2.69875,12.0745833 2.69875,10.5833333 C2.69875,7.16666667 6.97958333,4.39875 12.2575,4.39875 C17.5354167,4.39875 21.81625,7.16666667 21.81625,10.5833333 C21.81625,14 17.5354167,16.7591667 12.2575,16.7591667 Z M7.67166667,12.0541667 C6.88379027,12.0653061 6.23536336,11.4370028 6.22166667,10.6491667 C6.1925,8.75791667 9.04791667,8.71666667 9.07666667,10.60375 L9.07666667,10.625 C9.0802184,11.0010146 8.93413146,11.3630146 8.67059215,11.6312432 C8.40705284,11.8994718 8.04768539,12.05192 7.67166667,12.055 L7.67166667,12.0541667 Z M10.7454167,10.6491667 C10.7125,8.75791667 13.5679167,8.7125 13.6008333,10.5995833 L13.6008333,10.625 C13.6170833,12.5033333 10.7783333,12.52375 10.7454167,10.6491667 Z M16.7195833,12.0541667 C15.9316366,12.0653078 15.2830901,11.4370691 15.2691667,10.6491667 C15.2404167,8.75791667 18.0958333,8.71666667 18.1245833,10.60375 L18.1245833,10.625 C18.1293638,11.0013776 17.9836767,11.3640868 17.7198735,11.632584 C17.4560702,11.9010813 17.0959867,12.0531422 16.7195833,12.055 L16.7195833,12.0541667 Z" id="Shape"></path>
            </g>
        </g>
    </g>
</svg>