<?xml version="1.0" encoding="UTF-8"?>
<svg width="45px" height="44px" viewBox="0 0 45 44" version="1.1" xmlns="http://www.w3.org/2000/svg" xmlns:xlink="http://www.w3.org/1999/xlink">
    <!-- Generator: Sketch 63.1 (92452) - https://sketch.com -->
    <title>sam</title>
    <desc>Created with Sketch.</desc>
    <g id="img" stroke="none" stroke-width="1" fill="none" fill-rule="evenodd">
        <g id="CDOGS-Copy-3" transform="translate(-377.000000, -200.000000)" fill="#003366" fill-rule="nonzero">
            <g id="sam" transform="translate(377.000000, 200.000000)">
                <path d="M33.321603,0 C33.2648271,0.196466006 33.4715698,0.576737825 33.3681984,0.714990243 C33.2812725,0.830679555 32.9484481,0.864038776 32.8125775,0.889514503 C32.3180396,0.982213526 31.8231101,1.06256303 31.3246566,1.13126206 C29.2803317,1.41304845 27.1600445,1.58143679 25.0988826,1.63165037 C23.6246663,1.66753387 22.1500585,1.82765036 20.6742759,1.86349502 C16.9631936,1.95366977 13.2260123,1.89856298 9.51486217,1.82469891 C7.51615378,1.78493192 5.52151759,1.86330084 3.52402303,1.86407754 C2.39527845,1.86452564 1.10019999,1.6923494 0,1.94174744 C0.189631595,2.56683478 1.46286111,1.98730084 1.85199157,2.3535144 C2.08954988,2.57712604 2.18520752,3.1562328 2.31066274,3.45631044 C2.6358126,4.23413563 3.08853209,4.9537084 3.3793423,5.74757243 C4.0861047,7.67712569 4.58173896,9.71774691 4.99036901,11.7281545 C5.63463873,14.8979407 6.08164147,18.0908726 6.22424694,21.3203869 C6.41282132,25.5916487 5.91096129,29.9645013 5.21735525,34.1747535 C4.79466826,36.740583 4.34061747,39.3001945 3.91244867,41.8640778 C3.86851585,42.1269904 3.89392798,42.6939807 3.73534694,42.8998059 C3.43905491,43.2842719 2.80598376,43.3557282 2.48940902,43.7398058 C2.35647504,43.9009709 2.44931347,43.9864078 2.62343936,44 L2.50597193,43.9223301 C2.94428208,43.5320389 3.54258288,43.375534 4.07220439,43.1533981 C6.14624856,42.2834953 8.46427259,42.253204 10.6783379,42.0493205 C14.867695,41.6640778 19.1495035,41.9914564 23.3368711,42.173204 C25.9477806,42.2866021 28.561431,42.3436894 31.1680334,42.5207768 C32.1007248,42.5840778 33.0526026,42.5483496 33.9805953,42.6586409 C34.9007569,42.7681554 35.8428457,42.7366991 36.7673144,42.7996117 C38.485863,42.9165049 40.1899239,43.0667962 41.8967257,43.3172816 C42.4574369,43.3996117 43.0815806,43.4411651 43.6195814,43.6248544 C43.7769878,43.678835 43.862739,43.8318447 44.0146636,43.8869903 C44.1650219,43.9413592 44.2452913,43.8590291 44.2852302,43.7281554 C44.5585378,43.8198058 44.7085045,43.8003884 44.7551,43.4951457 C43.9414422,43.4291263 43.8376793,42.5196118 43.6195814,41.8640778 C43.0310696,40.0959226 42.6958958,38.1642722 42.5588505,36.3106801 C42.2193696,31.716074 42.0576561,27.0742506 42.6128855,22.4854354 C42.845471,20.5607753 43.1634162,18.6411249 43.5334386,16.7378629 C43.7570183,15.5881154 44.1149024,14.411067 44.2069186,13.2427175 C44.6066994,13.4042709 45.237108,13.3117273 44.9081992,12.7378632 C44.6901013,12.3576691 44.2108342,12.0646205 43.8936721,11.7654749 C43.0177566,10.9388342 42.0968119,10.157475 41.2310769,9.31980519 C39.2078962,7.36221309 37.3221523,5.28943653 35.5969472,3.06796096 C35.0100016,2.3118445 34.3369132,1.59013581 33.8306286,0.776698976 C34.1509231,0.628349472 34.6877493,0.442757251 34.8486797,0.116504846 C34.6031727,0.194097074 33.9473129,0.727766941 33.6947579,0.555029089 C33.523647,0.438097058 33.4856659,0.172737852 33.3999147,0 L33.321603,0 M33.5173821,0.932032797 C34.0201427,1.86765036 34.4171826,2.84811631 34.9606653,3.76699004 C36.9356844,7.10539758 39.6730672,10.5435333 43.0322443,12.5825234 L43.0322443,12.6213584 L40.4871165,12.2784069 L36.2974447,11.9965429 L33.1649798,11.8481157 L31.4812799,12.2330089 C31.7307024,11.8711837 32.0419911,11.5546012 32.2824078,11.1844653 C33.277357,9.65238769 34.0859245,7.81126161 34.4257969,6.01941707 C34.5546195,5.33949478 34.5150722,4.6017861 34.4007372,3.92232983 C34.3607983,3.68489295 34.1399595,3.23836871 33.8388513,3.47685413 C33.6254521,3.6459415 33.6454216,3.99009682 33.6332833,4.23300942 C33.6086151,4.73910647 33.5091594,5.24625207 33.4390705,5.74757243 C33.2938024,6.78333935 32.9359183,7.78477617 32.6179731,8.77669843 C32.3368344,9.65432944 32.121869,10.5588731 31.6856732,11.37864 C31.3720352,11.9681157 30.9448453,12.8150283 30.1891381,12.8155331 C30.3109127,12.928737 30.4248561,12.8932807 30.565817,12.9553001 C30.7048202,13.0161933 30.7721681,13.1417467 30.9330985,13.176737 C31.2349898,13.2424069 31.6414272,13.0843486 31.9511496,13.0551447 C32.5208667,13.0013583 33.1410947,13.0252418 33.7131611,13.0500514 C35.7198965,13.1372359 37.7301558,13.2983232 39.7431561,13.1615854 C40.5380191,13.107566 41.3367976,13.0990611 42.1316606,13.0450805 C42.7460153,13.0033329 43.4100978,12.9296631 44.0111395,13.0873718 C43.7613255,13.9929639 43.2679622,14.8503231 42.9312223,15.7281483 C42.2937657,17.3903618 41.7361869,19.0810413 41.3348398,20.8155266 C40.7882247,23.1777012 40.5528983,25.5869049 40.4463945,27.9999921 C40.2823316,31.7199515 40.5325373,35.5533927 41.6116714,39.1456254 C42.0529574,40.6143632 42.9147768,41.8310621 43.502114,43.223295 C42.178256,43.046596 40.8516571,42.6710621 39.547377,42.3852369 C37.5931105,41.9572757 35.6200492,41.6217418 33.6348495,41.3704796 C30.1820901,40.9331981 26.7426436,40.8780525 23.2683485,40.8085379 C17.8808552,40.7009651 12.3478981,40.6893146 7.04804605,41.7731981 C6.16657043,41.9537806 5.35765052,42.2799941 4.50291831,42.524266 C4.60719024,41.7568874 4.99561589,40.9712564 5.23340913,40.233004 C5.57304664,39.1786351 5.8119754,38.0897032 6.0525487,37.0097032 C7.18869373,31.9078739 8.02118543,26.7020116 7.5112593,21.4757207 C7.05701273,16.8199929 5.86009789,12.1961485 4.37155056,7.76698379 C4.00113659,6.66488678 3.58169954,5.57684802 3.04405109,4.54368304 C2.68225139,3.84849862 2.11598005,3.07882877 1.99694638,2.29125601 C2.39888079,2.38616862 2.83899211,2.36943076 3.24993235,2.41886765 C4.38549003,2.55537249 5.5253157,2.72434335 6.65648794,2.89036276 C15.5538253,4.19649859 24.9348198,3.70185785 33.5173821,0.932032797 M13.0780485,17.8640705 C13.0072518,17.9006142 12.9444369,17.9329637 12.8865314,17.9894297 C12.4583175,18.4067501 13.0653982,18.5514879 13.2147023,18.8401093 C13.3660395,19.1326141 13.4048038,19.4995267 13.5369546,19.8058179 C14.226127,21.40341 15.2357295,22.6127692 16.6412274,23.6401866 C16.9949098,23.8987108 17.3334118,24.2078759 17.7375901,24.3883419 C17.1394399,24.7333127 15.8228257,25.1208467 15.7797995,25.9417398 C16.0565106,25.7546719 16.1966433,25.4234874 16.5237599,25.2377787 C19.2265651,23.7031769 22.5576705,23.4590992 25.5687524,24.0562642 C26.7755345,24.295604 28.0316529,24.6548273 28.975308,25.4644972 C29.2051526,25.6616234 29.4365634,25.8690796 29.6801126,26.0488855 C29.7408041,26.0938563 29.8837228,26.2160311 29.9639922,26.1431767 C30.0728454,26.0439923 29.777219,25.8508272 29.7192684,25.8023224 C29.3723479,25.5113321 29.025819,25.2084972 28.7012173,24.8931962 C29.3425895,24.5764195 29.7537255,23.9951769 30.2298602,23.4951381 C31.6316382,22.0228275 33.203744,19.9027888 33.2041356,17.7864006 C33.8662604,17.669352 33.9120727,16.9549055 33.2041356,16.8931968 C33.2041356,16.4818958 33.1371792,16.0868667 33.028326,15.6893133 C32.3297863,13.136265 29.3222285,12.8152941 27.095829,12.9674106 C25.0910515,13.1043427 23.1598869,13.7659737 22.5537549,15.8834881 L22.3971316,15.8446531 L22.4362875,16.4660123 L22.3971316,16.4660123 L22.0447293,15.223294 C21.5732482,14.8133911 21.3122747,13.9663232 20.9704897,13.4368863 C20.4408621,12.6165369 19.6076265,12.0808476 18.6773296,11.8072165 C16.0753807,11.041935 13.6960025,13.5758766 13.1610137,15.8834881 C13.0271761,16.4608084 12.9063051,17.2878763 13.0780485,17.8640705 M13.3129834,17.7864006 C13.312893,17.1058569 13.2650477,16.481158 13.4173336,15.8058182 C13.7768141,14.211527 15.1474332,12.4983621 16.7586948,12.0220903 C18.5862923,11.481935 20.2238938,12.4434883 21.1519768,13.9805756 C21.3293527,14.274362 21.8321133,14.9087309 21.8003971,15.260459 C21.7839516,15.4412745 21.4791237,15.5509444 21.3399247,15.6211192 C20.8676605,15.8592162 20.3785291,16.0717211 19.8911597,16.2776628 C17.7472134,17.1834103 15.6217606,17.6053909 13.3129834,17.7864006 M33.0866682,16.8543618 C32.300811,16.8522259 31.5216104,16.6569638 30.7373195,16.6228667 C28.0739412,16.5072162 25.374148,16.4593327 22.749534,15.922323 C23.423797,13.6117601 25.7394717,13.0873718 27.8789452,13.0873718 C29.9130896,13.0873718 32.2984617,13.5027504 32.9241715,15.7669832 C33.0220611,16.1220512 33.0866682,16.4863618 33.0866682,16.8543618 M21.9272619,15.4563037 C22.6391146,17.5468666 22.6089646,19.7655072 21.7784698,21.8252353 C21.5745735,22.3308275 21.343253,23.2042643 20.9019971,23.5528468 C20.5884344,23.8005361 19.8517629,23.7697011 19.4604458,23.8528468 C19.1155584,23.9260895 18.7734119,24.0374293 18.4423947,24.1573904 C18.2799282,24.2162642 18.0720108,24.3373516 17.8942133,24.3052351 C17.3604293,24.2088079 16.8413437,23.6396041 16.4454483,23.3105167 C15.0731877,22.1697789 13.8787849,20.5305169 13.5087625,18.7572743 C14.5333496,18.9459345 15.7399359,18.7184394 16.719539,18.4077598 C16.4733544,19.7229441 16.8079107,21.2604974 17.4147805,22.4465944 C17.7699991,23.1408468 18.3770346,23.6968856 19.1863551,23.7669827 L19.0297319,23.6116429 C19.7098231,23.0597206 19.7652286,22.2522255 19.7376991,21.430245 C19.7089195,20.5704781 19.7545361,19.7399927 19.4569519,18.9126141 C19.279305,18.4187889 18.9647633,18.0189054 18.7556412,17.5533909 C19.924909,17.0262841 20.8859131,16.1752939 21.9272619,15.4563037 M27.0566732,17.5145559 C26.849539,17.8990996 26.4681614,18.133352 26.2911771,18.5630996 C25.7954645,19.7664393 25.6220043,21.3433324 25.8741677,22.6407692 C25.9712741,23.1388662 26.3925906,23.9124584 26.9783616,23.9829827 C27.6894311,24.0686138 28.1405061,23.0832158 28.3362851,22.5630993 C28.7677822,21.4168858 29.1068715,19.8959538 28.8092873,18.6796044 C28.7231445,18.3266336 28.4600175,18.0800316 28.348815,17.7475656 L30.7764753,18.0165365 L33.0866682,17.8252355 C33.0807948,19.9262063 31.4440819,21.9941673 30.0708876,23.4563031 C29.7263164,23.8228274 29.4181602,24.2333904 29.0144638,24.5386331 C28.8969963,24.627371 28.7376322,24.7945943 28.5837498,24.8094292 C28.3750494,24.8295457 28.0336107,24.5462836 27.8397894,24.4606137 C27.267723,24.2079147 26.6494528,24.0088468 26.0386221,23.8699342 C25.5472167,23.7581672 25.0499379,23.6947109 24.5507013,23.6281089 C24.3427839,23.6003808 24.0608621,23.6260925 23.8924921,23.4827885 C23.3388289,23.011876 23.1555797,21.8789052 23.0576902,21.2038761 C22.8067014,19.4773908 22.5318276,17.8665559 22.6712223,16.1164978 C23.1140746,16.1921483 23.5455716,16.4723813 23.9633641,16.6368473 C24.9164166,17.0118375 26.02805,17.4333521 27.0566732,17.5145559 M18.2074598,18.4465947 L18.168304,18.4854297 L18.2074598,18.4465947 M17.6201227,19.0812743 C18.6625257,18.92675 18.8592083,20.6800315 17.8942133,20.7938955 C16.956778,20.9044975 16.606213,19.2316044 17.6201227,19.0812743 M22.5929107,19.6504781 C22.7013723,21.0025557 23.1970849,22.3225556 23.767585,23.533973 C22.8763988,23.4222837 22.0333742,23.4613517 21.1441457,23.572808 L22.1880396,21.1650411 L22.5929107,19.6504781 M27.5265429,19.6623228 C28.3370682,19.5547888 28.2266488,21.1770023 27.5265429,21.267177 C27.2062484,21.3084586 27.017909,21.0030994 26.9454707,20.7378567 C26.8174312,20.2697402 26.9889337,19.7336626 27.5265429,19.6623228 M18.912415,20.4088858 C19.3916069,20.3710994 19.5325678,21.2362256 19.0296867,21.2767304 C18.4703459,21.321779 18.3950463,20.4497014 18.912415,20.4088858 M17.8159318,21.0312159 C18.3791129,20.9970411 18.4986887,21.8916042 17.933324,21.9369246 C17.4017085,21.9795265 17.2906265,21.0630994 17.8159318,21.0312159 M26.4301802,21.0281091 C26.9944155,20.9018178 27.0985699,21.9006527 26.5860204,22.0413906 C25.9982916,22.2026721 25.8639872,21.1548664 26.4301802,21.0281091 M27.5265429,21.6090799 C28.0520139,21.4691576 28.1174041,22.3128469 27.6823831,22.4549051 C27.2332659,22.6015459 27.0351375,21.7399537 27.5265429,21.6090799 M21.6531712,26.4077592 C22.1551487,26.315332 22.3505362,26.7006912 22.4754433,27.1456233 C22.7929969,27.188031 23.1645856,27.3110213 23.3537081,26.9479534 C23.4790067,26.706633 23.3055465,26.3335845 23.6501176,26.2422447 C24.5303403,26.0091961 23.8388486,27.2919533 24.5671467,27.2851572 C25.4567668,27.2768824 26.0366643,25.7826331 25.2147838,25.2955263 C24.3247722,24.7679535 22.8587787,25.0622059 21.8881061,25.1584778 C21.4960661,25.1973515 21.0785145,25.1987108 20.7134318,25.3665554 C20.0526774,25.6703612 19.992257,26.4659728 20.3267229,27.0297009 C20.8519229,27.9148271 21.8650042,27.2898951 21.6531712,26.4077592 M17.1894087,33.5922233 C16.5932916,34.4291209 15.7402823,35.1374704 15.6298629,36.2330043 C15.3501699,39.0069847 18.9607273,39.1471788 20.9092108,38.8236837 C21.2553482,38.766208 21.5986242,38.6415478 21.9272619,38.5223245 C22.6696561,38.2520333 24.2002568,37.5588294 24.2730866,36.6601887 C24.3380852,35.8559169 23.1132914,35.3413538 23.57533,34.5631015 C23.6512923,34.4353345 23.7444831,34.3207669 23.8474629,34.2135824 C23.9931225,34.0617378 24.1497458,33.9207669 24.3157664,33.7910582 C24.6411512,33.5368835 25.1826761,33.1478738 25.6079082,33.1088058 C25.8553729,33.0860874 26.1486499,33.2323398 26.3910244,33.2813883 C26.9435129,33.3931165 27.5124468,33.4728835 28.0747243,33.5110971 C29.6315594,33.6168058 31.1136068,33.2223592 32.3427077,32.248534 C33.2315447,31.5443787 34.2190542,30.011874 33.2252797,28.9825163 C33.0710058,28.8230212 32.2279812,28.286594 32.0944599,28.7031377 C32.011058,28.9641862 32.6911945,29.1917979 32.8388119,29.3607687 C33.2053103,29.7800682 33.1242577,30.3367672 32.886582,30.7961069 C32.5357459,31.4738545 31.9131685,31.9526117 31.246345,32.3041845 C29.433431,33.2596796 27.4948267,33.0954854 25.5687524,32.6172719 C24.8271413,32.4331554 23.9026726,32.3402233 23.3176848,31.8052331 C23.0494675,31.5598739 22.7217333,31.1605341 22.6508613,30.7961069 C22.4691783,29.8610779 23.1195564,28.8027882 22.7886898,27.8834873 C22.5099004,28.0407688 22.5302614,28.4205358 22.5110751,28.6990212 C22.4648712,29.3656619 22.534177,30.0996798 22.2303279,30.718437 C22.0110553,31.1647283 21.6422076,31.4634855 21.2616131,31.7700875 C20.1072094,32.6999903 18.1516628,33.1839126 16.6803832,33.0839126 C15.2709246,32.988068 13.5421955,31.879602 13.1083491,30.4854274 C12.9282324,29.9065924 13.0680186,29.2255066 13.3436755,28.6990212 C13.4609472,28.4750601 13.6577051,28.2717591 13.749405,28.0388271 C13.8223102,27.8536232 13.7493297,27.61273 13.5087173,27.6680698 C13.2585116,27.7256232 13.0316489,28.0383611 12.8884892,28.2330018 C12.4007584,28.8960697 12.2276144,29.8156798 12.4807568,30.6019322 C12.9356268,32.0148641 14.5058652,33.3350971 15.9755786,33.5693495 C16.3546068,33.6297378 16.8148834,33.6977378 17.1894087,33.5922233 M22.7886898,27.9999921 L22.6712223,28.9320309 L22.6320665,28.9320309 C22.6320665,28.6217785 22.581164,28.2573902 22.7886898,27.9999921 M25.6055588,28.152963 C25.2735176,28.1796426 24.9610542,28.7311377 25.4121291,28.6878756 C25.6588107,28.6642251 25.9336845,28.1266329 25.6055588,28.152963 M18.0899924,28.3883416 L18.4815505,28.3106717 L18.4815505,28.3495067 L18.2857715,28.5048465 C18.8728677,28.4399533 18.3889771,27.905895 18.0899924,28.3883416 M28.3096592,28.4660115 L28.544594,28.4660115 C28.4592344,28.8377396 29.0587098,28.7048464 29.0587098,28.4310601 C29.0587098,28.0981669 28.3875792,28.2274484 28.3096592,28.4660115 M25.5687524,28.3106717 C25.5233316,28.4621669 25.4489356,28.5124581 25.2946617,28.5436814 C25.343998,28.3844581 25.3992077,28.3240309 25.5687524,28.3106717 M16.3671367,28.3883416 L16.3671367,28.5436814 C15.7062167,28.4235261 15.9330945,29.4038367 16.3892898,28.886827 C16.4406291,28.8286134 16.4600113,28.7702057 16.4846041,28.6990212 L16.6803832,28.854361 C16.6519952,28.6568853 16.5698433,28.4491571 16.3671367,28.3883416 M28.8578405,28.4271766 L28.6229057,28.5825164 L28.6620615,28.4271766 L28.8578405,28.4271766 M16.4454483,28.5436814 L16.4454483,28.6213513 L16.3671367,28.6213513 L16.3671367,28.5436814 L16.4454483,28.5436814 M16.2888251,28.6213513 L16.0538902,28.8931959 L16.2888251,28.6213513 M19.4604458,30.1747478 L19.6953807,30.1747478 C19.6413005,31.1457768 20.9928838,29.7701653 20.1269078,29.7142818 C20.0549364,29.7096216 19.9980099,29.7279188 19.9303155,29.7475633 C19.7771711,29.6217381 19.5062581,30.0421264 19.4604458,30.1747478 M20.2044062,29.9417381 C20.1905511,30.0070585 20.1794218,30.0741264 20.1548741,30.1366895 C19.9726038,30.601738 19.6267676,30.0870585 19.9715797,29.9670973 C20.0461716,29.9411167 20.1266819,29.9435633 20.2044062,29.9417381 M17.1110971,30.5242623 C17.1494698,30.7629419 17.359345,30.7967671 17.5328805,30.6299322 C17.9070444,30.2702429 17.2797382,29.8030973 17.1179795,30.1425148 C17.0169575,30.3544759 17.5128659,30.200573 17.4115728,30.4458934 C17.3527939,30.588107 17.2272694,30.5638351 17.1110971,30.5242623 M24.0808315,30.2135827 C24.0585127,30.4164177 23.8780044,30.4992526 23.6892734,30.5242623 L23.767585,30.1359128 C23.4942775,30.2817769 23.4895788,30.7553302 23.8850525,30.654204 C24.1031504,30.5984759 24.4982325,30.1192915 24.0808315,30.2135827 M14.9183717,30.2135827 L15.1533065,30.4854274 C15.0218484,30.499169 14.9608105,30.5108254 14.9183717,30.6407672 C15.3782567,30.7256992 15.3640702,30.2377769 14.9183717,30.2135827 M29.9933591,30.5242623 C30.1871803,30.4849613 30.4260308,30.5176604 30.1891381,30.718437 L30.2282939,30.6019322 C30.1597713,30.6225147 29.9859195,30.6999516 30.0975135,30.7950584 C30.2882023,30.9572331 30.5501547,30.6425924 30.4726262,30.4539322 C30.3778691,30.2225924 29.9506792,30.2410779 29.9933591,30.5242623 M26.90005,30.4854274 L27.095829,30.6796021 C26.8452318,30.7614273 26.6944819,31.1037962 27.0562816,31.0030196 C27.4717248,30.8871361 27.2148627,30.5025147 26.90005,30.4854274 M27.1349848,30.718437 L26.90005,30.9126118 L27.1349848,30.718437 M22.3579758,30.9902817 C22.7487508,32.332534 23.9841167,32.508767 25.0988826,32.9320291 C24.323206,33.4429417 23.110159,33.7980485 23.0385038,34.9192179 C22.9872097,35.7269849 24.5503097,36.1930043 23.7993013,37.0485382 C23.6971046,37.1646547 23.5808118,37.2679556 23.4543386,37.3576644 C21.9934352,38.3941692 20.3004885,38.7852371 18.5207063,38.5071789 C17.894123,38.4093148 17.2004778,38.2547517 16.7201263,37.8186352 C15.9620999,37.1304799 16.1695956,35.9366936 16.5409433,35.1067907 C16.7831973,34.5654316 17.1953122,33.8629029 17.7375901,33.5754854 C17.9998888,33.4363786 18.3521707,33.4288446 18.6381738,33.3531942 C19.1448048,33.2191747 19.6542671,33.0319126 20.1260946,32.8055049 C20.7351934,32.5131554 21.2894439,32.1654661 21.7702471,31.6887282 C21.9871703,31.4734661 22.1390949,31.1989419 22.3579758,30.9902817 M23.0627804,32.271835 C22.8231469,31.9051166 21.8947626,32.3883787 21.6140154,32.5397961 C20.4405911,33.1730388 19.4246182,34.4834898 18.9972325,35.7281499 C18.8919335,36.0345577 18.4641262,37.2500916 19.069475,37.3091207 C19.2377998,37.3258197 19.360237,37.1887324 19.4214858,37.0485382 C19.6080933,36.6205771 19.6858929,36.1840722 19.9244422,35.7669849 C20.4562534,34.8372762 20.9737275,33.7805728 21.7318744,33.009699 C22.0987644,32.6370389 22.5228218,32.3144369 23.0627804,32.271835 Z" id="path641"></path>
            </g>
        </g>
    </g>
</svg>