<?xml version="1.0" encoding="UTF-8"?>
<svg width="861px" height="627px" viewBox="0 0 861 627" version="1.1" xmlns="http://www.w3.org/2000/svg" xmlns:xlink="http://www.w3.org/1999/xlink">
    <!-- Generator: Sketch 63.1 (92452) - https://sketch.com -->
    <title>slide1</title>
    <desc>Created with Sketch.</desc>
    <defs>
        <filter x="-19.7%" y="-271.9%" width="139.4%" height="643.7%" filterUnits="objectBoundingBox" id="filter-1">
            <feGaussianBlur stdDeviation="3.061617e-15 50" in="SourceGraphic"></feGaussianBlur>
        </filter>
        <filter x="-28.2%" y="-38.1%" width="156.4%" height="180.7%" filterUnits="objectBoundingBox" id="filter-2">
            <feOffset dx="0" dy="0" in="SourceAlpha" result="shadowOffsetOuter1"></feOffset>
            <feGaussianBlur stdDeviation="30" in="shadowOffsetOuter1" result="shadowBlurOuter1"></feGaussianBlur>
            <feColorMatrix values="0 0 0 0 0.506793478   0 0 0 0 0.506793478   0 0 0 0 0.506793478  0 0 0 0.39376639 0" type="matrix" in="shadowBlurOuter1" result="shadowMatrixOuter1"></feColorMatrix>
            <feMerge>
                <feMergeNode in="shadowMatrixOuter1"></feMergeNode>
                <feMergeNode in="SourceGraphic"></feMergeNode>
            </feMerge>
        </filter>
        <rect id="path-3" x="0" y="0" width="623.078044" height="435.87206" rx="34"></rect>
        <filter x="-15.4%" y="-19.7%" width="130.8%" height="144.0%" filterUnits="objectBoundingBox" id="filter-4">
            <feOffset dx="0" dy="10" in="SourceAlpha" result="shadowOffsetOuter1"></feOffset>
            <feGaussianBlur stdDeviation="15" in="shadowOffsetOuter1" result="shadowBlurOuter1"></feGaussianBlur>
            <feColorMatrix values="0 0 0 0 0.0668623794   0 0 0 0 0.0856512012   0 0 0 0 0.106148098  0 0 0 0.06 0" type="matrix" in="shadowBlurOuter1" result="shadowMatrixOuter1"></feColorMatrix>
            <feOffset dx="0" dy="10" in="SourceAlpha" result="shadowOffsetOuter2"></feOffset>
            <feGaussianBlur stdDeviation="30" in="shadowOffsetOuter2" result="shadowBlurOuter2"></feGaussianBlur>
            <feColorMatrix values="0 0 0 0 0.0356771977   0 0 0 0 0.0432663935   0 0 0 0 0.0515455163  0 0 0 0.08 0" type="matrix" in="shadowBlurOuter2" result="shadowMatrixOuter2"></feColorMatrix>
            <feMorphology radius="0.5" operator="dilate" in="SourceAlpha" result="shadowSpreadOuter3"></feMorphology>
            <feOffset dx="0" dy="0" in="shadowSpreadOuter3" result="shadowOffsetOuter3"></feOffset>
            <feColorMatrix values="0 0 0 0 0.0907525304   0 0 0 0 0.116648778   0 0 0 0 0.14489923  0 0 0 0.02 0" type="matrix" in="shadowOffsetOuter3" result="shadowMatrixOuter3"></feColorMatrix>
            <feMerge>
                <feMergeNode in="shadowMatrixOuter1"></feMergeNode>
                <feMergeNode in="shadowMatrixOuter2"></feMergeNode>
                <feMergeNode in="shadowMatrixOuter3"></feMergeNode>
            </feMerge>
        </filter>
        <linearGradient x1="50%" y1="22.4951682%" x2="48.2085812%" y2="107.753309%" id="linearGradient-5">
            <stop stop-color="#FFFFFF" stop-opacity="0.5" offset="0%"></stop>
            <stop stop-color="#C5CBD7" stop-opacity="0.5" offset="100%"></stop>
        </linearGradient>
        <rect id="path-6" x="0" y="0" width="573.452359" height="358.62891"></rect>
        <rect id="path-8" x="124.064212" y="0" width="512.798744" height="8.27605178" rx="4.13802589"></rect>
        <filter x="-18.5%" y="-1027.1%" width="137.1%" height="2395.8%" filterUnits="objectBoundingBox" id="filter-9">
            <feOffset dx="0" dy="10" in="SourceAlpha" result="shadowOffsetOuter1"></feOffset>
            <feGaussianBlur stdDeviation="15" in="shadowOffsetOuter1" result="shadowBlurOuter1"></feGaussianBlur>
            <feComposite in="shadowBlurOuter1" in2="SourceAlpha" operator="out" result="shadowBlurOuter1"></feComposite>
            <feColorMatrix values="0 0 0 0 0.203921569   0 0 0 0 0.247058824   0 0 0 0 0.294117647  0 0 0 0.06 0" type="matrix" in="shadowBlurOuter1" result="shadowMatrixOuter1"></feColorMatrix>
            <feOffset dx="0" dy="10" in="SourceAlpha" result="shadowOffsetOuter2"></feOffset>
            <feGaussianBlur stdDeviation="30" in="shadowOffsetOuter2" result="shadowBlurOuter2"></feGaussianBlur>
            <feComposite in="shadowBlurOuter2" in2="SourceAlpha" operator="out" result="shadowBlurOuter2"></feComposite>
            <feColorMatrix values="0 0 0 0 0.203921569   0 0 0 0 0.247058824   0 0 0 0 0.294117647  0 0 0 0.08 0" type="matrix" in="shadowBlurOuter2" result="shadowMatrixOuter2"></feColorMatrix>
            <feMerge>
                <feMergeNode in="shadowMatrixOuter1"></feMergeNode>
                <feMergeNode in="shadowMatrixOuter2"></feMergeNode>
            </feMerge>
        </filter>
        <linearGradient x1="50%" y1="-2.48949813e-15%" x2="50%" y2="100%" id="linearGradient-10">
            <stop stop-color="#F7F7F9" offset="0%"></stop>
            <stop stop-color="#ECEDF0" offset="100%"></stop>
        </linearGradient>
        <path d="M0.00156965886,0 L760.928739,0 L760.928739,4.07470832 C760.928739,4.07470832 726.724388,11.2922059 704.410597,12.903243 C682.096807,14.5142801 601.023754,15.6197152 601.023754,15.6197152 L159.906554,15.6197152 C159.906554,15.6197152 114.158413,17.0647094 56.5197108,12.903243 C-1.11899117,8.74177667 0.00156965886,4.07470832 0.00156965886,4.07470832 L0.00156965886,0 Z" id="path-11"></path>
        <filter x="-12.6%" y="-542.2%" width="125.2%" height="1310.4%" filterUnits="objectBoundingBox" id="filter-12">
            <feOffset dx="0" dy="10" in="SourceAlpha" result="shadowOffsetOuter1"></feOffset>
            <feGaussianBlur stdDeviation="15" in="shadowOffsetOuter1" result="shadowBlurOuter1"></feGaussianBlur>
            <feColorMatrix values="0 0 0 0 0.203921569   0 0 0 0 0.247058824   0 0 0 0 0.294117647  0 0 0 0.06 0" type="matrix" in="shadowBlurOuter1" result="shadowMatrixOuter1"></feColorMatrix>
            <feOffset dx="0" dy="10" in="SourceAlpha" result="shadowOffsetOuter2"></feOffset>
            <feGaussianBlur stdDeviation="30" in="shadowOffsetOuter2" result="shadowBlurOuter2"></feGaussianBlur>
            <feColorMatrix values="0 0 0 0 0.203921569   0 0 0 0 0.247058824   0 0 0 0 0.294117647  0 0 0 0.08 0" type="matrix" in="shadowBlurOuter2" result="shadowMatrixOuter2"></feColorMatrix>
            <feMorphology radius="0.5" operator="dilate" in="SourceAlpha" result="shadowSpreadOuter3"></feMorphology>
            <feOffset dx="0" dy="0" in="shadowSpreadOuter3" result="shadowOffsetOuter3"></feOffset>
            <feGaussianBlur stdDeviation="1" in="shadowOffsetOuter3" result="shadowBlurOuter3"></feGaussianBlur>
            <feColorMatrix values="0 0 0 0 0.203921569   0 0 0 0 0.247058824   0 0 0 0 0.294117647  0 0 0 0.02 0" type="matrix" in="shadowBlurOuter3" result="shadowMatrixOuter3"></feColorMatrix>
            <feMerge>
                <feMergeNode in="shadowMatrixOuter1"></feMergeNode>
                <feMergeNode in="shadowMatrixOuter2"></feMergeNode>
                <feMergeNode in="shadowMatrixOuter3"></feMergeNode>
            </feMerge>
        </filter>
        <linearGradient x1="100%" y1="50%" x2="0%" y2="50%" id="linearGradient-13">
            <stop stop-color="#EFF0F2" offset="0%"></stop>
            <stop stop-color="#FFFFFF" offset="32.1657577%"></stop>
            <stop stop-color="#FFFFFF" offset="66.3472877%"></stop>
            <stop stop-color="#ECEDF0" offset="100%"></stop>
        </linearGradient>
        <path d="M307.403548,0 L453.523621,0 L453.523621,4.48286138 C453.523621,4.48286138 452.202932,5.6493613 432.846252,5.86220334 C413.489572,6.07504538 347.43742,6.09060485 328.080917,5.86220334 C308.724415,5.63380183 307.403548,4.13802589 307.403548,4.13802589 L307.403548,0 Z" id="path-14"></path>
    </defs>
    <g id="banner-image" stroke="none" stroke-width="1" fill="none" fill-rule="evenodd">
        <g id="Desktop" transform="translate(-516.000000, -15.000000)">
            <g id="slide1" transform="translate(567.000000, 82.000000)">
                <g id="MacBook-&amp;-iPhone">
                    <g id="MacBook">
                        <polygon id="shadow" fill-opacity="0.15" fill="#343F4B" filter="url(#filter-1)" points="0 422.31068 760.927169 422.31068 574.83085 477.484358 186.096318 477.484358"></polygon>
                        <g id="display" filter="url(#filter-2)" transform="translate(68.429224, 0.000000)">
                            <g id="display-panel">
                                <use fill="black" fill-opacity="1" filter="url(#filter-4)" xlink:href="#path-3"></use>
                                <use fill="#FDFEFF" fill-rule="evenodd" xlink:href="#path-3"></use>
                            </g>
                            <g id="request-account_s1" transform="translate(24.812842, 33.104207)">
                                <mask id="mask-7" fill="white">
                                    <use xlink:href="#path-6"></use>
                                </mask>
                                <g id="Mask">
                                    <use fill="#FFFFFF" xlink:href="#path-6"></use>
                                    <use stroke="#D3D3D3" stroke-width="1" fill="url(#linearGradient-5)" xlink:href="#path-6"></use>
                                </g>
                            </g>
                        </g>
                        <g id="panel" transform="translate(0.000000, 422.310680)">
                            <g id="shadow">
                                <use fill="black" fill-opacity="1" filter="url(#filter-9)" xlink:href="#path-8"></use>
                                <use fill-opacity="0" fill="#FFFFFF" fill-rule="evenodd" xlink:href="#path-8"></use>
                            </g>
                            <g>
                                <use fill="black" fill-opacity="1" filter="url(#filter-12)" xlink:href="#path-11"></use>
                                <use fill="url(#linearGradient-10)" fill-rule="evenodd" xlink:href="#path-11"></use>
                            </g>
                            <g id="border">
                                <g id="center">
                                    <use fill="url(#linearGradient-13)" xlink:href="#path-14"></use>
                                    <use fill-opacity="0.5" fill="#F3F4F6" xlink:href="#path-14"></use>
                                </g>
                                <rect id="left" fill="#FDFDFD" x="0" y="0" width="307.403548" height="4.13802589"></rect>
                                <rect id="right" fill="#FDFDFD" x="453.523621" y="0" width="307.403548" height="4.13802589"></rect>
                            </g>
                        </g>
                    </g>
                </g>
                <g id="Group-4" transform="translate(128.000000, 41.000000)">
                    <g id="hands-solid" transform="translate(182.000000, 246.000000)" fill="#003366" fill-rule="nonzero">
                        <path d="M45.76,37.1428571 C43.3915625,33.9955357 38.9004687,33.3482143 35.75,35.7142857 C32.5995312,38.0803571 31.9515625,42.5669643 34.32,45.7142857 L42.8329687,57.0535714 C43.9054687,58.4821429 43.7490625,60.46875 42.4978125,61.71875 L39.6378125,64.5758929 C38.1407812,66.0714286 35.7053125,65.9598214 34.3646875,64.3303571 L14.3,40.2678571 L14.3,7.14285714 C14.3,3.19196429 11.1048437,0 7.15,0 C3.19515625,0 0,3.19196429 0,7.14285714 L0,55.8928571 C0,58.3258929 0.82671875,60.6919643 2.34609375,62.5892857 L25.6059375,92.5669643 C26.723125,94.0178571 27.4828125,95.6696429 27.9296875,97.4107143 C28.331875,98.9508929 29.7395312,100 31.3482812,100 L60.775,100 C62.74125,100 64.35,98.3928571 64.35,96.4285714 L64.35,71.4285714 C64.35,65.2455357 62.3390625,59.2410714 58.63,54.2857143 L45.76,37.1428571 Z M135.85,0 C131.895156,0 128.7,3.19196429 128.7,7.14285714 L128.7,40.2678571 L108.635312,64.3303571 C107.294687,65.9375 104.836875,66.0491071 103.362187,64.5758929 L100.502187,61.71875 C99.2509375,60.46875 99.0945312,58.4821429 100.167031,57.0535714 L108.68,45.7142857 C111.048437,42.5669643 110.400469,38.0803571 107.25,35.7142857 C104.099531,33.3482143 99.6084375,33.9955357 97.24,37.1428571 L84.37,54.2857143 C80.6609375,59.2410714 78.65,65.2455357 78.65,71.4285714 L78.65,96.4285714 C78.65,98.3928571 80.25875,100 82.225,100 L111.651719,100 C113.238125,100 114.668125,98.9508929 115.070312,97.4107143 C115.517187,95.6696429 116.276875,94.0178571 117.394062,92.5669643 L140.653906,62.5892857 C142.173281,60.6919643 143,58.3258929 143,55.8928571 L143,7.14285714 C143,3.19196429 139.804844,0 135.85,0 Z" id="Shape"></path>
                    </g>
                    <g id="share-alt-solid" transform="translate(456.000000, 134.000000)" fill="#003366" fill-rule="nonzero">
                        <path d="M36.1428571,34.375 C33.8215,34.375 31.687942,35.2149316 30.0037054,36.6195801 L19.4805893,29.7387793 C19.7922195,28.2640278 19.7922195,26.7358647 19.4805893,25.2611133 L30.0037054,18.3803125 C31.687942,19.7850684 33.8215,20.625 36.1428571,20.625 C41.5867723,20.625 46,16.0079004 46,10.3125 C46,4.61709961 41.5867723,0 36.1428571,0 C30.698942,0 26.2857143,4.61709961 26.2857143,10.3125 C26.2857143,11.0814258 26.3668304,11.8303711 26.5194107,12.5512793 L15.9962946,19.4320801 C14.312058,18.0274316 12.1785,17.1875 9.85714286,17.1875 C4.41322768,17.1875 0,21.8045996 0,27.5 C0,33.1954004 4.41322768,37.8125 9.85714286,37.8125 C12.1785,37.8125 14.312058,36.9725684 15.9962946,35.5679199 L26.5194107,42.4487207 C26.3638684,43.1838593 26.2855054,43.9345664 26.2857143,44.6875 C26.2857143,50.3829004 30.698942,55 36.1428571,55 C41.5867723,55 46,50.3829004 46,44.6875 C46,38.9920996 41.5867723,34.375 36.1428571,34.375 Z" id="Path"></path>
                    </g>
                    <g id="verified_user-24px" transform="translate(0.000000, 120.000000)">
                        <polygon id="Path" points="0 0 67 0 67 67 0 67"></polygon>
                        <path d="M33.0649351,2.61038961 L7.83116883,13.6847698 L7.83116883,30.29634 C7.83116883,45.6620425 18.5975758,60.0310508 33.0649351,63.5194805 C47.5322944,60.0310508 58.2987013,45.6620425 58.2987013,30.29634 L58.2987013,13.6847698 L33.0649351,2.61038961 Z M27.4574315,46.9079103 L16.2424242,35.8335301 L20.1957143,31.9298111 L27.4574315,39.0727863 L45.9341558,20.827745 L49.8874459,24.7591499 L27.4574315,46.9079103 Z" id="Shape" fill="#003366" fill-rule="nonzero"></path>
                    </g>
                    <g id="dvr-24px" transform="translate(193.000000, 138.000000)">
                        <polygon id="Path" points="0 0 121 0 121 121 0 121"></polygon>
                        <path d="M105.615942,14.9057971 L14.5072464,14.9057971 C8.93949275,14.9057971 4.38405797,19.4652174 4.38405797,25.0378422 L4.38405797,85.8301127 C4.38405797,91.4027375 8.93949275,95.9621578 14.5072464,95.9621578 L39.8152174,95.9621578 L39.8152174,106.094203 L80.307971,106.094203 L80.307971,95.9621578 L105.615942,95.9621578 C111.183696,95.9621578 115.688514,91.4027375 115.688514,85.8301127 L115.73913,25.0378422 C115.73913,19.4652174 111.183696,14.9057971 105.615942,14.9057971 Z M105.615942,85.8301127 L14.5072464,85.8301127 L14.5072464,25.0378422 L105.615942,25.0378422 L105.615942,85.8301127 Z M95.4927536,40.2359098 L39.8152174,40.2359098 L39.8152174,50.3679549 L95.4927536,50.3679549 L95.4927536,40.2359098 Z M95.4927536,60.5 L39.8152174,60.5 L39.8152174,70.6320451 L95.4927536,70.6320451 L95.4927536,60.5 Z M34.7536232,40.2359098 L24.6304348,40.2359098 L24.6304348,50.3679549 L34.7536232,50.3679549 L34.7536232,40.2359098 Z M34.7536232,60.5 L24.6304348,60.5 L24.6304348,70.6320451 L34.7536232,70.6320451 L34.7536232,60.5 Z" id="Shape" fill="#003366" fill-rule="nonzero"></path>
                    </g>
                    <g id="Group-2" transform="translate(119.000000, 9.000000)">
                        <g id="Group">
                            <ellipse id="Oval" fill="#003366" cx="28.3430233" cy="28.2792208" rx="28.3430233" ry="28.2792208"></ellipse>
                            <line x1="29.4125713" y1="3.86838397" x2="29.4125713" y2="7.8701605" id="Line" stroke="#FFFFFF" stroke-width="2" stroke-linecap="round"></line>
                            <line x1="29.4125713" y1="48.6882811" x2="29.4125713" y2="52.6900576" id="Line" stroke="#FFFFFF" stroke-width="2" stroke-linecap="round"></line>
                            <line x1="11.7650285" y1="11.7385445" x2="13.9041246" y2="13.8728253" id="Line" stroke="#FFFFFF" stroke-width="2" stroke-linecap="round"></line>
                            <line x1="43.8514699" y1="43.7527567" x2="45.990566" y2="45.8870375" id="Line" stroke="#FFFFFF" stroke-width="2" stroke-linecap="round"></line>
                            <line x1="45.990566" y1="11.7385445" x2="43.8514699" y2="13.8728253" id="Line" stroke="#FFFFFF" stroke-width="2" stroke-linecap="round"></line>
                            <line x1="13.9041246" y1="43.7527567" x2="11.7650285" y2="45.8870375" id="Line" stroke="#FFFFFF" stroke-width="2" stroke-linecap="round"></line>
                            <line x1="5.34774024" y1="28.2792208" x2="8.55638438" y2="28.2792208" id="Line" stroke="#FFFFFF" stroke-width="2" stroke-linecap="round"></line>
                            <line x1="50.2687582" y1="28.2792208" x2="53.4774024" y2="28.2792208" id="Line" stroke="#FFFFFF" stroke-width="2" stroke-linecap="round"></line>
                            <polyline id="Path-2" stroke="#FFFFFF" stroke-width="4" stroke-linecap="round" points="28.8777973 16.0071061 28.8777973 28.3567791 34.2255375 34.148493"></polyline>
                        </g>
                        <ellipse id="Oval" fill="#FFFFFF" cx="54.0697674" cy="46.1168831" rx="20.9302326" ry="20.8831169"></ellipse>
                        <ellipse id="Oval" stroke="#003366" stroke-width="2" fill="#FFFFFF" cx="54.505814" cy="46.5519481" rx="17.75" ry="17.7077922"></ellipse>
                        <g id="thumb_up-24px" transform="translate(42.732558, 34.805195)">
                            <polygon id="Path" points="0 0 22.6744186 0 22.6744186 22.6233766 0 22.6233766"></polygon>
                            <path d="M0,20.4687693 L3.92630625,20.4687693 L3.92630625,8.83388992 L0,8.83388992 L0,20.4687693 Z M21.5946844,9.8034632 C21.5946844,8.73693259 20.7112655,7.86431664 19.6315313,7.86431664 L13.4377831,7.86431664 L14.3702809,3.43336673 L14.3997282,3.12310328 C14.3997282,2.72557823 14.2328602,2.35714038 13.9678345,2.0953556 L12.9273633,1.07730365 L6.46858955,7.46679159 C6.10540622,7.81583797 5.88945938,8.30062461 5.88945938,8.83388992 L5.88945938,18.5296228 C5.88945938,19.5961534 6.77287828,20.4687693 7.8526125,20.4687693 L16.6868016,20.4687693 C17.5015101,20.4687693 18.1984295,19.9839827 18.4929024,19.2858899 L21.4572637,12.4503983 C21.5456056,12.2273964 21.5946844,11.9946988 21.5946844,11.7426098 L21.5946844,9.8034632 Z" id="Shape" fill="#003366" fill-rule="nonzero"></path>
                        </g>
                    </g>
                    <g id="Group-3" transform="translate(306.000000, 0.000000)">
                        <g id="cogs-solid" transform="translate(34.782609, 38.681319)" fill="#003366" fill-rule="nonzero">
                            <path d="M21.5716073,8.22170461 L21.2261983,8.83761871 C21.0998291,9.06589457 20.8302416,9.16065059 20.5901403,9.07020166 C20.0930883,8.88068963 19.6381595,8.60934286 19.2379905,8.26908262 C19.0442245,8.10541313 18.9936769,7.81683799 19.120046,7.59286923 L19.465455,6.97695512 C19.1748059,6.63238779 18.9473415,6.23182827 18.7956985,5.79681201 L18.1006683,5.79681201 C17.84793,5.79681201 17.6288902,5.61160707 17.5867671,5.35318157 C17.502521,4.83633058 17.4983087,4.29363703 17.5867671,3.75525057 C17.6288902,3.49682508 17.84793,3.30731304 18.1006683,3.30731304 L18.7956985,3.30731304 C18.9473415,2.87229679 19.1748059,2.47173727 19.465455,2.12716993 L19.120046,1.51125583 C18.9936769,1.28728706 19.0400122,0.998711924 19.2379905,0.835042441 C19.6381595,0.494782201 20.0973007,0.223435428 20.5901403,0.0339233956 C20.8302416,-0.0565255289 21.0998291,0.0382304873 21.2261983,0.266506344 L21.5716073,0.882420449 C22.0138992,0.800585708 22.4646158,0.800585708 22.9069078,0.882420449 L23.2523168,0.266506344 C23.3786859,0.0382304873 23.6482734,-0.0565255289 23.8883748,0.0339233956 C24.3854267,0.223435428 24.8403556,0.494782201 25.2405245,0.835042441 C25.4342905,0.998711924 25.4848382,1.28728706 25.3584691,1.51125583 L25.0130601,2.12716993 C25.3037091,2.47173727 25.5311736,2.87229679 25.6828165,3.30731304 L26.3778468,3.30731304 C26.630585,3.30731304 26.8496249,3.49251798 26.8917479,3.75094348 C26.975994,4.26779448 26.9802063,4.81048803 26.8917479,5.34887448 C26.8496249,5.60729998 26.630585,5.79681201 26.3778468,5.79681201 L25.6828165,5.79681201 C25.5311736,6.23182827 25.3037091,6.63238779 25.0130601,6.97695512 L25.3584691,7.59286923 C25.4848382,7.81683799 25.4385028,8.10541313 25.2405245,8.26908262 C24.8403556,8.60934286 24.3812144,8.88068963 23.8883748,9.07020166 C23.6482734,9.16065059 23.3786859,9.06589457 23.2523168,8.83761871 L22.9069078,8.22170461 C22.4688281,8.30353935 22.0138992,8.30353935 21.5716073,8.22170461 L21.5716073,8.22170461 Z M21.1293153,5.68913472 C22.7510525,6.96403385 24.6002542,5.07322062 23.3534121,3.41499034 C21.7316748,2.13578412 19.8824731,4.03090444 21.1293153,5.68913472 L21.1293153,5.68913472 Z M16.2725281,12.3177488 L17.6920747,13.0413402 C18.1175175,13.2911515 18.3028589,13.8209237 18.1343667,14.2947038 C17.7594716,15.33702 17.0223183,16.2931943 16.339925,17.1287701 C16.0282144,17.5121013 15.4890394,17.6068573 15.0635967,17.357046 L13.8378161,16.6334546 C13.1638473,17.2235261 12.3803587,17.6929991 11.5252608,17.9988026 L11.5252608,19.4459854 C11.5252608,19.9456081 11.1756396,20.3763172 10.6954368,20.4624591 C9.65920992,20.6433569 8.57243534,20.6519711 7.49829767,20.4624591 C7.01388265,20.3763172 6.65583676,19.9499152 6.65583676,19.4459854 L6.65583676,17.9988026 C5.80073893,17.688692 5.01725028,17.2235261 4.34328155,16.6334546 L3.11750092,17.3527389 C2.69627046,17.6025502 2.15288317,17.5077942 1.84117263,17.124463 C1.15877929,16.2888873 0.438475208,15.3327129 0.0635801009,14.2947038 C-0.104912082,13.8252308 0.0804293192,13.2954586 0.505872081,13.0413402 L1.9085695,12.3177488 C1.74428963,11.4175666 1.74428963,10.4915419 1.9085695,9.58705266 L0.505872081,8.85915417 C0.0804293192,8.60934286 -0.109124387,8.07957058 0.0635801009,7.6100976 C0.438475208,6.56778142 1.15877929,5.61160707 1.84117263,4.77603129 C2.15288317,4.39270014 2.69205815,4.29794412 3.11750092,4.54775544 L4.34328155,5.27134683 C5.01725028,4.68127528 5.80073893,4.21180229 6.65583676,3.90599878 L6.65583676,2.4545089 C6.65583676,1.95919336 7.00124573,1.5284842 7.48144845,1.44234236 C8.51767538,1.26144451 9.60866226,1.25283033 10.6827999,1.43803527 C11.167215,1.5241771 11.5252608,1.95057918 11.5252608,2.4545089 L11.5252608,3.90169169 C12.3803587,4.21180229 13.1638473,4.67696819 13.8378161,5.26703974 L15.0635967,4.54344835 C15.4848271,4.29363703 16.0282144,4.38839305 16.339925,4.7717242 C17.0223183,5.60729998 17.7384101,6.56347433 18.1133052,7.6057905 C18.2817974,8.07526349 18.1175175,8.60503576 17.6920747,8.85915417 L16.2725281,9.58274557 C16.436808,10.4872348 16.436808,11.4132595 16.2725281,12.3177488 Z M11.3188579,13.2265451 C13.8125422,9.91008453 10.1099265,6.12415098 6.86645199,8.67394923 C4.37276768,11.9904098 8.0753834,15.7763433 11.3188579,13.2265451 Z M21.5716073,21.0956015 L21.2261983,21.7115156 C21.0998291,21.9397915 20.8302416,22.0345475 20.5901403,21.9440986 C20.0930883,21.7545866 19.6381595,21.4832398 19.2379905,21.1429795 C19.0442245,20.9793101 18.9936769,20.6907349 19.120046,20.4667661 L19.465455,19.850852 C19.1748059,19.5062847 18.9473415,19.1057252 18.7956985,18.6707089 L18.1006683,18.6707089 C17.84793,18.6707089 17.6288902,18.485504 17.5867671,18.2270785 C17.502521,17.7102275 17.4983087,17.167534 17.5867671,16.6291475 C17.6288902,16.370722 17.84793,16.18121 18.1006683,16.18121 L18.7956985,16.18121 C18.9473415,15.7461937 19.1748059,15.3456342 19.465455,15.0010669 L19.120046,14.3851527 C18.9936769,14.161184 19.0400122,13.8726088 19.2379905,13.7089394 C19.6381595,13.3686791 20.0973007,13.0973323 20.5901403,12.9078203 C20.8302416,12.8173714 21.0998291,12.9121274 21.2261983,13.1404033 L21.5716073,13.7563174 C22.0138992,13.6744826 22.4646158,13.6744826 22.9069078,13.7563174 L23.2523168,13.1404033 C23.3786859,12.9121274 23.6482734,12.8173714 23.8883748,12.9078203 C24.3854267,13.0973323 24.8403556,13.3686791 25.2405245,13.7089394 C25.4342905,13.8726088 25.4848382,14.161184 25.3584691,14.3851527 L25.0130601,15.0010669 C25.3037091,15.3456342 25.5311736,15.7461937 25.6828165,16.18121 L26.3778468,16.18121 C26.630585,16.18121 26.8496249,16.3664149 26.8917479,16.6248404 C26.975994,17.1416914 26.9802063,17.6843849 26.8917479,18.2227714 C26.8496249,18.4811969 26.630585,18.6707089 26.3778468,18.6707089 L25.6828165,18.6707089 C25.5311736,19.1057252 25.3037091,19.5062847 25.0130601,19.850852 L25.3584691,20.4667661 C25.4848382,20.6907349 25.4385028,20.9793101 25.2405245,21.1429795 C24.8403556,21.4832398 24.3812144,21.7545866 23.8883748,21.9440986 C23.6482734,22.0345475 23.3786859,21.9397915 23.2523168,21.7115156 L22.9069078,21.0956015 C22.4688281,21.1774363 22.0138992,21.1774363 21.5716073,21.0956015 Z M21.1293153,18.5587246 C22.7510525,19.8336237 24.6002542,17.9428104 23.3534121,16.2845802 C21.7316748,15.009681 19.8824731,16.9004943 21.1293153,18.5587246 L21.1293153,18.5587246 Z" id="Shape"></path>
                        </g>
                        <ellipse id="Oval" stroke="#003366" stroke-width="3" cx="47.826087" cy="49.2307692" rx="28.9347826" ry="29.2692308"></ellipse>
                        <ellipse id="Oval" fill="#FFFFFF" cx="47.826087" cy="19.3406593" rx="19.1304348" ry="19.3406593"></ellipse>
                        <g id="user-solid" transform="translate(38.260870, 7.032967)" fill="#003366" fill-rule="nonzero">
                            <path d="M9.56521739,10.989011 C12.5842391,10.989011 15.0310559,8.52936126 15.0310559,5.49450549 C15.0310559,2.45964973 12.5842391,0 9.56521739,0 C6.54619565,0 4.09937888,2.45964973 4.09937888,5.49450549 C4.09937888,8.52936126 6.54619565,10.989011 9.56521739,10.989011 Z M13.3913043,12.3626374 L12.6781832,12.3626374 C11.7302019,12.8004808 10.6754658,13.0494505 9.56521739,13.0494505 C8.45496894,13.0494505 7.40450311,12.8004808 6.45225155,12.3626374 L5.73913043,12.3626374 C2.57065217,12.3626374 0,14.946772 0,18.1318681 L0,19.9175824 C0,21.0551168 0.918090062,21.978022 2.04968944,21.978022 L17.0807453,21.978022 C18.2123447,21.978022 19.1304348,21.0551168 19.1304348,19.9175824 L19.1304348,18.1318681 C19.1304348,14.946772 16.5597826,12.3626374 13.3913043,12.3626374 Z" id="Shape"></path>
                        </g>
                        <ellipse id="Oval" fill="#FFFFFF" cx="19.1304348" cy="60.6593407" rx="19.1304348" ry="19.3406593"></ellipse>
                        <g id="user-solid" transform="translate(9.565217, 48.351648)" fill="#003366" fill-rule="nonzero">
                            <path d="M9.56521739,10.989011 C12.5842391,10.989011 15.0310559,8.52936126 15.0310559,5.49450549 C15.0310559,2.45964973 12.5842391,0 9.56521739,0 C6.54619565,0 4.09937888,2.45964973 4.09937888,5.49450549 C4.09937888,8.52936126 6.54619565,10.989011 9.56521739,10.989011 Z M13.3913043,12.3626374 L12.6781832,12.3626374 C11.7302019,12.8004808 10.6754658,13.0494505 9.56521739,13.0494505 C8.45496894,13.0494505 7.40450311,12.8004808 6.45225155,12.3626374 L5.73913043,12.3626374 C2.57065217,12.3626374 0,14.946772 0,18.1318681 L0,19.9175824 C0,21.0551168 0.918090062,21.978022 2.04968944,21.978022 L17.0807453,21.978022 C18.2123447,21.978022 19.1304348,21.0551168 19.1304348,19.9175824 L19.1304348,18.1318681 C19.1304348,14.946772 16.5597826,12.3626374 13.3913043,12.3626374 Z" id="Shape"></path>
                        </g>
                        <ellipse id="Oval" fill="#FFFFFF" cx="80.8695652" cy="60.6593407" rx="19.1304348" ry="19.3406593"></ellipse>
                        <g id="user-solid" transform="translate(71.304348, 48.351648)" fill="#003366" fill-rule="nonzero">
                            <path d="M9.56521739,10.989011 C12.5842391,10.989011 15.0310559,8.52936126 15.0310559,5.49450549 C15.0310559,2.45964973 12.5842391,0 9.56521739,0 C6.54619565,0 4.09937888,2.45964973 4.09937888,5.49450549 C4.09937888,8.52936126 6.54619565,10.989011 9.56521739,10.989011 Z M13.3913043,12.3626374 L12.6781832,12.3626374 C11.7302019,12.8004808 10.6754658,13.0494505 9.56521739,13.0494505 C8.45496894,13.0494505 7.40450311,12.8004808 6.45225155,12.3626374 L5.73913043,12.3626374 C2.57065217,12.3626374 0,14.946772 0,18.1318681 L0,19.9175824 C0,21.0551168 0.918090062,21.978022 2.04968944,21.978022 L17.0807453,21.978022 C18.2123447,21.978022 19.1304348,21.0551168 19.1304348,19.9175824 L19.1304348,18.1318681 C19.1304348,14.946772 16.5597826,12.3626374 13.3913043,12.3626374 Z" id="Shape"></path>
                        </g>
                    </g>
                    <line x1="75.4380165" y1="152.446429" x2="180.561983" y2="176.553571" id="Line-2" stroke="#003366" stroke-width="3" opacity="0.300246466" stroke-linecap="round" stroke-linejoin="round" stroke-dasharray="1,8"></line>
                    <line x1="182.409091" y1="93.4375" x2="208.590909" y2="134.5625" id="Line-2" stroke="#003366" stroke-width="3" opacity="0.300246466" stroke-linecap="round" stroke-linejoin="round" stroke-dasharray="1,8"></line>
                    <line x1="329.553571" y1="93.4375" x2="305" y2="135" id="Line-2" stroke="#003366" stroke-width="3" opacity="0.300246466" stroke-linecap="round" stroke-linejoin="round" stroke-dasharray="1,8"></line>
                    <line x1="439.56" y1="164.416667" x2="330" y2="174" id="Line-2" stroke="#003366" stroke-width="3" opacity="0.300246466" stroke-linecap="round" stroke-linejoin="round" stroke-dasharray="1,8"></line>
                </g>
            </g>
        </g>
    </g>
</svg>