<?xml version="1.0" encoding="UTF-8"?>
<svg width="60px" height="42px" viewBox="0 0 60 42" version="1.1" xmlns="http://www.w3.org/2000/svg" xmlns:xlink="http://www.w3.org/1999/xlink">
    <!-- Generator: Sketch 63.1 (92452) - https://sketch.com -->
    <title>users-solid</title>
    <desc>Created with Sketch.</desc>
    <g id="CSS-Website" stroke="none" stroke-width="1" fill="none" fill-rule="evenodd">
        <g id="our-team" transform="translate(-626.000000, -206.000000)" fill="#38598A" fill-rule="nonzero">
            <g id="users-solid" transform="translate(626.000000, 206.000000)">
                <path d="M9,18 C12.309375,18 15,15.309375 15,12 C15,8.690625 12.309375,6 9,6 C5.690625,6 3,8.690625 3,12 C3,15.309375 5.690625,18 9,18 Z M51,18 C54.309375,18 57,15.309375 57,12 C57,8.690625 54.309375,6 51,6 C47.690625,6 45,8.690625 45,12 C45,15.309375 47.690625,18 51,18 Z M54,21 L48,21 C46.35,21 44.859375,21.665625 43.771875,22.74375 C47.55,24.815625 50.23125,28.55625 50.8125,33 L57,33 C58.659375,33 60,31.659375 60,30 L60,27 C60,23.690625 57.309375,21 54,21 Z M30,21 C35.803125,21 40.5,16.303125 40.5,10.5 C40.5,4.696875 35.803125,0 30,0 C24.196875,0 19.5,4.696875 19.5,10.5 C19.5,16.303125 24.196875,21 30,21 Z M37.2,24 L36.421875,24 C34.471875,24.9375 32.30625,25.5 30,25.5 C27.69375,25.5 25.5375,24.9375 23.578125,24 L22.8,24 C16.8375,24 12,28.8375 12,34.8 L12,37.5 C12,39.984375 14.015625,42 16.5,42 L43.5,42 C45.984375,42 48,39.984375 48,37.5 L48,34.8 C48,28.8375 43.1625,24 37.2,24 Z M16.228125,22.74375 C15.140625,21.665625 13.65,21 12,21 L6,21 C2.690625,21 0,23.690625 0,27 L0,30 C0,31.659375 1.340625,33 3,33 L9.178125,33 C9.76875,28.55625 12.45,24.815625 16.228125,22.74375 Z" id="Shape"></path>
            </g>
        </g>
    </g>
</svg>