<?xml version="1.0" encoding="UTF-8" standalone="no"?>
<svg
   xmlns:dc="http://purl.org/dc/elements/1.1/"
   xmlns:cc="http://creativecommons.org/ns#"
   xmlns:rdf="http://www.w3.org/1999/02/22-rdf-syntax-ns#"
   xmlns:svg="http://www.w3.org/2000/svg"
   xmlns="http://www.w3.org/2000/svg"
   xmlns:sodipodi="http://sodipodi.sourceforge.net/DTD/sodipodi-0.dtd"
   xmlns:inkscape="http://www.inkscape.org/namespaces/inkscape"
   version="1.1"
   id="svg268"
   width="130"
   height="130"
   viewBox="0 0 320.28127 270.04552"
   sodipodi:docname="tokey.svg"
   inkscape:version="1.0beta2 (2b71d25, 2019-12-03)">
  <metadata
     id="metadata274">
    <rdf:RDF>
      <cc:Work
         rdf:about="">
        <dc:format>image/svg+xml</dc:format>
        <dc:type
           rdf:resource="http://purl.org/dc/dcmitype/StillImage" />
        <dc:title />
      </cc:Work>
    </rdf:RDF>
  </metadata>
  <defs
     id="defs272" />
  <sodipodi:namedview
     pagecolor="#ffffff"
     bordercolor="#666666"
     inkscape:document-rotation="0"
     borderopacity="1"
     objecttolerance="10"
     gridtolerance="10"
     guidetolerance="10"
     inkscape:pageopacity="0"
     inkscape:pageshadow="2"
     inkscape:window-width="1721"
     inkscape:window-height="1017"
     id="namedview270"
     showgrid="false"
     inkscape:zoom="0.48081535"
     inkscape:cx="-135.05646"
     inkscape:cy="158.74124"
     inkscape:window-x="0"
     inkscape:window-y="23"
     inkscape:window-maximized="0"
     inkscape:current-layer="g276" />
  <g
     inkscape:groupmode="layer"
     inkscape:label="Image"
     id="g276"
     transform="translate(-877.89187,-675.25876)">
    <path
       style="fill:#1f130d;stroke:none;stroke-width:0.25"
       d="m 968.73448,697.9892 4.75,-0.75 v 0.25 c -3.61775,1.04225 -7.1985,3.383 -10.5,5.17275 -8.01,4.3425 -15.53975,9.17475 -23,14.39725 -22.85575,16.00025 -43.243,36.13225 -53.7945,62.43 -12.2,30.406 -10.36525,67.3515 1.6945,97.49999 4.1245,10.31 9.023,20.185 16.2095,28.75 9.79725,11.6775 23.3965,20.3975 37.1405,26.6725 25.006,11.42 52.59,14.245 79.75002,12.35 27.6725,-1.93 54.555,-8.005 79.75,-19.89 6.8925,-3.25 13.595,-6.9275 20,-11.055 6.02,-3.88 11.245,-7.9775 18,-10.5625 6.94,-2.655 13.9875,-4.8325 20.75,-7.975 2.0275,-0.94 5.9075,-1.915 7.315,-3.6725 1.6675,-2.0825 -1.3775,-2.71 -2.815,-2.3675 3.685,-3.685 7.625,-6.8975 10.8875,-11 5.75,-7.22825 9.8675,-15.6515 13.705,-23.99999 3.1375,-6.82225 6.1975,-13.66475 7.9375,-21 2.7475,-11.598 1.4725,-24.01025 0.49,-35.749 -2.29,-27.358 -8.165,-54.61625 -25.9225,-76.501 -7.9225,-9.763 -17.3575,-17.9005 -28.3475,-24.0345 -5.9975,-3.348 -12.3075,-5.779 -18.5,-8.688 -11.0025,-5.16825 -22.4275,-11.25225 -34.75,-12.7315 -11.5425,-1.3855 -21.29,2.7605 -32.25,5.26025 -2.0025,0.457 -4.46,-0.20725 -6.5,-0.2965 -4.4575,-0.195 -9.055,-0.39025 -13.5,0.0327 -16.0708,1.5295 -31.916,4.86975 -47.50002,8.9865 -5.33625,1.4095 -10.58725,3.1295 -15.75,5.077 -1.81375,0.684 -4.64225,1.3275 -5.25,3.394 m 140.25002,-11 c -2.31,1.41125 -5.68,1.82375 -8.25,2.76325 -1.3675,0.5 -3.015,1.48025 -4.5,1.41725 -2.6975,-0.115 -5.9525,-2.101 -8.5,-3.0075 -6.1375,-2.18425 -12.765,-4.58575 -19.25,-5.423 l 7.5,-1.1885 8.25,-1.298 8.25,2.14275 16.5,4.59375 m 54.5,73.75 h -1 v 0.5 c 1.7425,0.1985 2.11,1.5295 2.7,3 1.125,2.7985 2.2575,5.5945 3.085,8.5 3.615,12.69525 3.64,25.9815 2.035,39 -2.2925,18.6115 -5.0025,37.41925 -13.895,54.24999 -11.845,22.4225 -35.7025,38.0375 -58.425,47.895 -17.42,7.555 -35.4475,12.9575 -54,16.9075 -11.9575,2.5475 -23.9945,4.8225 -36.25,4.9475 -5.843,0.06 -11.65277,0.3775 -17.50002,-0.0225 -16.712,-1.145 -33.29,-5.685 -48.5,-12.65 -10.8395,-4.9625 -21.65625,-11.93 -29.7075,-20.8275 -13.61,-15.0425 -21.334,-34.737 -24.8985,-54.49999 -2.80975,-15.57725 -4.21425,-32.3345 -1.279,-48 2.917,-15.569 10.37975,-30.54125 20.05125,-43 18.3865,-23.685 44.939,-42.23075 71.58375,-55.56175 6.5425,-3.2735 13.1555,-6.44075 20,-9.04425 2.80822,-1.0685 5.78402,-2.493 8.75002,-3.028 17.2442,-3.11 35.8575,0.2335 52.75,3.83125 15.685,3.3405 30.7825,6.75725 45.25,13.991 17.8125,8.90675 34.645,19.357 47.52,34.81175 4.3525,5.2255 9.8225,12.3785 11.73,19 m -34,-66 v 0.25 c -3.8375,-0.19475 -7.7925,1.8135 -11.25,3.253 -1.2575,0.52325 -2.865,1.8125 -4.25,1.801 -1.44,-0.012 -3.2675,-1.5815 -4.5,-2.269 -3.14,-1.752 -6.395,-3.483 -9.75,-4.785 l 12.25,-2.5925 4.75,-1.2965 12.75,5.639 m 0.75,0.5 12.75,7.1375 5.5,3.8625 c -4.53,0 -8.77,1.0245 -13,2.606 -1.6525,0.6175 -4.7675,2.6465 -6.5,2.39675 -1.465,-0.211 -3.1425,-2.27575 -4.25,-3.19025 -2.86,-2.3625 -5.9275,-4.48975 -9,-6.5625 2.8275,-1.78725 6.7975,-2.504 10,-3.394 1.9475,-0.541 3.7175,-0.7725 4.5,-2.856 m -179.25002,27.25 c 1.891,-0.5255 3.515,-2.3165 5.25,-3.2845 3.1495,-1.75725 6.60725,-3.085 10,-4.2925 18.0045,-6.408 36.87352,-11.90425 55.75002,-15.0695 8.795,-1.475 17.6175,-2.19925 26.5,-1.31125 3.3425,0.33425 6.675,0.821 10,1.313 1.845,0.27325 3.9275,0.9325 5.75,0.39475 v -0.5 c -5.9675,-2.22475 -13.4325,-2.6605 -19.75,-3.29225 -23.0035,-2.3 -46.88852,2.18825 -68.25002,10.8915 -6.477,2.63875 -12.84475,5.91625 -18.75,9.664 -2.1275,1.35025 -5.39325,3.16275 -6.5,5.48675 m 23.75,-25.75 -0.25,0.25 0.25,-0.25 m -0.75,0.33325 0.0833,0.0835 c -0.12325,0.041 -0.2765,-0.0835 -0.0833,-0.0835 m 196.50002,30.41675 c -5.21,0.6585 -9.9,1.98575 -14.75,4.003 -1.535,0.638 -4.57,2.92075 -6.24,2.543 -1.0575,-0.2395 -1.8825,-1.755 -2.51,-2.546 -2.0775,-2.622 -5.1125,-5.4705 -6.5,-8.5 4.7125,0 9.3425,-0.0477 14,-0.859 1.27,-0.22125 4.16,-1.337 3.0525,-3.114 -1.1125,-1.79125 -3.6075,-1.1735 -5.3025,-1.04925 -4.85,0.35575 -9.2625,2.32275 -14,3.02225 l -8.25,-8.75 c 5.255,-0.41475 10.5325,-0.6645 15.75,-1.52 2.1525,-0.35325 4.61,-0.3375 5.75,-2.48 2.2,0.98025 4.1325,3.0445 5.9275,4.62525 4.49,3.9485 10.4675,9.14875 13.0725,14.62475 m -232.00002,16 c 1.13225,-0.63475 1.76475,-1.798 3,-2.3705 7.56525,-3.507 16.062,-4.1395 24.2725,-3.89225 14.78575,0.44525 30.57,3.94575 41.47752,14.76275 -3.55,0.43875 -6.3688,-2.82075 -9.73527,-2.45225 -1.3535,0.14825 -0.88075,1.5465 0.0125,2.00125 1.46,0.7435 3.60797,0.9835 5.22277,1.201 v 0.25 c -2.79002,0.37575 -5.67602,2.103 -8.50002,1.49625 -1.972,-0.4235 -3.9195,-1.2065 -5.75,-2.04075 -0.94625,-0.43125 -2.14325,-1.29975 -3.239,-1.10275 -1.8805,0.33825 -0.73375,2.272 0.24275,2.8985 1.72925,1.1095 4.23175,1.482 6.24625,1.49875 v 0.25 c -2.23325,0.72675 -4.8635,2.02825 -7.24625,1.954 -2.04575,-0.064 -5.078,-1.5915 -6.9665,-1.0855 -1.0105,0.27075 -0.66525,1.40125 0.0197,1.8405 0.9505,0.60925 2.3615,0.538 3.443,0.541 v 0.5 c -2.75475,0.11825 -5.27025,0.0288 -8,-0.55275 -1.031,-0.2195 -2.9025,-1.23125 -3.91925,-0.7865 -1.08925,0.4765 0.0725,1.5875 0.674,1.83475 1.6875,0.69375 3.70075,0.75425 5.49525,0.7545 v 0.25 c -2.61275,0.386 -5.104,1.86125 -7.75,1.99 -2.09525,0.102 -6.4,-1.12725 -8.16925,0.2445 -1.93625,1.50125 1.88825,1.959 2.66925,2.0155 -3.1925,1.41525 -6.84475,0.78175 -10.25,0.4575 -1.36175,-0.1295 -3.67725,-0.8695 -4.96175,-0.3065 -1.44,0.63125 0.13125,1.686 0.962,1.80175 2.53775,0.354 5.1905,0.29725 7.74975,0.29725 v 0.25 c -2.17075,0.3205 -4.08825,1.6365 -6.25,1.9475 -1.37925,0.1985 -3.72925,-0.496 -4.91925,0.30925 -0.78925,0.53375 -0.30125,1.237 0.16925,1.74325 -2.758,0.59975 -6.31725,-1.2575 -8.96275,-0.0992 -0.98525,0.4315 -0.64975,1.43 0.2275,1.706 1.2255,0.386 3.02725,0.25025 4.23525,-0.10675 -1.9505,1.88675 -5.8555,2.856 -8.5,2.74025 -1.49875,-0.0658 -3.236,-0.5805 -4.72275,-0.16075 -1.0595,0.29925 -1.17075,1.609 -0.24,2.1635 0.68675,0.40925 1.69675,0.257 2.46275,0.257 v 0.25 l -5.25,0.5 c 0,-11.932 6.3885,-23.1325 15.5,-30.634 2.5695,-2.1155 5.3605,-4.10525 8.25,-5.75925 1.66075,-0.9505 3.8635,-1.54275 4.75,-3.35675 -4.167,0.0888 -8.6545,3.6855 -12,5.91675 -11.9765,7.98725 -19.5,19.011 -19.5,33.58325 -0.68175,-0.014 -1.329,-0.0755 -2,-0.201 -0.41275,-0.0772 -0.82725,-0.1845 -1.24625,-0.22175 -1.161,-0.104 -1.8385,0.88475 -0.71575,1.6505 0.90325,0.616 1.955,0.38575 2.957,0.57925 0.333,0.0645 0.78525,0.17925 0.9185,0.5415 0.22375,0.60725 -0.903,1.61275 -1.1635,2.1515 l 1.75,-0.5 c 0.765,17.81775 17.74875,28 34,28 17.95825,0 39.4985,-5.3575 52.47677,-18.50625 4.385,-4.44275 7.1363,-9.422 9.7733,-14.99375 4.6337,14.21625 19.8525,20.15475 33.5,21.78875 29.4825,3.52975 67.25,-15.9875 67.25,-48.78875 0,-2.6915 -0.6301,-5.3515 -0.645,-8 -0.01,-1.486 0.7,-2.21175 0.145,-3.75 1.8325,-0.7755 3.4124,-2.3985 4.1624,-4.25 0.3376,-0.83475 0.4925,-2.53 -0.9075,-2.3835 -1.5474,0.16225 -3.84,3.89825 -5.255,4.8835 -1.4725,-5.89525 -6.515,-11.784 -11.25,-15.34325 -3.0225,-2.271 -6.2175,-4.09025 -9.75,-5.454 -20.65,-7.9745 -41.265,1.7285 -56.75,15.58975 -3.6475,3.266 -7.13,6.6945 -10.27,10.4575 -1.487,1.78125 -2.9953,4.82025 -4.99,6.0155 -2.2145,1.327 -7.161,2.075 -9.74,2.1965 -1.6998,0.08 -3.3055,-2.05975 -4.5,-3.0645 -3.0383,-2.555 -6.4418,-4.69225 -9.99997,-6.446 -13.83925,-6.82175 -30.80775,-8.31175 -45.75,-4.86425 -3.4685,0.80025 -6.73375,2.0475 -10,3.45025 -1.94675,0.83625 -3.812,1.6985 -4.25,3.9625 m 158.74997,-6 c 0.505,-0.71825 1.1075,-1.32525 1.67,-2 0.3075,-0.3705 2.785,-4.45825 0.6275,-3.485 -2.905,1.31 -2.54,5.47075 -6.5474,5.485 v -0.25 c 0.4324,-0.29175 4.4649,-3.3275 1.9725,-3.34125 -1.4925,-0.008 -3.435,2.526 -4.7225,3.25625 -1.5876,0.9005 -3.74,0.585 -5.5,0.585 l 2.75,-4.25 c -1.8525,0.8825 -2.7651,3.00325 -4.5,4.09925 -1.58,0.998 -4.9076,0.8855 -6.75,0.90075 v -0.25 c 0.6099,-0.35225 3.575,-3.275 1.2449,-2.781 -1.5225,0.32275 -2.9425,2.19 -4.2449,3.0075 -1.4375,0.9025 -3.3325,0.98925 -5,1.0235 0.44,-0.541 3.1324,-2.43925 2.085,-3.25725 -0.81,-0.63325 -2.1025,1.04225 -2.585,1.4975 -2.455,2.32175 -5.4601,2.998 -8.75,3.25975 0.5975,-0.74025 4.505,-3.5135 3.27,-4.66575 -0.8876,-0.829 -2.4726,0.9225 -3.0426,1.46175 -3.3775,3.19 -5.4625,4.353 -9.9774,5.204 v -0.25 c 1.15,-0.71625 2.635,-1.6015 3.3924,-2.7535 0.485,-0.73625 0.1301,-1.76975 -0.8875,-1.495 -1.0825,0.293 -1.98,1.7445 -2.755,2.48875 -2.1125,2.02775 -4.4475,3.73425 -7.5,3.00975 -0.2025,0.94 -1.135,0.909 -2,1 v -0.25 c 1.5625,-0.9735 3.365,-2.0915 3.75,-4 -3.9175,0.93075 -6.1875,6.4125 -10.75,4.75 l 0.5,1 -3.5,0.5 c 11.17,-18.0975 33.61,-30.09825 55,-27.53875 7.345,0.87875 14.58,4.2485 19.3475,10.03875 1.07,1.30225 2.905,3.0865 3.345,4.75 0.29,1.1035 -1.0825,2.43375 -1.965,2.9205 -1.9425,1.07 -5.7925,0.3295 -7.9774,0.3295 m 19,-15.5 c 1,1.655 4.3824,2.993 6,4.2175 4.1975,3.18 8.18,6.6325 11.4475,10.7825 5.0625,6.43075 8.7925,14.14625 12.3074,21.5 5.795,12.1135 10.705,23.98625 13.0925,37.25 1.185,6.59 1.105,13.2315 1.73,19.856 0.083,0.8825 -0.21,6.1455 1.15,5.91375 1.51,-0.25775 1.235,-6.0495 1.2651,-7.2795 0.2025,-7.93375 1.0775,-15.803 0.525,-23.744 -1.125,-16.1955 -9.5725,-31.64175 -18.6575,-44.74625 -3.3575,-4.84025 -6.53,-9.74425 -11.11,-13.56125 -3.5,-2.9175 -7.5975,-4.98975 -11.5,-7.30175 -1.9,-1.12575 -4.005,-2.657 -6.25,-2.887 m 63,20.25 c -5.095,0 -9.6825,1.17625 -14.25,3.438 -1.4175,0.70225 -3.17,1.12925 -4.25,2.312 4.805,0 9.77,-0.297 14.5,-1.20075 1.815,-0.3465 3.9175,-0.3995 5.25,-1.79925 h 0.25 c 4.07,8.5975 8.33,19.6445 8.75,29.25 -5.4725,0.004 -9.8475,2.529 -15,3.75 l -7.5,-16.75 c 4.6,-0.363 9.19,-1.36425 13.75,-2.06875 1.125,-0.17375 4.2375,-0.7815 3.04,-2.62425 -0.7875,-1.21475 -3.235,-0.872 -4.49,-0.85425 -2.9875,0.042 -5.81,0.73225 -8.55,1.904 -1.5875,0.67925 -3.04,1.83475 -4.75,2.14325 -2.925,-6.26575 -7.3125,-12.048 -11.185,-17.75 -1.48,-2.17575 -3.5425,-4.32925 -4.565,-6.75 5.2975,0 10.81,-1.06375 16,-2.1 1.73,-0.34525 5.2925,-1.7855 6.955,-1.2265 0.975,0.32775 1.555,1.76125 2.045,2.5765 1.46,2.42925 3.24,4.996 4,7.75 m -70.75,-6 0.5,1.5 h -2.25 l 1.75,-1.5 m 2.5,6.25 c 5.6575,14.77925 -1.97,29.50925 -14,38.10525 -17.275,12.34575 -43.005,19.79825 -62.75,8.5025 -9.9885,-5.714 -14.117,-16.017 -11.8498,-27.10775 0.505,-2.47075 1.341,-7.15475 3.4473,-8.7865 1.6505,-1.2785 5.135,-1.40675 7.1525,-1.8135 5.41,-1.09025 10.765,-2.45325 16.25,-3.15 -3.8925,7.61825 0.5325,20.7105 8.75,24.1305 10.165,4.23 22.9225,0.25475 28.415,-9.3805 1.315,-2.306 1.73,-4.9245 2.1825,-7.5 0.7775,-4.4425 -1.575,-7.5015 -3.3475,-11.25 l 25.75,-1.75 m -41.5,3.5985 c 1.8325,-0.421 4.885,-0.14825 6.1224,1.4285 2.0325,2.59425 0.125,7.10975 -2.8724,7.80275 -2.0976,0.485 -5.05,-0.1355 -6.2475,-2.0835 -1.4475,-2.3585 0.3275,-6.53375 2.9975,-7.14775 m -8,6.4805 c 2.145,-0.24525 4.0225,1.9005 4.2249,3.921 0.32,3.216 -1.5999,7.57 -5.2249,7.86675 -4.6875,0.38375 -6.5676,-5.21625 -4.635,-8.85675 0.9349,-1.7645 3.76,-2.71675 5.635,-2.931 m -42.0001,1.921 -1.75,4.75 h -0.25 l -2,-4 4,-0.75 m -95.49997,27.75 17.5,-5.5 c 0,3.28125 0.1945,6.28275 1.78075,9.25 5.34925,10.006 20.54575,11.5555 30.21925,7.90675 7.8555,-2.96275 13.5975,-10.84125 14.67775,-19.15675 0.6335,-4.878 -1.8035,-7.65725 -3.67775,-11.75 6.3675,-1.45975 12.657,-3.383 18.99997,-4.96825 1.7322,-0.433 5.7265,-2.09875 7.4052,-1.37725 2.0143,0.86575 2.8995,5.44 3.1973,7.3455 1.2898,8.25875 -2.9832,16.7585 -8.3949,22.75 -12.10582,13.40275 -32.41607,19.112 -49.95732,19.759 -9.1165,0.33625 -18.7735,-1.304 -25.20675,-8.509 -4.119,-4.61275 -5.45425,-9.8825 -6.5435,-15.75 m 149.00007,-24.92825 c 4.99,-0.58875 4.8375,7.17825 0.5,7.801 -5.7175,0.821 -5.9775,-7.15475 -0.5,-7.801 m -110.50007,7.92825 -0.25,0.25 0.25,-0.25 m 2,5.33225 c 1.2065,-0.2175 3.4265,-0.15775 4.3145,0.831 1.4645,1.6305 -0.16525,4.69225 -2.0645,5.0295 -1.365,0.24225 -3.44575,-0.11575 -4.35675,-1.22625 -1.51275,-1.84325 0.0232,-4.2585 2.10675,-4.63425 m -24,2.91775 -0.25,0.25 0.25,-0.25 m 16.5,3.076 c 6.214,-0.64475 6.29975,10.65125 0.25,11.3775 -3.49525,0.4195 -8.50175,-3.9485 -6.9975,-7.7035 0.959,-2.3935 4.3975,-3.43025 6.7475,-3.674 m 236.25007,40.924 c -3.8825,-1.81175 -8.1301,0.1045 -12,1 l -1.25,-22.75 c 2.2425,-0.0962 5.6575,0.036 7.75,-0.67575 0.835,-0.28425 1.9324,-1.05725 1.835,-2.0645 -0.1125,-1.13 -1.6176,-1.6795 -2.585,-1.62375 -2.6425,0.15225 -5.2626,1.3045 -7.75,2.114 -0.2651,-3.23325 -1.645,-6.6795 -2.6675,-9.75 -0.3425,-1.03025 -1.4901,-3.09475 -1.135,-4.1705 0.305,-0.924 2.3074,-0.56875 3.0525,-0.63825 2.9175,-0.27225 5.835,-0.44225 8.75,-0.7335 0.825,-0.0825 2.3199,-0.58775 2.815,0.37175 0.5075,0.98475 0.39,2.58075 0.54,3.6705 0.4224,3.06775 0.68,6.16425 0.9175,9.251 0.665,8.6615 1.7275,17.2965 1.7275,25.999 M 967.73473,780.3377 c 3.524,-0.80625 5.19875,4.626 1.4995,5.4615 -3.5785,0.80825 -5.4665,-4.55375 -1.4995,-5.4615 m 44.49977,20.6515 c 1.5427,-0.48725 2.8332,-1.35525 4.5,-1.4775 8.0945,-0.59375 18.8825,5.88875 23.25,12.4775 2.2275,3.36025 4.3975,7.92925 3.0625,12 -3.57,10.89425 -17.174,14.3755 -27.3125,12.6785 -2.674,-0.4475 -5.2208,-1.573 -7.75,-2.50825 -3.4205,-1.26475 -7.9385,-2.94475 -10.44677,-5.69275 -1.53725,-1.68425 -0.06,-3.06 -0.90525,-4.657 -0.55625,-1.0505 -1.81225,-0.52875 -2.35075,0.213 -0.91475,1.26025 -1.04125,2.7365 -0.706,4.2165 1.10375,4.873 7.30047,8.5705 11.40877,10.6245 11.5232,5.76175 29.25,4.031 37.28,-6.8745 2.7025,-3.673 4.5725,-7.59625 3.895,-12.25 -1.515,-10.39925 -12.245,-17.35875 -21.425,-20.41675 -3.2638,-1.087 -10.6493,-2.2085 -12.5,1.66675 m -58.25002,117.24999 c -0.92575,-1.6075 -3.8995,-2.44 -5.5,-3.3575 -4.36425,-2.5025 -8.69575,-4.945 -12.75,-7.93 -5.09875,-3.7575 -9.20125,-8.7025 -13.3205,-13.4625 -4.2465,-4.905 -8.6995,-9.93 -12.067,-15.5 -8.677,-14.354 -12.946,-30.80924 -14.09,-47.49999 -0.363,-5.293 -1.0745,-10.69075 -1.0215,-16 0.0315,-3.1565 0.957,-6.70025 -0.001,-9.75 -2.66025,0.7895 -2.29825,6.6955 -2.5,9 -0.825,9.42 -1.2705,18.584 -0.30875,28.02225 0.76375,7.49575 1.706,14.8135 4.185,21.97774 7.1295,20.605 24.66675,40.1425 44.62375,48.965 3.91875,1.7325 8.528,4.9025 12.75,5.535 M 1193.2345,819.2392 c 0,16.14725 -8.6575,30.14375 -17.23,43.24999 -1.9275,2.94475 -4.015,5.78325 -5.91,8.75 -0.995,1.55625 -2.03,3.8865 -3.49,5.03925 -1.2,0.94775 -3.2,1.36125 -4.62,1.91325 -2.2325,0.8675 -4.3325,2.04 -6.5,3.0475 1.93,-4.563 5.9125,-9.0155 8.58,-13.25 1.1675,-1.85575 2.1525,-4.66275 3.765,-6.14175 1.9625,-1.8005 6.88,-0.51625 7.8775,-3.61825 0.9725,-3.03674 -3.49,-2.46274 -4.9725,-1.98999 0.795,-2.90725 2.345,-5.6895 3.45,-8.5 0.375,-0.959 0.5975,-2.60825 1.605,-3.109 2.1,-1.0435 5.61,-0.61525 7.9475,-0.96075 0.97,-0.14325 2.465,-0.261 3.005,-1.21625 0.7425,-1.3125 -0.9375,-2.173 -2.0075,-2.19325 -2.6475,-0.0498 -5.7075,0.515 -8.25,1.22925 l 4.25,-20.5 c 3.97,-0.0327 8.87,-0.1065 12.5,-1.75 m -112.25,8.25 c -26.1825,17.66375 -57.16,27.5075 -88.50002,30.54249 -9.8605,0.95475 -20.64675,3.7935 -30.5,1.9575 0,6.157 2.20725,11.39575 4.60525,17 2.012,4.7025 4.43075,9.29 7.70975,13.2475 14.39025,17.36 39.20102,21.58 60.68502,19.9575 7.5925,-0.575 15.055,-2.3325 22.5,-3.8425 10.355,-2.1 20.71,-5.1725 30.75,-8.445 2.3375,-0.7625 4.6925,-1.3825 7,-2.2475 0.8225,-0.3075 2.0675,-0.6875 2.3125,-1.665 0.21,-0.845 -0.7,-0.995 -1.3125,-0.92 -1.725,0.2125 -3.595,0.89 -5.25,1.415 -3.895,-8.34 -6.1,-16.80375 -8.22,-25.75 -1.885,-7.9455 -3.8775,-15.85274 -4.77,-23.99024 -0.3725,-3.38575 -1.58,-8.4165 -0.68,-11.73725 0.6475,-2.394 5.045,-2.43 3.67,-5.5225 m -5,6 c -0.038,6.413 -1.1875,12.82675 -0.4275,19.25 0.2025,1.72225 1.475,6.65124 0.42,8.07524 -0.5425,0.73525 -1.9375,1.03425 -2.7425,1.38975 -2.27,1.0035 -4.6,2.12875 -7,2.785 -1.0775,-5.55 -3.0375,-10.91949 -3.98,-16.49999 -0.3025,-1.787 -1.15,-4.67275 -0.37,-6.41775 0.52,-1.16325 2.56,-1.73775 3.6,-2.3325 3.3325,-1.903 6.895,-5.05475 10.5,-6.24975 m -15.5,9 2,24.24999 -13,2.75 -3.25,-20.49999 14.25,-6.5 m 91.75,6.5 c -4.2525,9.59299 -13.665,16.54549 -21.26,23.54599 -18.5725,17.119 -38.0175,33.1015 -61.74,42.5915 -7.0775,2.8325 -14.415,4.9675 -21.75,7.0075 -3.465,0.9625 -7.6125,1.32 -10.75,3.105 v 0.5 c 2.185,0.64 4.8325,-0.4875 7,-0.9475 5.085,-1.08 10.17,-2.1525 15.25,-3.25 28.9675,-6.2625 53.7425,-24.2975 74.01,-45.30625 5.4125,-5.61275 10.5725,-11.606 15.06,-17.99625 1.8825,-2.68074 4.3875,-5.88749 4.68,-9.24999 h -0.5 m -107,0.5 0.75,20.99999 -17.5,4.75 -2.25,-18.99999 19,-6.75 m -20.25,7.25 v 14.24999 l -0.01,5.068 -3.993,1.3385 -11.75,2.8435 c -0.906,-4.67175 -2.054,-9.2805 -2.7175,-14 -0.1748,-1.24475 -0.8723,-4.011 -0.025,-5.1 0.7882,-1.01425 3.8005,-0.917 4.993,-1.15025 4.5545,-0.8905 8.9697,-2.31224 13.5,-3.24974 m -19.75,4.24999 c -0.2968,6.91 0.6297,13.39975 1.5,20.25 l -8.50002,2 c -0.9485,-2.2475 -0.0235,-5.3555 2.04602,-6.7865 1.3062,-0.903 2.647,-0.84825 3.704,-2.2135 l -0.25,-0.25 c -1.1,0.41075 -2.3058,0.98625 -3.5,0.97825 -5.60227,-0.0383 -4.26052,-9.42775 -4.00002,-12.72825 l 9.00002,-1.25 m -21.00002,2.25 c -0.97525,7.71775 1.187,14.653 1.25,22.25 l -8.5,-0.365 -4.75,-1.385 c 2.07025,2.8775 6.19125,4.245 9.5,5.0925 1.2405,0.3175 3.59975,0.285 4.568,1.1425 0.6275,0.555 0.705,1.7525 0.93825,2.515 0.6645,2.17 1.29125,4.34 1.99375,6.5 -3.02825,-0.8725 -5.82875,-3.0525 -8.25,-5 -6.88925,-5.5425 -11.1925,-12.5625 -14.82725,-20.5 -1.69625,-3.7045 -3.63825,-7.5875 -3.67275,-11.75 7.084,1.875 14.466,1.5 21.75,1.5 m 10.75,-0.75 c 0,3.27025 0.1615,9.83675 -3.27325,11.70525 -1.276,0.694 -3.52825,0.36175 -4.97675,0.54475 l -1.25,-11.5 9.5,-0.75 m 82.00002,2 c 0.4675,10.83025 5.5575,21.3175 10.25,30.75 l -12,2.5 -8.25,-30 10,-3.25 m -13.75,5 c 0.81,9.905 4.95,19.895 8,29.25 l -13.5,3 c -3.195,-6.06 -4.415,-13.6225 -5.9125,-20.25 -0.3775,-1.67 -1.935,-5.55575 -1.185,-7.1455 0.4275,-0.90975 2.24,-1.3075 3.0975,-1.6745 2.9325,-1.25425 6.3425,-2.70725 9.5,-3.18 m -68.00002,0.5 c 0.984,2.56625 1.687,4.63225 4.25,6 l -2.75,3.75 c -0.8305,-2.1905 -2.5415,-3.5895 -4.5,-4.75 v -0.25 l 3,-4.75 m -6.25,15 c -0.43825,-2.26 -0.96175,-4.5 -1.4475,-6.75 -0.14375,-0.666 -0.6975,-1.9725 -0.273,-2.59925 0.5405,-0.79775 2.43425,-0.18325 3.2205,-0.1535 2.7885,0.10625 8.27625,4.74525 5.5355,7.86275 -0.6555,0.745 -2.12375,0.7925 -3.0355,0.9525 -1.3335,0.2325 -2.649,0.58 -4,0.6875 m 57.50002,-9.25 3.1075,14.75 4.6425,12 c -4.3475,0.5625 -8.6325,1.37 -13,1.7925 -1.4375,0.14 -3.82,0.935 -5.18,0.3075 -1.3825,-0.6375 -1.9,-4.255 -2.315,-5.6 -1.735,-5.65 -2.88,-11.455 -4.005,-17.25 l 16.75,-6 m 117,5.5 c -3.59,9.335 -13.8375,12.875 -22.25,16.5 2.105,-2.99 5.145,-5.4575 7.5225,-8.26 1.365,-1.605 2.7475,-4.075 4.52,-5.2175 2.5325,-1.635 7.2425,-2.585 10.2075,-3.0225 m -137.25,1.75 c 0.3182,7.41 2.7225,15 5,22 l -16,-0.25 -4.25,-17.5 15.25,-4.25 m -18,5 5,16.75 -15.25002,-2.5725 -5.10275,-1.8525 -0.96975,-2.825 -1.6775,-7.5 8.75,-0.5 1,2.25 -0.25,-2.5 z"
       id="path280"
       inkscape:connector-curvature="0" />
  </g>
</svg>
